%TF.GenerationSoftware,KiCad,Pcbnew,6.0.10-86aedd382b~118~ubuntu22.04.1*%
%TF.CreationDate,2023-01-11T08:47:55-08:00*%
%TF.ProjectId,shield,73686965-6c64-42e6-9b69-6361645f7063,rev?*%
%TF.SameCoordinates,Original*%
%TF.FileFunction,Soldermask,Top*%
%TF.FilePolarity,Negative*%
%FSLAX46Y46*%
G04 Gerber Fmt 4.6, Leading zero omitted, Abs format (unit mm)*
G04 Created by KiCad (PCBNEW 6.0.10-86aedd382b~118~ubuntu22.04.1) date 2023-01-11 08:47:55*
%MOMM*%
%LPD*%
G01*
G04 APERTURE LIST*
%ADD10C,2.760000*%
%ADD11R,1.600000X2.600000*%
%ADD12O,2.600000X1.200000*%
%ADD13R,1.100000X1.000000*%
%ADD14R,1.800000X1.800000*%
%ADD15C,1.800000*%
%ADD16R,1.000000X1.100000*%
%ADD17R,0.610000X1.270000*%
%ADD18R,3.910000X3.750000*%
%ADD19C,2.800000*%
%ADD20R,2.100000X2.100000*%
%ADD21C,2.100000*%
%ADD22R,1.470000X1.285000*%
%ADD23R,1.000000X1.450000*%
%ADD24R,1.500000X2.800000*%
%ADD25C,1.000000*%
%ADD26R,6.300000X6.100000*%
%ADD27R,6.300000X3.000000*%
%ADD28R,2.600000X1.600000*%
%ADD29R,2.000000X3.000000*%
%ADD30C,1.500000*%
%ADD31C,2.200000*%
%ADD32R,1.524000X1.524000*%
%ADD33C,1.524000*%
G04 APERTURE END LIST*
D10*
X82500000Y-130500000D03*
X24500000Y-44500000D03*
X24500000Y-130500000D03*
X82500000Y-44500000D03*
D11*
X52420000Y-132760000D03*
X52420000Y-136360000D03*
D12*
X45000000Y-123520000D03*
X45000000Y-126620000D03*
X45000000Y-134920000D03*
D13*
X69115000Y-93070000D03*
X70815000Y-93070000D03*
X34395000Y-129282500D03*
X36095000Y-129282500D03*
X28520000Y-83260000D03*
X30220000Y-83260000D03*
X38990000Y-113045000D03*
X37290000Y-113045000D03*
X76180000Y-95250000D03*
X74480000Y-95250000D03*
X30220000Y-81570000D03*
X28520000Y-81570000D03*
G36*
G01*
X31520000Y-133562500D02*
X31520000Y-133337500D01*
G75*
G02*
X31632500Y-133225000I112500J0D01*
G01*
X32907500Y-133225000D01*
G75*
G02*
X33020000Y-133337500I0J-112500D01*
G01*
X33020000Y-133562500D01*
G75*
G02*
X32907500Y-133675000I-112500J0D01*
G01*
X31632500Y-133675000D01*
G75*
G02*
X31520000Y-133562500I0J112500D01*
G01*
G37*
G36*
G01*
X31520000Y-134212500D02*
X31520000Y-133987500D01*
G75*
G02*
X31632500Y-133875000I112500J0D01*
G01*
X32907500Y-133875000D01*
G75*
G02*
X33020000Y-133987500I0J-112500D01*
G01*
X33020000Y-134212500D01*
G75*
G02*
X32907500Y-134325000I-112500J0D01*
G01*
X31632500Y-134325000D01*
G75*
G02*
X31520000Y-134212500I0J112500D01*
G01*
G37*
G36*
G01*
X31520000Y-134862500D02*
X31520000Y-134637500D01*
G75*
G02*
X31632500Y-134525000I112500J0D01*
G01*
X32907500Y-134525000D01*
G75*
G02*
X33020000Y-134637500I0J-112500D01*
G01*
X33020000Y-134862500D01*
G75*
G02*
X32907500Y-134975000I-112500J0D01*
G01*
X31632500Y-134975000D01*
G75*
G02*
X31520000Y-134862500I0J112500D01*
G01*
G37*
G36*
G01*
X31520000Y-135512500D02*
X31520000Y-135287500D01*
G75*
G02*
X31632500Y-135175000I112500J0D01*
G01*
X32907500Y-135175000D01*
G75*
G02*
X33020000Y-135287500I0J-112500D01*
G01*
X33020000Y-135512500D01*
G75*
G02*
X32907500Y-135625000I-112500J0D01*
G01*
X31632500Y-135625000D01*
G75*
G02*
X31520000Y-135512500I0J112500D01*
G01*
G37*
G36*
G01*
X31520000Y-136162500D02*
X31520000Y-135937500D01*
G75*
G02*
X31632500Y-135825000I112500J0D01*
G01*
X32907500Y-135825000D01*
G75*
G02*
X33020000Y-135937500I0J-112500D01*
G01*
X33020000Y-136162500D01*
G75*
G02*
X32907500Y-136275000I-112500J0D01*
G01*
X31632500Y-136275000D01*
G75*
G02*
X31520000Y-136162500I0J112500D01*
G01*
G37*
G36*
G01*
X31520000Y-136812500D02*
X31520000Y-136587500D01*
G75*
G02*
X31632500Y-136475000I112500J0D01*
G01*
X32907500Y-136475000D01*
G75*
G02*
X33020000Y-136587500I0J-112500D01*
G01*
X33020000Y-136812500D01*
G75*
G02*
X32907500Y-136925000I-112500J0D01*
G01*
X31632500Y-136925000D01*
G75*
G02*
X31520000Y-136812500I0J112500D01*
G01*
G37*
G36*
G01*
X31520000Y-137462500D02*
X31520000Y-137237500D01*
G75*
G02*
X31632500Y-137125000I112500J0D01*
G01*
X32907500Y-137125000D01*
G75*
G02*
X33020000Y-137237500I0J-112500D01*
G01*
X33020000Y-137462500D01*
G75*
G02*
X32907500Y-137575000I-112500J0D01*
G01*
X31632500Y-137575000D01*
G75*
G02*
X31520000Y-137462500I0J112500D01*
G01*
G37*
G36*
G01*
X31520000Y-138112500D02*
X31520000Y-137887500D01*
G75*
G02*
X31632500Y-137775000I112500J0D01*
G01*
X32907500Y-137775000D01*
G75*
G02*
X33020000Y-137887500I0J-112500D01*
G01*
X33020000Y-138112500D01*
G75*
G02*
X32907500Y-138225000I-112500J0D01*
G01*
X31632500Y-138225000D01*
G75*
G02*
X31520000Y-138112500I0J112500D01*
G01*
G37*
G36*
G01*
X25720000Y-138112500D02*
X25720000Y-137887500D01*
G75*
G02*
X25832500Y-137775000I112500J0D01*
G01*
X27107500Y-137775000D01*
G75*
G02*
X27220000Y-137887500I0J-112500D01*
G01*
X27220000Y-138112500D01*
G75*
G02*
X27107500Y-138225000I-112500J0D01*
G01*
X25832500Y-138225000D01*
G75*
G02*
X25720000Y-138112500I0J112500D01*
G01*
G37*
G36*
G01*
X25720000Y-137462500D02*
X25720000Y-137237500D01*
G75*
G02*
X25832500Y-137125000I112500J0D01*
G01*
X27107500Y-137125000D01*
G75*
G02*
X27220000Y-137237500I0J-112500D01*
G01*
X27220000Y-137462500D01*
G75*
G02*
X27107500Y-137575000I-112500J0D01*
G01*
X25832500Y-137575000D01*
G75*
G02*
X25720000Y-137462500I0J112500D01*
G01*
G37*
G36*
G01*
X25720000Y-136812500D02*
X25720000Y-136587500D01*
G75*
G02*
X25832500Y-136475000I112500J0D01*
G01*
X27107500Y-136475000D01*
G75*
G02*
X27220000Y-136587500I0J-112500D01*
G01*
X27220000Y-136812500D01*
G75*
G02*
X27107500Y-136925000I-112500J0D01*
G01*
X25832500Y-136925000D01*
G75*
G02*
X25720000Y-136812500I0J112500D01*
G01*
G37*
G36*
G01*
X25720000Y-136162500D02*
X25720000Y-135937500D01*
G75*
G02*
X25832500Y-135825000I112500J0D01*
G01*
X27107500Y-135825000D01*
G75*
G02*
X27220000Y-135937500I0J-112500D01*
G01*
X27220000Y-136162500D01*
G75*
G02*
X27107500Y-136275000I-112500J0D01*
G01*
X25832500Y-136275000D01*
G75*
G02*
X25720000Y-136162500I0J112500D01*
G01*
G37*
G36*
G01*
X25720000Y-135512500D02*
X25720000Y-135287500D01*
G75*
G02*
X25832500Y-135175000I112500J0D01*
G01*
X27107500Y-135175000D01*
G75*
G02*
X27220000Y-135287500I0J-112500D01*
G01*
X27220000Y-135512500D01*
G75*
G02*
X27107500Y-135625000I-112500J0D01*
G01*
X25832500Y-135625000D01*
G75*
G02*
X25720000Y-135512500I0J112500D01*
G01*
G37*
G36*
G01*
X25720000Y-134862500D02*
X25720000Y-134637500D01*
G75*
G02*
X25832500Y-134525000I112500J0D01*
G01*
X27107500Y-134525000D01*
G75*
G02*
X27220000Y-134637500I0J-112500D01*
G01*
X27220000Y-134862500D01*
G75*
G02*
X27107500Y-134975000I-112500J0D01*
G01*
X25832500Y-134975000D01*
G75*
G02*
X25720000Y-134862500I0J112500D01*
G01*
G37*
G36*
G01*
X25720000Y-134212500D02*
X25720000Y-133987500D01*
G75*
G02*
X25832500Y-133875000I112500J0D01*
G01*
X27107500Y-133875000D01*
G75*
G02*
X27220000Y-133987500I0J-112500D01*
G01*
X27220000Y-134212500D01*
G75*
G02*
X27107500Y-134325000I-112500J0D01*
G01*
X25832500Y-134325000D01*
G75*
G02*
X25720000Y-134212500I0J112500D01*
G01*
G37*
G36*
G01*
X25720000Y-133562500D02*
X25720000Y-133337500D01*
G75*
G02*
X25832500Y-133225000I112500J0D01*
G01*
X27107500Y-133225000D01*
G75*
G02*
X27220000Y-133337500I0J-112500D01*
G01*
X27220000Y-133562500D01*
G75*
G02*
X27107500Y-133675000I-112500J0D01*
G01*
X25832500Y-133675000D01*
G75*
G02*
X25720000Y-133562500I0J112500D01*
G01*
G37*
D14*
X87200000Y-123290000D03*
D15*
X87200000Y-125830000D03*
X87200000Y-128370000D03*
D13*
X41830000Y-83410000D03*
X40130000Y-83410000D03*
D16*
X32270000Y-131757500D03*
X32270000Y-130057500D03*
D13*
X34395000Y-132507500D03*
X36095000Y-132507500D03*
D17*
X96285000Y-145917500D03*
X95015000Y-145917500D03*
X93745000Y-145917500D03*
X92475000Y-145917500D03*
X92475000Y-151257500D03*
X93745000Y-151257500D03*
X95015000Y-151257500D03*
D18*
X94380000Y-149247500D03*
D17*
X96285000Y-151257500D03*
D19*
X49400000Y-75100000D03*
X70600000Y-75100000D03*
X70000000Y-48000000D03*
X50000000Y-48000000D03*
D20*
X52380000Y-82000000D03*
D21*
X54920000Y-82000000D03*
X57460000Y-82000000D03*
X60000000Y-82000000D03*
X62540000Y-82000000D03*
X65080000Y-82000000D03*
X67620000Y-82000000D03*
D22*
X96260000Y-154037000D03*
X96260000Y-155983000D03*
D13*
X51300000Y-93325000D03*
X49600000Y-93325000D03*
D22*
X81200000Y-153977000D03*
X81200000Y-155923000D03*
D16*
X65470000Y-126818000D03*
X65470000Y-125118000D03*
D23*
X49450000Y-98560000D03*
X51450000Y-98560000D03*
D16*
X87500000Y-131700000D03*
X87500000Y-133400000D03*
D13*
X30210000Y-79880000D03*
X28510000Y-79880000D03*
X51575000Y-109845000D03*
X49875000Y-109845000D03*
D14*
X90960000Y-123950000D03*
D15*
X93500000Y-123950000D03*
X96040000Y-123950000D03*
D13*
X39890000Y-97100000D03*
X38190000Y-97100000D03*
D12*
X60000000Y-88520000D03*
X60000000Y-91620000D03*
X60000000Y-99920000D03*
X60000000Y-103520000D03*
X60000000Y-106620000D03*
X60000000Y-114920000D03*
D13*
X70825000Y-96450000D03*
X69125000Y-96450000D03*
X32270000Y-139432500D03*
X33970000Y-139432500D03*
D23*
X80680000Y-98255000D03*
X82680000Y-98255000D03*
D24*
X94026000Y-131700000D03*
D25*
X92490000Y-143150000D03*
D26*
X91740000Y-137950000D03*
D25*
X89490000Y-143150000D03*
X90990000Y-140150000D03*
X92490000Y-140150000D03*
X90990000Y-143150000D03*
X89490000Y-141650000D03*
X93990000Y-140150000D03*
X93990000Y-143150000D03*
X93990000Y-141650000D03*
X92490000Y-141650000D03*
X90990000Y-141650000D03*
X89490000Y-140150000D03*
D27*
X91740000Y-142500000D03*
D24*
X89454000Y-131700000D03*
D12*
X90000000Y-88520000D03*
X90000000Y-91620000D03*
X90000000Y-99920000D03*
D14*
X73580000Y-143950000D03*
D15*
X76120000Y-143950000D03*
D13*
X69115000Y-94760000D03*
X70815000Y-94760000D03*
X45750000Y-97580000D03*
X44050000Y-97580000D03*
D28*
X75600000Y-138860000D03*
X72000000Y-138860000D03*
G36*
G01*
X43025000Y-92557500D02*
X43025000Y-92332500D01*
G75*
G02*
X43137500Y-92220000I112500J0D01*
G01*
X43962500Y-92220000D01*
G75*
G02*
X44075000Y-92332500I0J-112500D01*
G01*
X44075000Y-92557500D01*
G75*
G02*
X43962500Y-92670000I-112500J0D01*
G01*
X43137500Y-92670000D01*
G75*
G02*
X43025000Y-92557500I0J112500D01*
G01*
G37*
G36*
G01*
X43025000Y-93207500D02*
X43025000Y-92982500D01*
G75*
G02*
X43137500Y-92870000I112500J0D01*
G01*
X43962500Y-92870000D01*
G75*
G02*
X44075000Y-92982500I0J-112500D01*
G01*
X44075000Y-93207500D01*
G75*
G02*
X43962500Y-93320000I-112500J0D01*
G01*
X43137500Y-93320000D01*
G75*
G02*
X43025000Y-93207500I0J112500D01*
G01*
G37*
G36*
G01*
X43025000Y-93857500D02*
X43025000Y-93632500D01*
G75*
G02*
X43137500Y-93520000I112500J0D01*
G01*
X43962500Y-93520000D01*
G75*
G02*
X44075000Y-93632500I0J-112500D01*
G01*
X44075000Y-93857500D01*
G75*
G02*
X43962500Y-93970000I-112500J0D01*
G01*
X43137500Y-93970000D01*
G75*
G02*
X43025000Y-93857500I0J112500D01*
G01*
G37*
G36*
G01*
X43025000Y-94507500D02*
X43025000Y-94282500D01*
G75*
G02*
X43137500Y-94170000I112500J0D01*
G01*
X43962500Y-94170000D01*
G75*
G02*
X44075000Y-94282500I0J-112500D01*
G01*
X44075000Y-94507500D01*
G75*
G02*
X43962500Y-94620000I-112500J0D01*
G01*
X43137500Y-94620000D01*
G75*
G02*
X43025000Y-94507500I0J112500D01*
G01*
G37*
G36*
G01*
X45625000Y-92557500D02*
X45625000Y-92332500D01*
G75*
G02*
X45737500Y-92220000I112500J0D01*
G01*
X46562500Y-92220000D01*
G75*
G02*
X46675000Y-92332500I0J-112500D01*
G01*
X46675000Y-92557500D01*
G75*
G02*
X46562500Y-92670000I-112500J0D01*
G01*
X45737500Y-92670000D01*
G75*
G02*
X45625000Y-92557500I0J112500D01*
G01*
G37*
G36*
G01*
X45625000Y-93207500D02*
X45625000Y-92982500D01*
G75*
G02*
X45737500Y-92870000I112500J0D01*
G01*
X46562500Y-92870000D01*
G75*
G02*
X46675000Y-92982500I0J-112500D01*
G01*
X46675000Y-93207500D01*
G75*
G02*
X46562500Y-93320000I-112500J0D01*
G01*
X45737500Y-93320000D01*
G75*
G02*
X45625000Y-93207500I0J112500D01*
G01*
G37*
G36*
G01*
X45625000Y-93857500D02*
X45625000Y-93632500D01*
G75*
G02*
X45737500Y-93520000I112500J0D01*
G01*
X46562500Y-93520000D01*
G75*
G02*
X46675000Y-93632500I0J-112500D01*
G01*
X46675000Y-93857500D01*
G75*
G02*
X46562500Y-93970000I-112500J0D01*
G01*
X45737500Y-93970000D01*
G75*
G02*
X45625000Y-93857500I0J112500D01*
G01*
G37*
G36*
G01*
X45625000Y-94507500D02*
X45625000Y-94282500D01*
G75*
G02*
X45737500Y-94170000I112500J0D01*
G01*
X46562500Y-94170000D01*
G75*
G02*
X46675000Y-94282500I0J-112500D01*
G01*
X46675000Y-94507500D01*
G75*
G02*
X46562500Y-94620000I-112500J0D01*
G01*
X45737500Y-94620000D01*
G75*
G02*
X45625000Y-94507500I0J112500D01*
G01*
G37*
D12*
X30000000Y-88520000D03*
X30000000Y-91620000D03*
X30000000Y-99920000D03*
D13*
X51575000Y-111555000D03*
X49875000Y-111555000D03*
X49875000Y-113265000D03*
X51575000Y-113265000D03*
D16*
X78110000Y-71030000D03*
X78110000Y-72730000D03*
D23*
X39150000Y-114900000D03*
X37150000Y-114900000D03*
D12*
X75000000Y-123520000D03*
X75000000Y-126620000D03*
X75000000Y-134920000D03*
X30000000Y-103520000D03*
X30000000Y-106620000D03*
X30000000Y-114920000D03*
G36*
G01*
X43025000Y-109967500D02*
X43025000Y-109742500D01*
G75*
G02*
X43137500Y-109630000I112500J0D01*
G01*
X43962500Y-109630000D01*
G75*
G02*
X44075000Y-109742500I0J-112500D01*
G01*
X44075000Y-109967500D01*
G75*
G02*
X43962500Y-110080000I-112500J0D01*
G01*
X43137500Y-110080000D01*
G75*
G02*
X43025000Y-109967500I0J112500D01*
G01*
G37*
G36*
G01*
X43025000Y-110617500D02*
X43025000Y-110392500D01*
G75*
G02*
X43137500Y-110280000I112500J0D01*
G01*
X43962500Y-110280000D01*
G75*
G02*
X44075000Y-110392500I0J-112500D01*
G01*
X44075000Y-110617500D01*
G75*
G02*
X43962500Y-110730000I-112500J0D01*
G01*
X43137500Y-110730000D01*
G75*
G02*
X43025000Y-110617500I0J112500D01*
G01*
G37*
G36*
G01*
X43025000Y-111267500D02*
X43025000Y-111042500D01*
G75*
G02*
X43137500Y-110930000I112500J0D01*
G01*
X43962500Y-110930000D01*
G75*
G02*
X44075000Y-111042500I0J-112500D01*
G01*
X44075000Y-111267500D01*
G75*
G02*
X43962500Y-111380000I-112500J0D01*
G01*
X43137500Y-111380000D01*
G75*
G02*
X43025000Y-111267500I0J112500D01*
G01*
G37*
G36*
G01*
X43025000Y-111917500D02*
X43025000Y-111692500D01*
G75*
G02*
X43137500Y-111580000I112500J0D01*
G01*
X43962500Y-111580000D01*
G75*
G02*
X44075000Y-111692500I0J-112500D01*
G01*
X44075000Y-111917500D01*
G75*
G02*
X43962500Y-112030000I-112500J0D01*
G01*
X43137500Y-112030000D01*
G75*
G02*
X43025000Y-111917500I0J112500D01*
G01*
G37*
G36*
G01*
X45625000Y-109967500D02*
X45625000Y-109742500D01*
G75*
G02*
X45737500Y-109630000I112500J0D01*
G01*
X46562500Y-109630000D01*
G75*
G02*
X46675000Y-109742500I0J-112500D01*
G01*
X46675000Y-109967500D01*
G75*
G02*
X46562500Y-110080000I-112500J0D01*
G01*
X45737500Y-110080000D01*
G75*
G02*
X45625000Y-109967500I0J112500D01*
G01*
G37*
G36*
G01*
X45625000Y-110617500D02*
X45625000Y-110392500D01*
G75*
G02*
X45737500Y-110280000I112500J0D01*
G01*
X46562500Y-110280000D01*
G75*
G02*
X46675000Y-110392500I0J-112500D01*
G01*
X46675000Y-110617500D01*
G75*
G02*
X46562500Y-110730000I-112500J0D01*
G01*
X45737500Y-110730000D01*
G75*
G02*
X45625000Y-110617500I0J112500D01*
G01*
G37*
G36*
G01*
X45625000Y-111267500D02*
X45625000Y-111042500D01*
G75*
G02*
X45737500Y-110930000I112500J0D01*
G01*
X46562500Y-110930000D01*
G75*
G02*
X46675000Y-111042500I0J-112500D01*
G01*
X46675000Y-111267500D01*
G75*
G02*
X46562500Y-111380000I-112500J0D01*
G01*
X45737500Y-111380000D01*
G75*
G02*
X45625000Y-111267500I0J112500D01*
G01*
G37*
G36*
G01*
X45625000Y-111917500D02*
X45625000Y-111692500D01*
G75*
G02*
X45737500Y-111580000I112500J0D01*
G01*
X46562500Y-111580000D01*
G75*
G02*
X46675000Y-111692500I0J-112500D01*
G01*
X46675000Y-111917500D01*
G75*
G02*
X46562500Y-112030000I-112500J0D01*
G01*
X45737500Y-112030000D01*
G75*
G02*
X45625000Y-111917500I0J112500D01*
G01*
G37*
D23*
X70975000Y-98250000D03*
X68975000Y-98250000D03*
D13*
X38190000Y-95410000D03*
X39890000Y-95410000D03*
X45760000Y-95880000D03*
X44060000Y-95880000D03*
X34395000Y-130907500D03*
X36095000Y-130907500D03*
X37290000Y-109645000D03*
X38990000Y-109645000D03*
D29*
X40700000Y-72000000D03*
X29300000Y-72000000D03*
D30*
X32500000Y-79500000D03*
X35000000Y-79500000D03*
X37500000Y-79500000D03*
D23*
X40050000Y-98900000D03*
X38050000Y-98900000D03*
D13*
X40120000Y-80020000D03*
X41820000Y-80020000D03*
X37290000Y-111345000D03*
X38990000Y-111345000D03*
X38190000Y-93720000D03*
X39890000Y-93720000D03*
X41830000Y-81720000D03*
X40130000Y-81720000D03*
G36*
G01*
X57350000Y-126955000D02*
X57350000Y-126655000D01*
G75*
G02*
X57500000Y-126505000I150000J0D01*
G01*
X58700000Y-126505000D01*
G75*
G02*
X58850000Y-126655000I0J-150000D01*
G01*
X58850000Y-126955000D01*
G75*
G02*
X58700000Y-127105000I-150000J0D01*
G01*
X57500000Y-127105000D01*
G75*
G02*
X57350000Y-126955000I0J150000D01*
G01*
G37*
G36*
G01*
X57350000Y-128225000D02*
X57350000Y-127925000D01*
G75*
G02*
X57500000Y-127775000I150000J0D01*
G01*
X58700000Y-127775000D01*
G75*
G02*
X58850000Y-127925000I0J-150000D01*
G01*
X58850000Y-128225000D01*
G75*
G02*
X58700000Y-128375000I-150000J0D01*
G01*
X57500000Y-128375000D01*
G75*
G02*
X57350000Y-128225000I0J150000D01*
G01*
G37*
G36*
G01*
X57350000Y-129495000D02*
X57350000Y-129195000D01*
G75*
G02*
X57500000Y-129045000I150000J0D01*
G01*
X58700000Y-129045000D01*
G75*
G02*
X58850000Y-129195000I0J-150000D01*
G01*
X58850000Y-129495000D01*
G75*
G02*
X58700000Y-129645000I-150000J0D01*
G01*
X57500000Y-129645000D01*
G75*
G02*
X57350000Y-129495000I0J150000D01*
G01*
G37*
G36*
G01*
X57350000Y-130765000D02*
X57350000Y-130465000D01*
G75*
G02*
X57500000Y-130315000I150000J0D01*
G01*
X58700000Y-130315000D01*
G75*
G02*
X58850000Y-130465000I0J-150000D01*
G01*
X58850000Y-130765000D01*
G75*
G02*
X58700000Y-130915000I-150000J0D01*
G01*
X57500000Y-130915000D01*
G75*
G02*
X57350000Y-130765000I0J150000D01*
G01*
G37*
G36*
G01*
X57350000Y-132035000D02*
X57350000Y-131735000D01*
G75*
G02*
X57500000Y-131585000I150000J0D01*
G01*
X58700000Y-131585000D01*
G75*
G02*
X58850000Y-131735000I0J-150000D01*
G01*
X58850000Y-132035000D01*
G75*
G02*
X58700000Y-132185000I-150000J0D01*
G01*
X57500000Y-132185000D01*
G75*
G02*
X57350000Y-132035000I0J150000D01*
G01*
G37*
G36*
G01*
X57350000Y-133305000D02*
X57350000Y-133005000D01*
G75*
G02*
X57500000Y-132855000I150000J0D01*
G01*
X58700000Y-132855000D01*
G75*
G02*
X58850000Y-133005000I0J-150000D01*
G01*
X58850000Y-133305000D01*
G75*
G02*
X58700000Y-133455000I-150000J0D01*
G01*
X57500000Y-133455000D01*
G75*
G02*
X57350000Y-133305000I0J150000D01*
G01*
G37*
G36*
G01*
X57350000Y-134575000D02*
X57350000Y-134275000D01*
G75*
G02*
X57500000Y-134125000I150000J0D01*
G01*
X58700000Y-134125000D01*
G75*
G02*
X58850000Y-134275000I0J-150000D01*
G01*
X58850000Y-134575000D01*
G75*
G02*
X58700000Y-134725000I-150000J0D01*
G01*
X57500000Y-134725000D01*
G75*
G02*
X57350000Y-134575000I0J150000D01*
G01*
G37*
G36*
G01*
X57350000Y-135825000D02*
X57350000Y-135525000D01*
G75*
G02*
X57500000Y-135375000I150000J0D01*
G01*
X58700000Y-135375000D01*
G75*
G02*
X58850000Y-135525000I0J-150000D01*
G01*
X58850000Y-135825000D01*
G75*
G02*
X58700000Y-135975000I-150000J0D01*
G01*
X57500000Y-135975000D01*
G75*
G02*
X57350000Y-135825000I0J150000D01*
G01*
G37*
G36*
G01*
X62750000Y-135875000D02*
X62750000Y-135575000D01*
G75*
G02*
X62900000Y-135425000I150000J0D01*
G01*
X64100000Y-135425000D01*
G75*
G02*
X64250000Y-135575000I0J-150000D01*
G01*
X64250000Y-135875000D01*
G75*
G02*
X64100000Y-136025000I-150000J0D01*
G01*
X62900000Y-136025000D01*
G75*
G02*
X62750000Y-135875000I0J150000D01*
G01*
G37*
G36*
G01*
X62750000Y-134575000D02*
X62750000Y-134275000D01*
G75*
G02*
X62900000Y-134125000I150000J0D01*
G01*
X64100000Y-134125000D01*
G75*
G02*
X64250000Y-134275000I0J-150000D01*
G01*
X64250000Y-134575000D01*
G75*
G02*
X64100000Y-134725000I-150000J0D01*
G01*
X62900000Y-134725000D01*
G75*
G02*
X62750000Y-134575000I0J150000D01*
G01*
G37*
G36*
G01*
X62750000Y-133305000D02*
X62750000Y-133005000D01*
G75*
G02*
X62900000Y-132855000I150000J0D01*
G01*
X64100000Y-132855000D01*
G75*
G02*
X64250000Y-133005000I0J-150000D01*
G01*
X64250000Y-133305000D01*
G75*
G02*
X64100000Y-133455000I-150000J0D01*
G01*
X62900000Y-133455000D01*
G75*
G02*
X62750000Y-133305000I0J150000D01*
G01*
G37*
G36*
G01*
X62750000Y-132035000D02*
X62750000Y-131735000D01*
G75*
G02*
X62900000Y-131585000I150000J0D01*
G01*
X64100000Y-131585000D01*
G75*
G02*
X64250000Y-131735000I0J-150000D01*
G01*
X64250000Y-132035000D01*
G75*
G02*
X64100000Y-132185000I-150000J0D01*
G01*
X62900000Y-132185000D01*
G75*
G02*
X62750000Y-132035000I0J150000D01*
G01*
G37*
G36*
G01*
X62750000Y-130765000D02*
X62750000Y-130465000D01*
G75*
G02*
X62900000Y-130315000I150000J0D01*
G01*
X64100000Y-130315000D01*
G75*
G02*
X64250000Y-130465000I0J-150000D01*
G01*
X64250000Y-130765000D01*
G75*
G02*
X64100000Y-130915000I-150000J0D01*
G01*
X62900000Y-130915000D01*
G75*
G02*
X62750000Y-130765000I0J150000D01*
G01*
G37*
G36*
G01*
X62750000Y-129495000D02*
X62750000Y-129195000D01*
G75*
G02*
X62900000Y-129045000I150000J0D01*
G01*
X64100000Y-129045000D01*
G75*
G02*
X64250000Y-129195000I0J-150000D01*
G01*
X64250000Y-129495000D01*
G75*
G02*
X64100000Y-129645000I-150000J0D01*
G01*
X62900000Y-129645000D01*
G75*
G02*
X62750000Y-129495000I0J150000D01*
G01*
G37*
G36*
G01*
X62750000Y-128225000D02*
X62750000Y-127925000D01*
G75*
G02*
X62900000Y-127775000I150000J0D01*
G01*
X64100000Y-127775000D01*
G75*
G02*
X64250000Y-127925000I0J-150000D01*
G01*
X64250000Y-128225000D01*
G75*
G02*
X64100000Y-128375000I-150000J0D01*
G01*
X62900000Y-128375000D01*
G75*
G02*
X62750000Y-128225000I0J150000D01*
G01*
G37*
G36*
G01*
X62750000Y-126955000D02*
X62750000Y-126655000D01*
G75*
G02*
X62900000Y-126505000I150000J0D01*
G01*
X64100000Y-126505000D01*
G75*
G02*
X64250000Y-126655000I0J-150000D01*
G01*
X64250000Y-126955000D01*
G75*
G02*
X64100000Y-127105000I-150000J0D01*
G01*
X62900000Y-127105000D01*
G75*
G02*
X62750000Y-126955000I0J150000D01*
G01*
G37*
X82525000Y-92950000D03*
X80825000Y-92950000D03*
X45680000Y-113275000D03*
X43980000Y-113275000D03*
D16*
X67180000Y-126818000D03*
X67180000Y-125118000D03*
D13*
X49590000Y-96715000D03*
X51290000Y-96715000D03*
D17*
X84975000Y-145767500D03*
X83705000Y-145767500D03*
X82435000Y-145767500D03*
X81165000Y-145767500D03*
X81165000Y-151107500D03*
X82435000Y-151107500D03*
X83705000Y-151107500D03*
D18*
X83070000Y-149097500D03*
D17*
X84975000Y-151107500D03*
D13*
X36070000Y-135707500D03*
X34370000Y-135707500D03*
X45680000Y-114860000D03*
X43980000Y-114860000D03*
D31*
X82500000Y-69500000D03*
X87500000Y-69500000D03*
X82500000Y-74500000D03*
X87500000Y-74500000D03*
D13*
X34395000Y-134107500D03*
X36095000Y-134107500D03*
X82535000Y-94650000D03*
X80835000Y-94650000D03*
G36*
G01*
X73525000Y-91907500D02*
X73525000Y-91682500D01*
G75*
G02*
X73637500Y-91570000I112500J0D01*
G01*
X74462500Y-91570000D01*
G75*
G02*
X74575000Y-91682500I0J-112500D01*
G01*
X74575000Y-91907500D01*
G75*
G02*
X74462500Y-92020000I-112500J0D01*
G01*
X73637500Y-92020000D01*
G75*
G02*
X73525000Y-91907500I0J112500D01*
G01*
G37*
G36*
G01*
X73525000Y-92557500D02*
X73525000Y-92332500D01*
G75*
G02*
X73637500Y-92220000I112500J0D01*
G01*
X74462500Y-92220000D01*
G75*
G02*
X74575000Y-92332500I0J-112500D01*
G01*
X74575000Y-92557500D01*
G75*
G02*
X74462500Y-92670000I-112500J0D01*
G01*
X73637500Y-92670000D01*
G75*
G02*
X73525000Y-92557500I0J112500D01*
G01*
G37*
G36*
G01*
X73525000Y-93207500D02*
X73525000Y-92982500D01*
G75*
G02*
X73637500Y-92870000I112500J0D01*
G01*
X74462500Y-92870000D01*
G75*
G02*
X74575000Y-92982500I0J-112500D01*
G01*
X74575000Y-93207500D01*
G75*
G02*
X74462500Y-93320000I-112500J0D01*
G01*
X73637500Y-93320000D01*
G75*
G02*
X73525000Y-93207500I0J112500D01*
G01*
G37*
G36*
G01*
X73525000Y-93857500D02*
X73525000Y-93632500D01*
G75*
G02*
X73637500Y-93520000I112500J0D01*
G01*
X74462500Y-93520000D01*
G75*
G02*
X74575000Y-93632500I0J-112500D01*
G01*
X74575000Y-93857500D01*
G75*
G02*
X74462500Y-93970000I-112500J0D01*
G01*
X73637500Y-93970000D01*
G75*
G02*
X73525000Y-93857500I0J112500D01*
G01*
G37*
G36*
G01*
X76125000Y-91907500D02*
X76125000Y-91682500D01*
G75*
G02*
X76237500Y-91570000I112500J0D01*
G01*
X77062500Y-91570000D01*
G75*
G02*
X77175000Y-91682500I0J-112500D01*
G01*
X77175000Y-91907500D01*
G75*
G02*
X77062500Y-92020000I-112500J0D01*
G01*
X76237500Y-92020000D01*
G75*
G02*
X76125000Y-91907500I0J112500D01*
G01*
G37*
G36*
G01*
X76125000Y-92557500D02*
X76125000Y-92332500D01*
G75*
G02*
X76237500Y-92220000I112500J0D01*
G01*
X77062500Y-92220000D01*
G75*
G02*
X77175000Y-92332500I0J-112500D01*
G01*
X77175000Y-92557500D01*
G75*
G02*
X77062500Y-92670000I-112500J0D01*
G01*
X76237500Y-92670000D01*
G75*
G02*
X76125000Y-92557500I0J112500D01*
G01*
G37*
G36*
G01*
X76125000Y-93207500D02*
X76125000Y-92982500D01*
G75*
G02*
X76237500Y-92870000I112500J0D01*
G01*
X77062500Y-92870000D01*
G75*
G02*
X77175000Y-92982500I0J-112500D01*
G01*
X77175000Y-93207500D01*
G75*
G02*
X77062500Y-93320000I-112500J0D01*
G01*
X76237500Y-93320000D01*
G75*
G02*
X76125000Y-93207500I0J112500D01*
G01*
G37*
G36*
G01*
X76125000Y-93857500D02*
X76125000Y-93632500D01*
G75*
G02*
X76237500Y-93520000I112500J0D01*
G01*
X77062500Y-93520000D01*
G75*
G02*
X77175000Y-93632500I0J-112500D01*
G01*
X77175000Y-93857500D01*
G75*
G02*
X77062500Y-93970000I-112500J0D01*
G01*
X76237500Y-93970000D01*
G75*
G02*
X76125000Y-93857500I0J112500D01*
G01*
G37*
X51300000Y-95025000D03*
X49600000Y-95025000D03*
D23*
X49725000Y-115075000D03*
X51725000Y-115075000D03*
D13*
X80845000Y-96360000D03*
X82545000Y-96360000D03*
D16*
X96020000Y-131710000D03*
X96020000Y-133410000D03*
D13*
X76190000Y-96980000D03*
X74490000Y-96980000D03*
D12*
X90000000Y-103520000D03*
X90000000Y-106620000D03*
X90000000Y-114920000D03*
D25*
X43100000Y-158250000D03*
X43100000Y-150800000D03*
X58350000Y-150800000D03*
D32*
X93760000Y-155960000D03*
D33*
X93760000Y-153420000D03*
X91220000Y-155960000D03*
X91220000Y-153420000D03*
X88680000Y-155960000D03*
X88680000Y-153420000D03*
X86140000Y-155960000D03*
X86140000Y-153420000D03*
X83600000Y-155960000D03*
X83600000Y-153420000D03*
D25*
X66000000Y-150800000D03*
D30*
X76130000Y-155875000D03*
X76130000Y-153335000D03*
X73590000Y-155875000D03*
X73590000Y-153335000D03*
X71050000Y-155875000D03*
X71050000Y-153335000D03*
X68510000Y-155875000D03*
X68510000Y-153335000D03*
X65970000Y-155875000D03*
X65970000Y-153335000D03*
X63430000Y-155875000D03*
X63430000Y-153335000D03*
X60890000Y-155875000D03*
X60890000Y-153335000D03*
X58350000Y-155875000D03*
X58350000Y-153335000D03*
X55810000Y-155875000D03*
X55810000Y-153335000D03*
X53270000Y-155875000D03*
X53270000Y-153335000D03*
X50730000Y-155875000D03*
X50730000Y-153335000D03*
X48190000Y-155875000D03*
X48190000Y-153335000D03*
X45650000Y-155875000D03*
X45650000Y-153335000D03*
X43110000Y-155875000D03*
X43110000Y-153335000D03*
X40570000Y-155875000D03*
X40570000Y-153335000D03*
X38030000Y-155875000D03*
X38030000Y-153335000D03*
X35490000Y-155875000D03*
X35490000Y-153335000D03*
X32950000Y-155875000D03*
X32950000Y-153335000D03*
X30410000Y-155875000D03*
X30410000Y-153335000D03*
X27870000Y-155875000D03*
X27870000Y-153335000D03*
D25*
X68550000Y-150800000D03*
X32950000Y-150800000D03*
X27900000Y-150800000D03*
X50750000Y-150800000D03*
M02*
