%TF.GenerationSoftware,KiCad,Pcbnew,6.0.10-86aedd382b~118~ubuntu22.04.1*%
%TF.CreationDate,2023-01-11T08:48:29-08:00*%
%TF.ProjectId,shield,73686965-6c64-42e6-9b69-6361645f7063,rev?*%
%TF.SameCoordinates,Original*%
%TF.FileFunction,Drillmap*%
%TF.FilePolarity,Positive*%
%FSLAX45Y45*%
G04 Gerber Fmt 4.5, Leading zero omitted, Abs format (unit mm)*
G04 Created by KiCad (PCBNEW 6.0.10-86aedd382b~118~ubuntu22.04.1) date 2023-01-11 08:48:29*
%MOMM*%
%LPD*%
G01*
G04 APERTURE LIST*
%ADD10C,0.200000*%
%ADD11C,0.270000*%
%ADD12C,0.275000*%
G04 APERTURE END LIST*
D10*
X2000000Y-4000000D02*
X10000000Y-4000000D01*
X10000000Y-4000000D02*
X10000000Y-16000000D01*
X10000000Y-16000000D02*
X2000000Y-16000000D01*
X2000000Y-16000000D02*
X2000000Y-4000000D01*
D11*
X4805000Y-7375000D02*
X5075000Y-7645000D01*
X5075000Y-7375000D02*
X4805000Y-7645000D01*
X4865000Y-4665000D02*
X5135000Y-4935000D01*
X5135000Y-4665000D02*
X4865000Y-4935000D01*
X6865000Y-4665000D02*
X7135000Y-4935000D01*
X7135000Y-4665000D02*
X6865000Y-4935000D01*
X6925000Y-7375000D02*
X7195000Y-7645000D01*
X7195000Y-7375000D02*
X6925000Y-7645000D01*
D12*
X2587500Y-4450000D02*
G75*
G03*
X2587500Y-4450000I-137500J0D01*
G01*
X2587500Y-13050000D02*
G75*
G03*
X2587500Y-13050000I-137500J0D01*
G01*
X8387500Y-4450000D02*
G75*
G03*
X8387500Y-4450000I-137500J0D01*
G01*
X8387500Y-13050000D02*
G75*
G03*
X8387500Y-13050000I-137500J0D01*
G01*
D10*
X2247619Y-16320476D02*
X2247619Y-16120476D01*
X2295238Y-16120476D01*
X2323810Y-16130000D01*
X2342857Y-16149048D01*
X2352381Y-16168095D01*
X2361905Y-16206190D01*
X2361905Y-16234762D01*
X2352381Y-16272857D01*
X2342857Y-16291905D01*
X2323810Y-16310952D01*
X2295238Y-16320476D01*
X2247619Y-16320476D01*
X2447619Y-16320476D02*
X2447619Y-16187143D01*
X2447619Y-16225238D02*
X2457143Y-16206190D01*
X2466667Y-16196667D01*
X2485714Y-16187143D01*
X2504762Y-16187143D01*
X2571429Y-16320476D02*
X2571429Y-16187143D01*
X2571429Y-16120476D02*
X2561905Y-16130000D01*
X2571429Y-16139524D01*
X2580952Y-16130000D01*
X2571429Y-16120476D01*
X2571429Y-16139524D01*
X2695238Y-16320476D02*
X2676190Y-16310952D01*
X2666667Y-16291905D01*
X2666667Y-16120476D01*
X2800000Y-16320476D02*
X2780952Y-16310952D01*
X2771429Y-16291905D01*
X2771429Y-16120476D01*
X3028571Y-16320476D02*
X3028571Y-16120476D01*
X3095238Y-16263333D01*
X3161905Y-16120476D01*
X3161905Y-16320476D01*
X3342857Y-16320476D02*
X3342857Y-16215714D01*
X3333333Y-16196667D01*
X3314286Y-16187143D01*
X3276190Y-16187143D01*
X3257143Y-16196667D01*
X3342857Y-16310952D02*
X3323809Y-16320476D01*
X3276190Y-16320476D01*
X3257143Y-16310952D01*
X3247619Y-16291905D01*
X3247619Y-16272857D01*
X3257143Y-16253809D01*
X3276190Y-16244286D01*
X3323809Y-16244286D01*
X3342857Y-16234762D01*
X3438095Y-16187143D02*
X3438095Y-16387143D01*
X3438095Y-16196667D02*
X3457143Y-16187143D01*
X3495238Y-16187143D01*
X3514286Y-16196667D01*
X3523809Y-16206190D01*
X3533333Y-16225238D01*
X3533333Y-16282381D01*
X3523809Y-16301428D01*
X3514286Y-16310952D01*
X3495238Y-16320476D01*
X3457143Y-16320476D01*
X3438095Y-16310952D01*
X3619048Y-16301428D02*
X3628571Y-16310952D01*
X3619048Y-16320476D01*
X3609524Y-16310952D01*
X3619048Y-16301428D01*
X3619048Y-16320476D01*
X3619048Y-16196667D02*
X3628571Y-16206190D01*
X3619048Y-16215714D01*
X3609524Y-16206190D01*
X3619048Y-16196667D01*
X3619048Y-16215714D01*
X1790000Y-16550000D02*
X1990000Y-16750000D01*
X1990000Y-16550000D02*
X1790000Y-16750000D01*
X2238095Y-16559524D02*
X2247619Y-16550000D01*
X2266667Y-16540476D01*
X2314286Y-16540476D01*
X2333333Y-16550000D01*
X2342857Y-16559524D01*
X2352381Y-16578571D01*
X2352381Y-16597619D01*
X2342857Y-16626190D01*
X2228571Y-16740476D01*
X2352381Y-16740476D01*
X2438095Y-16721428D02*
X2447619Y-16730952D01*
X2438095Y-16740476D01*
X2428571Y-16730952D01*
X2438095Y-16721428D01*
X2438095Y-16740476D01*
X2514286Y-16540476D02*
X2647619Y-16540476D01*
X2561905Y-16740476D01*
X2761905Y-16540476D02*
X2780952Y-16540476D01*
X2800000Y-16550000D01*
X2809524Y-16559524D01*
X2819048Y-16578571D01*
X2828571Y-16616667D01*
X2828571Y-16664286D01*
X2819048Y-16702381D01*
X2809524Y-16721428D01*
X2800000Y-16730952D01*
X2780952Y-16740476D01*
X2761905Y-16740476D01*
X2742857Y-16730952D01*
X2733333Y-16721428D01*
X2723810Y-16702381D01*
X2714286Y-16664286D01*
X2714286Y-16616667D01*
X2723810Y-16578571D01*
X2733333Y-16559524D01*
X2742857Y-16550000D01*
X2761905Y-16540476D01*
X2952381Y-16540476D02*
X2971428Y-16540476D01*
X2990476Y-16550000D01*
X3000000Y-16559524D01*
X3009524Y-16578571D01*
X3019048Y-16616667D01*
X3019048Y-16664286D01*
X3009524Y-16702381D01*
X3000000Y-16721428D01*
X2990476Y-16730952D01*
X2971428Y-16740476D01*
X2952381Y-16740476D01*
X2933333Y-16730952D01*
X2923809Y-16721428D01*
X2914286Y-16702381D01*
X2904762Y-16664286D01*
X2904762Y-16616667D01*
X2914286Y-16578571D01*
X2923809Y-16559524D01*
X2933333Y-16550000D01*
X2952381Y-16540476D01*
X3104762Y-16740476D02*
X3104762Y-16607143D01*
X3104762Y-16626190D02*
X3114286Y-16616667D01*
X3133333Y-16607143D01*
X3161905Y-16607143D01*
X3180952Y-16616667D01*
X3190476Y-16635714D01*
X3190476Y-16740476D01*
X3190476Y-16635714D02*
X3200000Y-16616667D01*
X3219048Y-16607143D01*
X3247619Y-16607143D01*
X3266667Y-16616667D01*
X3276190Y-16635714D01*
X3276190Y-16740476D01*
X3371428Y-16740476D02*
X3371428Y-16607143D01*
X3371428Y-16626190D02*
X3380952Y-16616667D01*
X3400000Y-16607143D01*
X3428571Y-16607143D01*
X3447619Y-16616667D01*
X3457143Y-16635714D01*
X3457143Y-16740476D01*
X3457143Y-16635714D02*
X3466667Y-16616667D01*
X3485714Y-16607143D01*
X3514286Y-16607143D01*
X3533333Y-16616667D01*
X3542857Y-16635714D01*
X3542857Y-16740476D01*
X3933333Y-16530952D02*
X3761905Y-16788095D01*
X4190476Y-16540476D02*
X4209524Y-16540476D01*
X4228571Y-16550000D01*
X4238095Y-16559524D01*
X4247619Y-16578571D01*
X4257143Y-16616667D01*
X4257143Y-16664286D01*
X4247619Y-16702381D01*
X4238095Y-16721428D01*
X4228571Y-16730952D01*
X4209524Y-16740476D01*
X4190476Y-16740476D01*
X4171428Y-16730952D01*
X4161905Y-16721428D01*
X4152381Y-16702381D01*
X4142857Y-16664286D01*
X4142857Y-16616667D01*
X4152381Y-16578571D01*
X4161905Y-16559524D01*
X4171428Y-16550000D01*
X4190476Y-16540476D01*
X4342857Y-16721428D02*
X4352381Y-16730952D01*
X4342857Y-16740476D01*
X4333333Y-16730952D01*
X4342857Y-16721428D01*
X4342857Y-16740476D01*
X4542857Y-16740476D02*
X4428571Y-16740476D01*
X4485714Y-16740476D02*
X4485714Y-16540476D01*
X4466667Y-16569048D01*
X4447619Y-16588095D01*
X4428571Y-16597619D01*
X4666667Y-16540476D02*
X4685714Y-16540476D01*
X4704762Y-16550000D01*
X4714286Y-16559524D01*
X4723810Y-16578571D01*
X4733333Y-16616667D01*
X4733333Y-16664286D01*
X4723810Y-16702381D01*
X4714286Y-16721428D01*
X4704762Y-16730952D01*
X4685714Y-16740476D01*
X4666667Y-16740476D01*
X4647619Y-16730952D01*
X4638095Y-16721428D01*
X4628571Y-16702381D01*
X4619048Y-16664286D01*
X4619048Y-16616667D01*
X4628571Y-16578571D01*
X4638095Y-16559524D01*
X4647619Y-16550000D01*
X4666667Y-16540476D01*
X4904762Y-16540476D02*
X4866667Y-16540476D01*
X4847619Y-16550000D01*
X4838095Y-16559524D01*
X4819048Y-16588095D01*
X4809524Y-16626190D01*
X4809524Y-16702381D01*
X4819048Y-16721428D01*
X4828571Y-16730952D01*
X4847619Y-16740476D01*
X4885714Y-16740476D01*
X4904762Y-16730952D01*
X4914286Y-16721428D01*
X4923810Y-16702381D01*
X4923810Y-16654762D01*
X4914286Y-16635714D01*
X4904762Y-16626190D01*
X4885714Y-16616667D01*
X4847619Y-16616667D01*
X4828571Y-16626190D01*
X4819048Y-16635714D01*
X4809524Y-16654762D01*
X4990476Y-16540476D02*
X5114286Y-16540476D01*
X5047619Y-16616667D01*
X5076190Y-16616667D01*
X5095238Y-16626190D01*
X5104762Y-16635714D01*
X5114286Y-16654762D01*
X5114286Y-16702381D01*
X5104762Y-16721428D01*
X5095238Y-16730952D01*
X5076190Y-16740476D01*
X5019048Y-16740476D01*
X5000000Y-16730952D01*
X4990476Y-16721428D01*
X5190476Y-16540476D02*
X5190476Y-16578571D01*
X5266667Y-16540476D02*
X5266667Y-16578571D01*
X5561905Y-16816667D02*
X5552381Y-16807143D01*
X5533333Y-16778571D01*
X5523810Y-16759524D01*
X5514286Y-16730952D01*
X5504762Y-16683333D01*
X5504762Y-16645238D01*
X5514286Y-16597619D01*
X5523810Y-16569048D01*
X5533333Y-16550000D01*
X5552381Y-16521428D01*
X5561905Y-16511905D01*
X5723809Y-16607143D02*
X5723809Y-16740476D01*
X5676190Y-16530952D02*
X5628571Y-16673809D01*
X5752381Y-16673809D01*
X5980952Y-16740476D02*
X5980952Y-16540476D01*
X6066667Y-16740476D02*
X6066667Y-16635714D01*
X6057143Y-16616667D01*
X6038095Y-16607143D01*
X6009524Y-16607143D01*
X5990476Y-16616667D01*
X5980952Y-16626190D01*
X6190476Y-16740476D02*
X6171428Y-16730952D01*
X6161905Y-16721428D01*
X6152381Y-16702381D01*
X6152381Y-16645238D01*
X6161905Y-16626190D01*
X6171428Y-16616667D01*
X6190476Y-16607143D01*
X6219048Y-16607143D01*
X6238095Y-16616667D01*
X6247619Y-16626190D01*
X6257143Y-16645238D01*
X6257143Y-16702381D01*
X6247619Y-16721428D01*
X6238095Y-16730952D01*
X6219048Y-16740476D01*
X6190476Y-16740476D01*
X6371428Y-16740476D02*
X6352381Y-16730952D01*
X6342857Y-16711905D01*
X6342857Y-16540476D01*
X6523809Y-16730952D02*
X6504762Y-16740476D01*
X6466667Y-16740476D01*
X6447619Y-16730952D01*
X6438095Y-16711905D01*
X6438095Y-16635714D01*
X6447619Y-16616667D01*
X6466667Y-16607143D01*
X6504762Y-16607143D01*
X6523809Y-16616667D01*
X6533333Y-16635714D01*
X6533333Y-16654762D01*
X6438095Y-16673809D01*
X6609524Y-16730952D02*
X6628571Y-16740476D01*
X6666667Y-16740476D01*
X6685714Y-16730952D01*
X6695238Y-16711905D01*
X6695238Y-16702381D01*
X6685714Y-16683333D01*
X6666667Y-16673809D01*
X6638095Y-16673809D01*
X6619048Y-16664286D01*
X6609524Y-16645238D01*
X6609524Y-16635714D01*
X6619048Y-16616667D01*
X6638095Y-16607143D01*
X6666667Y-16607143D01*
X6685714Y-16616667D01*
X6761905Y-16816667D02*
X6771428Y-16807143D01*
X6790476Y-16778571D01*
X6800000Y-16759524D01*
X6809524Y-16730952D01*
X6819048Y-16683333D01*
X6819048Y-16645238D01*
X6809524Y-16597619D01*
X6800000Y-16569048D01*
X6790476Y-16550000D01*
X6771428Y-16521428D01*
X6761905Y-16511905D01*
X7123809Y-16816667D02*
X7114286Y-16807143D01*
X7095238Y-16778571D01*
X7085714Y-16759524D01*
X7076190Y-16730952D01*
X7066667Y-16683333D01*
X7066667Y-16645238D01*
X7076190Y-16597619D01*
X7085714Y-16569048D01*
X7095238Y-16550000D01*
X7114286Y-16521428D01*
X7123809Y-16511905D01*
X7200000Y-16607143D02*
X7200000Y-16740476D01*
X7200000Y-16626190D02*
X7209524Y-16616667D01*
X7228571Y-16607143D01*
X7257143Y-16607143D01*
X7276190Y-16616667D01*
X7285714Y-16635714D01*
X7285714Y-16740476D01*
X7409524Y-16740476D02*
X7390476Y-16730952D01*
X7380952Y-16721428D01*
X7371428Y-16702381D01*
X7371428Y-16645238D01*
X7380952Y-16626190D01*
X7390476Y-16616667D01*
X7409524Y-16607143D01*
X7438095Y-16607143D01*
X7457143Y-16616667D01*
X7466667Y-16626190D01*
X7476190Y-16645238D01*
X7476190Y-16702381D01*
X7466667Y-16721428D01*
X7457143Y-16730952D01*
X7438095Y-16740476D01*
X7409524Y-16740476D01*
X7533333Y-16607143D02*
X7609524Y-16607143D01*
X7561905Y-16540476D02*
X7561905Y-16711905D01*
X7571428Y-16730952D01*
X7590476Y-16740476D01*
X7609524Y-16740476D01*
X7828571Y-16607143D02*
X7828571Y-16807143D01*
X7828571Y-16616667D02*
X7847619Y-16607143D01*
X7885714Y-16607143D01*
X7904762Y-16616667D01*
X7914286Y-16626190D01*
X7923809Y-16645238D01*
X7923809Y-16702381D01*
X7914286Y-16721428D01*
X7904762Y-16730952D01*
X7885714Y-16740476D01*
X7847619Y-16740476D01*
X7828571Y-16730952D01*
X8038095Y-16740476D02*
X8019048Y-16730952D01*
X8009524Y-16711905D01*
X8009524Y-16540476D01*
X8200000Y-16740476D02*
X8200000Y-16635714D01*
X8190476Y-16616667D01*
X8171428Y-16607143D01*
X8133333Y-16607143D01*
X8114286Y-16616667D01*
X8200000Y-16730952D02*
X8180952Y-16740476D01*
X8133333Y-16740476D01*
X8114286Y-16730952D01*
X8104762Y-16711905D01*
X8104762Y-16692857D01*
X8114286Y-16673809D01*
X8133333Y-16664286D01*
X8180952Y-16664286D01*
X8200000Y-16654762D01*
X8266667Y-16607143D02*
X8342857Y-16607143D01*
X8295238Y-16540476D02*
X8295238Y-16711905D01*
X8304762Y-16730952D01*
X8323809Y-16740476D01*
X8342857Y-16740476D01*
X8485714Y-16730952D02*
X8466667Y-16740476D01*
X8428571Y-16740476D01*
X8409524Y-16730952D01*
X8400000Y-16711905D01*
X8400000Y-16635714D01*
X8409524Y-16616667D01*
X8428571Y-16607143D01*
X8466667Y-16607143D01*
X8485714Y-16616667D01*
X8495238Y-16635714D01*
X8495238Y-16654762D01*
X8400000Y-16673809D01*
X8666667Y-16740476D02*
X8666667Y-16540476D01*
X8666667Y-16730952D02*
X8647619Y-16740476D01*
X8609524Y-16740476D01*
X8590476Y-16730952D01*
X8580952Y-16721428D01*
X8571429Y-16702381D01*
X8571429Y-16645238D01*
X8580952Y-16626190D01*
X8590476Y-16616667D01*
X8609524Y-16607143D01*
X8647619Y-16607143D01*
X8666667Y-16616667D01*
X8742857Y-16816667D02*
X8752381Y-16807143D01*
X8771429Y-16778571D01*
X8780952Y-16759524D01*
X8790476Y-16730952D01*
X8800000Y-16683333D01*
X8800000Y-16645238D01*
X8790476Y-16597619D01*
X8780952Y-16569048D01*
X8771429Y-16550000D01*
X8752381Y-16521428D01*
X8742857Y-16511905D01*
X1990000Y-16970000D02*
G75*
G03*
X1990000Y-16970000I-100000J0D01*
G01*
X2238095Y-16879524D02*
X2247619Y-16870000D01*
X2266667Y-16860476D01*
X2314286Y-16860476D01*
X2333333Y-16870000D01*
X2342857Y-16879524D01*
X2352381Y-16898571D01*
X2352381Y-16917619D01*
X2342857Y-16946190D01*
X2228571Y-17060476D01*
X2352381Y-17060476D01*
X2438095Y-17041429D02*
X2447619Y-17050952D01*
X2438095Y-17060476D01*
X2428571Y-17050952D01*
X2438095Y-17041429D01*
X2438095Y-17060476D01*
X2514286Y-16860476D02*
X2647619Y-16860476D01*
X2561905Y-17060476D01*
X2819048Y-16860476D02*
X2723810Y-16860476D01*
X2714286Y-16955714D01*
X2723810Y-16946190D01*
X2742857Y-16936667D01*
X2790476Y-16936667D01*
X2809524Y-16946190D01*
X2819048Y-16955714D01*
X2828571Y-16974762D01*
X2828571Y-17022381D01*
X2819048Y-17041429D01*
X2809524Y-17050952D01*
X2790476Y-17060476D01*
X2742857Y-17060476D01*
X2723810Y-17050952D01*
X2714286Y-17041429D01*
X2952381Y-16860476D02*
X2971428Y-16860476D01*
X2990476Y-16870000D01*
X3000000Y-16879524D01*
X3009524Y-16898571D01*
X3019048Y-16936667D01*
X3019048Y-16984286D01*
X3009524Y-17022381D01*
X3000000Y-17041429D01*
X2990476Y-17050952D01*
X2971428Y-17060476D01*
X2952381Y-17060476D01*
X2933333Y-17050952D01*
X2923809Y-17041429D01*
X2914286Y-17022381D01*
X2904762Y-16984286D01*
X2904762Y-16936667D01*
X2914286Y-16898571D01*
X2923809Y-16879524D01*
X2933333Y-16870000D01*
X2952381Y-16860476D01*
X3104762Y-17060476D02*
X3104762Y-16927143D01*
X3104762Y-16946190D02*
X3114286Y-16936667D01*
X3133333Y-16927143D01*
X3161905Y-16927143D01*
X3180952Y-16936667D01*
X3190476Y-16955714D01*
X3190476Y-17060476D01*
X3190476Y-16955714D02*
X3200000Y-16936667D01*
X3219048Y-16927143D01*
X3247619Y-16927143D01*
X3266667Y-16936667D01*
X3276190Y-16955714D01*
X3276190Y-17060476D01*
X3371428Y-17060476D02*
X3371428Y-16927143D01*
X3371428Y-16946190D02*
X3380952Y-16936667D01*
X3400000Y-16927143D01*
X3428571Y-16927143D01*
X3447619Y-16936667D01*
X3457143Y-16955714D01*
X3457143Y-17060476D01*
X3457143Y-16955714D02*
X3466667Y-16936667D01*
X3485714Y-16927143D01*
X3514286Y-16927143D01*
X3533333Y-16936667D01*
X3542857Y-16955714D01*
X3542857Y-17060476D01*
X3933333Y-16850952D02*
X3761905Y-17108095D01*
X4190476Y-16860476D02*
X4209524Y-16860476D01*
X4228571Y-16870000D01*
X4238095Y-16879524D01*
X4247619Y-16898571D01*
X4257143Y-16936667D01*
X4257143Y-16984286D01*
X4247619Y-17022381D01*
X4238095Y-17041429D01*
X4228571Y-17050952D01*
X4209524Y-17060476D01*
X4190476Y-17060476D01*
X4171428Y-17050952D01*
X4161905Y-17041429D01*
X4152381Y-17022381D01*
X4142857Y-16984286D01*
X4142857Y-16936667D01*
X4152381Y-16898571D01*
X4161905Y-16879524D01*
X4171428Y-16870000D01*
X4190476Y-16860476D01*
X4342857Y-17041429D02*
X4352381Y-17050952D01*
X4342857Y-17060476D01*
X4333333Y-17050952D01*
X4342857Y-17041429D01*
X4342857Y-17060476D01*
X4542857Y-17060476D02*
X4428571Y-17060476D01*
X4485714Y-17060476D02*
X4485714Y-16860476D01*
X4466667Y-16889048D01*
X4447619Y-16908095D01*
X4428571Y-16917619D01*
X4666667Y-16860476D02*
X4685714Y-16860476D01*
X4704762Y-16870000D01*
X4714286Y-16879524D01*
X4723810Y-16898571D01*
X4733333Y-16936667D01*
X4733333Y-16984286D01*
X4723810Y-17022381D01*
X4714286Y-17041429D01*
X4704762Y-17050952D01*
X4685714Y-17060476D01*
X4666667Y-17060476D01*
X4647619Y-17050952D01*
X4638095Y-17041429D01*
X4628571Y-17022381D01*
X4619048Y-16984286D01*
X4619048Y-16936667D01*
X4628571Y-16898571D01*
X4638095Y-16879524D01*
X4647619Y-16870000D01*
X4666667Y-16860476D01*
X4847619Y-16946190D02*
X4828571Y-16936667D01*
X4819048Y-16927143D01*
X4809524Y-16908095D01*
X4809524Y-16898571D01*
X4819048Y-16879524D01*
X4828571Y-16870000D01*
X4847619Y-16860476D01*
X4885714Y-16860476D01*
X4904762Y-16870000D01*
X4914286Y-16879524D01*
X4923810Y-16898571D01*
X4923810Y-16908095D01*
X4914286Y-16927143D01*
X4904762Y-16936667D01*
X4885714Y-16946190D01*
X4847619Y-16946190D01*
X4828571Y-16955714D01*
X4819048Y-16965238D01*
X4809524Y-16984286D01*
X4809524Y-17022381D01*
X4819048Y-17041429D01*
X4828571Y-17050952D01*
X4847619Y-17060476D01*
X4885714Y-17060476D01*
X4904762Y-17050952D01*
X4914286Y-17041429D01*
X4923810Y-17022381D01*
X4923810Y-16984286D01*
X4914286Y-16965238D01*
X4904762Y-16955714D01*
X4885714Y-16946190D01*
X4990476Y-16860476D02*
X5114286Y-16860476D01*
X5047619Y-16936667D01*
X5076190Y-16936667D01*
X5095238Y-16946190D01*
X5104762Y-16955714D01*
X5114286Y-16974762D01*
X5114286Y-17022381D01*
X5104762Y-17041429D01*
X5095238Y-17050952D01*
X5076190Y-17060476D01*
X5019048Y-17060476D01*
X5000000Y-17050952D01*
X4990476Y-17041429D01*
X5190476Y-16860476D02*
X5190476Y-16898571D01*
X5266667Y-16860476D02*
X5266667Y-16898571D01*
X5561905Y-17136667D02*
X5552381Y-17127143D01*
X5533333Y-17098571D01*
X5523810Y-17079524D01*
X5514286Y-17050952D01*
X5504762Y-17003333D01*
X5504762Y-16965238D01*
X5514286Y-16917619D01*
X5523810Y-16889048D01*
X5533333Y-16870000D01*
X5552381Y-16841429D01*
X5561905Y-16831905D01*
X5723809Y-16927143D02*
X5723809Y-17060476D01*
X5676190Y-16850952D02*
X5628571Y-16993810D01*
X5752381Y-16993810D01*
X5980952Y-17060476D02*
X5980952Y-16860476D01*
X6066667Y-17060476D02*
X6066667Y-16955714D01*
X6057143Y-16936667D01*
X6038095Y-16927143D01*
X6009524Y-16927143D01*
X5990476Y-16936667D01*
X5980952Y-16946190D01*
X6190476Y-17060476D02*
X6171428Y-17050952D01*
X6161905Y-17041429D01*
X6152381Y-17022381D01*
X6152381Y-16965238D01*
X6161905Y-16946190D01*
X6171428Y-16936667D01*
X6190476Y-16927143D01*
X6219048Y-16927143D01*
X6238095Y-16936667D01*
X6247619Y-16946190D01*
X6257143Y-16965238D01*
X6257143Y-17022381D01*
X6247619Y-17041429D01*
X6238095Y-17050952D01*
X6219048Y-17060476D01*
X6190476Y-17060476D01*
X6371428Y-17060476D02*
X6352381Y-17050952D01*
X6342857Y-17031905D01*
X6342857Y-16860476D01*
X6523809Y-17050952D02*
X6504762Y-17060476D01*
X6466667Y-17060476D01*
X6447619Y-17050952D01*
X6438095Y-17031905D01*
X6438095Y-16955714D01*
X6447619Y-16936667D01*
X6466667Y-16927143D01*
X6504762Y-16927143D01*
X6523809Y-16936667D01*
X6533333Y-16955714D01*
X6533333Y-16974762D01*
X6438095Y-16993810D01*
X6609524Y-17050952D02*
X6628571Y-17060476D01*
X6666667Y-17060476D01*
X6685714Y-17050952D01*
X6695238Y-17031905D01*
X6695238Y-17022381D01*
X6685714Y-17003333D01*
X6666667Y-16993810D01*
X6638095Y-16993810D01*
X6619048Y-16984286D01*
X6609524Y-16965238D01*
X6609524Y-16955714D01*
X6619048Y-16936667D01*
X6638095Y-16927143D01*
X6666667Y-16927143D01*
X6685714Y-16936667D01*
X6761905Y-17136667D02*
X6771428Y-17127143D01*
X6790476Y-17098571D01*
X6800000Y-17079524D01*
X6809524Y-17050952D01*
X6819048Y-17003333D01*
X6819048Y-16965238D01*
X6809524Y-16917619D01*
X6800000Y-16889048D01*
X6790476Y-16870000D01*
X6771428Y-16841429D01*
X6761905Y-16831905D01*
X7123809Y-17136667D02*
X7114286Y-17127143D01*
X7095238Y-17098571D01*
X7085714Y-17079524D01*
X7076190Y-17050952D01*
X7066667Y-17003333D01*
X7066667Y-16965238D01*
X7076190Y-16917619D01*
X7085714Y-16889048D01*
X7095238Y-16870000D01*
X7114286Y-16841429D01*
X7123809Y-16831905D01*
X7200000Y-16927143D02*
X7200000Y-17060476D01*
X7200000Y-16946190D02*
X7209524Y-16936667D01*
X7228571Y-16927143D01*
X7257143Y-16927143D01*
X7276190Y-16936667D01*
X7285714Y-16955714D01*
X7285714Y-17060476D01*
X7409524Y-17060476D02*
X7390476Y-17050952D01*
X7380952Y-17041429D01*
X7371428Y-17022381D01*
X7371428Y-16965238D01*
X7380952Y-16946190D01*
X7390476Y-16936667D01*
X7409524Y-16927143D01*
X7438095Y-16927143D01*
X7457143Y-16936667D01*
X7466667Y-16946190D01*
X7476190Y-16965238D01*
X7476190Y-17022381D01*
X7466667Y-17041429D01*
X7457143Y-17050952D01*
X7438095Y-17060476D01*
X7409524Y-17060476D01*
X7533333Y-16927143D02*
X7609524Y-16927143D01*
X7561905Y-16860476D02*
X7561905Y-17031905D01*
X7571428Y-17050952D01*
X7590476Y-17060476D01*
X7609524Y-17060476D01*
X7828571Y-16927143D02*
X7828571Y-17127143D01*
X7828571Y-16936667D02*
X7847619Y-16927143D01*
X7885714Y-16927143D01*
X7904762Y-16936667D01*
X7914286Y-16946190D01*
X7923809Y-16965238D01*
X7923809Y-17022381D01*
X7914286Y-17041429D01*
X7904762Y-17050952D01*
X7885714Y-17060476D01*
X7847619Y-17060476D01*
X7828571Y-17050952D01*
X8038095Y-17060476D02*
X8019048Y-17050952D01*
X8009524Y-17031905D01*
X8009524Y-16860476D01*
X8200000Y-17060476D02*
X8200000Y-16955714D01*
X8190476Y-16936667D01*
X8171428Y-16927143D01*
X8133333Y-16927143D01*
X8114286Y-16936667D01*
X8200000Y-17050952D02*
X8180952Y-17060476D01*
X8133333Y-17060476D01*
X8114286Y-17050952D01*
X8104762Y-17031905D01*
X8104762Y-17012857D01*
X8114286Y-16993810D01*
X8133333Y-16984286D01*
X8180952Y-16984286D01*
X8200000Y-16974762D01*
X8266667Y-16927143D02*
X8342857Y-16927143D01*
X8295238Y-16860476D02*
X8295238Y-17031905D01*
X8304762Y-17050952D01*
X8323809Y-17060476D01*
X8342857Y-17060476D01*
X8485714Y-17050952D02*
X8466667Y-17060476D01*
X8428571Y-17060476D01*
X8409524Y-17050952D01*
X8400000Y-17031905D01*
X8400000Y-16955714D01*
X8409524Y-16936667D01*
X8428571Y-16927143D01*
X8466667Y-16927143D01*
X8485714Y-16936667D01*
X8495238Y-16955714D01*
X8495238Y-16974762D01*
X8400000Y-16993810D01*
X8666667Y-17060476D02*
X8666667Y-16860476D01*
X8666667Y-17050952D02*
X8647619Y-17060476D01*
X8609524Y-17060476D01*
X8590476Y-17050952D01*
X8580952Y-17041429D01*
X8571429Y-17022381D01*
X8571429Y-16965238D01*
X8580952Y-16946190D01*
X8590476Y-16936667D01*
X8609524Y-16927143D01*
X8647619Y-16927143D01*
X8666667Y-16936667D01*
X8742857Y-17136667D02*
X8752381Y-17127143D01*
X8771429Y-17098571D01*
X8780952Y-17079524D01*
X8790476Y-17050952D01*
X8800000Y-17003333D01*
X8800000Y-16965238D01*
X8790476Y-16917619D01*
X8780952Y-16889048D01*
X8771429Y-16870000D01*
X8752381Y-16841429D01*
X8742857Y-16831905D01*
M02*
