M48
; DRILL file {KiCad 6.0.10-86aedd382b~118~ubuntu22.04.1} date Wed 11 Jan 2023 08:48:23 AM PST
; FORMAT={-:-/ absolute / metric / decimal}
; #@! TF.CreationDate,2023-01-11T08:48:23-08:00
; #@! TF.GenerationSoftware,Kicad,Pcbnew,6.0.10-86aedd382b~118~ubuntu22.04.1
; #@! TF.FileFunction,Plated,1,2,PTH
FMAT,2
METRIC
; #@! TA.AperFunction,Plated,PTH,ViaDrill
T1C0.400
; #@! TA.AperFunction,Plated,PTH,ComponentDrill
T2C0.400
; #@! TA.AperFunction,Plated,PTH,ComponentDrill
T3C0.600
; #@! TA.AperFunction,Plated,PTH,ViaDrill
T4C0.800
; #@! TA.AperFunction,Plated,PTH,ComponentDrill
T5C0.900
; #@! TA.AperFunction,Plated,PTH,ComponentDrill
T6C1.000
; #@! TA.AperFunction,Plated,PTH,ComponentDrill
T7C1.050
; #@! TA.AperFunction,Plated,PTH,ComponentDrill
T8C1.100
; #@! TA.AperFunction,Plated,PTH,ComponentDrill
T9C1.200
; #@! TA.AperFunction,Plated,PTH,ComponentDrill
T10C1.800
%
G90
G05
T1
X22.0Y-82.5
X22.0Y-92.5
X22.0Y-100.5
X22.0Y-108.0
X22.0Y-115.0
X22.0Y-122.0
X22.0Y-129.5
X22.5Y-42.5
X22.5Y-52.5
X22.5Y-62.5
X22.5Y-72.5
X23.0Y-151.5
X23.0Y-157.0
X25.0Y-140.5
X27.5Y-47.5
X27.5Y-57.5
X27.5Y-67.5
X27.5Y-86.0
X28.0Y-142.5
X29.0Y-122.0
X29.5Y-136.0
X30.0Y-110.5
X30.5Y-94.5
X31.5Y-158.0
X32.5Y-42.5
X32.5Y-52.5
X32.5Y-62.5
X32.5Y-72.5
X33.35Y-87.95
X34.0Y-142.0
X34.08Y-147.33
X35.5Y-82.5
X36.1Y-86.1
X37.5Y-47.5
X37.5Y-57.5
X37.5Y-67.5
X37.5Y-142.0
X37.99Y-145.835
X38.0Y-104.0
X38.0Y-118.0
X38.0Y-125.5
X39.2Y-84.9
X40.25Y-87.05
X40.5Y-141.5
X41.3Y-92.45
X41.3Y-129.3
X42.4Y-110.43
X42.4Y-131.4
X42.5Y-42.5
X42.5Y-52.5
X42.5Y-62.5
X42.5Y-72.5
X44.05Y-99.0
X44.05Y-116.3
X45.5Y-85.0
X45.5Y-119.0
X45.62Y-146.81
X45.7Y-99.1
X45.7Y-116.3
X46.0Y-90.0
X46.0Y-141.5
X47.0Y-148.4
X47.5Y-47.5
X47.5Y-57.5
X47.5Y-67.5
X47.6Y-94.0
X47.6Y-130.6
X48.25Y-144.55
X48.4Y-111.2
X49.05Y-134.4
X49.7Y-146.8
X50.8Y-77.9
X51.0Y-104.5
X51.5Y-118.5
X52.0Y-126.0
X52.5Y-42.5
X52.5Y-52.5
X52.5Y-62.5
X52.5Y-72.5
X52.5Y-85.5
X52.5Y-158.0
X53.0Y-89.5
X53.3Y-145.45
X54.55Y-121.24
X56.9Y-85.45
X57.5Y-47.5
X57.5Y-57.5
X57.5Y-67.5
X58.0Y-141.5
X59.0Y-118.5
X59.45Y-87.15
X59.95Y-123.9
X60.0Y-95.0
X60.0Y-110.5
X60.5Y-132.0
X60.75Y-124.75
X62.5Y-42.5
X62.5Y-52.5
X62.5Y-62.5
X62.5Y-72.5
X62.65Y-91.8
X63.4Y-90.75
X63.5Y-141.5
X64.0Y-88.5
X64.65Y-158.805
X64.95Y-86.25
X65.0Y-122.0
X66.65Y-135.2
X66.65Y-143.9
X67.0Y-85.0
X67.5Y-47.5
X67.5Y-57.5
X67.5Y-67.5
X67.5Y-98.25
X67.5Y-135.9
X67.5Y-144.85
X68.0Y-129.5
X68.4Y-136.65
X68.4Y-145.95
X68.51Y-159.47
X69.3Y-114.95
X69.3Y-146.95
X69.35Y-137.4
X69.5Y-117.0
X70.18Y-143.53
X70.5Y-104.5
X70.5Y-111.5
X71.0Y-149.5
X71.05Y-142.65
X72.5Y-42.5
X72.5Y-52.5
X72.5Y-62.5
X72.5Y-72.5
X73.95Y-71.0
X74.5Y-100.2
X74.5Y-102.1
X75.0Y-82.5
X75.5Y-89.0
X77.5Y-47.5
X77.5Y-57.5
X77.5Y-67.5
X77.5Y-104.5
X77.5Y-111.0
X78.0Y-148.0
X79.0Y-86.5
X79.5Y-123.5
X80.5Y-138.0
X80.5Y-158.0
X82.25Y-102.1
X82.5Y-52.5
X82.5Y-62.5
X82.5Y-72.5
X82.5Y-82.5
X82.5Y-127.5
X82.5Y-135.0
X83.0Y-89.0
X83.3Y-100.8
X83.3Y-121.15
X86.0Y-103.5
X87.5Y-47.5
X87.5Y-57.5
X87.5Y-67.5
X87.5Y-77.5
X89.5Y-110.0
X89.5Y-118.0
X89.5Y-148.0
X90.5Y-95.0
X92.0Y-128.0
X92.5Y-42.5
X92.5Y-52.5
X92.5Y-62.5
X92.5Y-72.5
X92.5Y-82.5
X93.5Y-158.5
X96.5Y-103.0
X96.5Y-110.0
X96.5Y-119.0
X96.5Y-138.5
X97.0Y-93.5
X97.5Y-47.5
X97.5Y-57.5
X97.5Y-67.5
X97.5Y-77.5
X98.0Y-128.5
T2
X89.49Y-140.15
X89.49Y-141.65
X89.49Y-143.15
X90.99Y-140.15
X90.99Y-141.65
X90.99Y-143.15
X92.49Y-140.15
X92.49Y-141.65
X92.49Y-143.15
X93.99Y-140.15
X93.99Y-141.65
X93.99Y-143.15
T3
X27.9Y-150.8
X32.95Y-150.8
X43.1Y-150.8
X43.1Y-158.25
X50.75Y-150.8
X58.35Y-150.8
X66.0Y-150.8
X68.55Y-150.8
T4
X24.2Y-79.95
X24.2Y-97.1
X67.185Y-96.715
X72.4Y-83.55
X72.4Y-113.35
X72.4Y-119.8
X72.4Y-127.45
X82.4Y-144.1
X83.7Y-144.05
X85.0Y-143.9
X85.35Y-80.35
X85.35Y-96.4
X90.85Y-119.8
T5
X83.6Y-153.42
X83.6Y-155.96
X86.14Y-153.42
X86.14Y-155.96
X88.68Y-153.42
X88.68Y-155.96
X91.22Y-153.42
X91.22Y-155.96
X93.76Y-153.42
X93.76Y-155.96
T6
X32.5Y-79.5
X35.0Y-79.5
X37.5Y-79.5
T7
X27.87Y-153.335
X27.87Y-155.875
X30.41Y-153.335
X30.41Y-155.875
X32.95Y-153.335
X32.95Y-155.875
X35.49Y-153.335
X35.49Y-155.875
X38.03Y-153.335
X38.03Y-155.875
X40.57Y-153.335
X40.57Y-155.875
X43.11Y-153.335
X43.11Y-155.875
X45.65Y-153.335
X45.65Y-155.875
X48.19Y-153.335
X48.19Y-155.875
X50.73Y-153.335
X50.73Y-155.875
X53.27Y-153.335
X53.27Y-155.875
X55.81Y-153.335
X55.81Y-155.875
X58.35Y-153.335
X58.35Y-155.875
X60.89Y-153.335
X60.89Y-155.875
X63.43Y-153.335
X63.43Y-155.875
X65.97Y-153.335
X65.97Y-155.875
X68.51Y-153.335
X68.51Y-155.875
X71.05Y-153.335
X71.05Y-155.875
X73.59Y-153.335
X73.59Y-155.875
X76.13Y-153.335
X76.13Y-155.875
T8
X52.38Y-82.0
X54.92Y-82.0
X57.46Y-82.0
X60.0Y-82.0
X62.54Y-82.0
X65.08Y-82.0
X67.62Y-82.0
X73.58Y-143.95
X76.12Y-143.95
X87.2Y-123.29
X87.2Y-125.83
X87.2Y-128.37
X90.96Y-123.95
X93.5Y-123.95
X96.04Y-123.95
T9
X82.5Y-69.5
X82.5Y-74.5
X87.5Y-69.5
X87.5Y-74.5
T3
X30.35Y-88.52G85X29.65Y-88.52
G05
X30.45Y-91.62G85X29.55Y-91.62
G05
X30.45Y-99.92G85X29.55Y-99.92
G05
X30.35Y-103.52G85X29.65Y-103.52
G05
X30.45Y-106.62G85X29.55Y-106.62
G05
X30.45Y-114.92G85X29.55Y-114.92
G05
X45.35Y-123.52G85X44.65Y-123.52
G05
X45.45Y-126.62G85X44.55Y-126.62
G05
X45.45Y-134.92G85X44.55Y-134.92
G05
X60.35Y-88.52G85X59.65Y-88.52
G05
X60.45Y-91.62G85X59.55Y-91.62
G05
X60.45Y-99.92G85X59.55Y-99.92
G05
X60.35Y-103.52G85X59.65Y-103.52
G05
X60.45Y-106.62G85X59.55Y-106.62
G05
X60.45Y-114.92G85X59.55Y-114.92
G05
X75.35Y-123.52G85X74.65Y-123.52
G05
X75.45Y-126.62G85X74.55Y-126.62
G05
X75.45Y-134.92G85X74.55Y-134.92
G05
X90.35Y-88.52G85X89.65Y-88.52
G05
X90.45Y-91.62G85X89.55Y-91.62
G05
X90.45Y-99.92G85X89.55Y-99.92
G05
X90.35Y-103.52G85X89.65Y-103.52
G05
X90.45Y-106.62G85X89.55Y-106.62
G05
X90.45Y-114.92G85X89.55Y-114.92
G05
T10
X29.3Y-71.6G85X29.3Y-72.4
G05
X40.7Y-71.6G85X40.7Y-72.4
G05
T0
M30
