%TF.GenerationSoftware,KiCad,Pcbnew,6.0.10-86aedd382b~118~ubuntu22.04.1*%
%TF.CreationDate,2023-01-11T08:48:29-08:00*%
%TF.ProjectId,shield,73686965-6c64-42e6-9b69-6361645f7063,rev?*%
%TF.SameCoordinates,Original*%
%TF.FileFunction,Drillmap*%
%TF.FilePolarity,Positive*%
%FSLAX45Y45*%
G04 Gerber Fmt 4.5, Leading zero omitted, Abs format (unit mm)*
G04 Created by KiCad (PCBNEW 6.0.10-86aedd382b~118~ubuntu22.04.1) date 2023-01-11 08:48:29*
%MOMM*%
%LPD*%
G01*
G04 APERTURE LIST*
%ADD10C,0.200000*%
%ADD11C,0.040000*%
%ADD12C,0.060000*%
%ADD13C,0.080000*%
%ADD14C,0.090000*%
%ADD15C,0.100000*%
%ADD16C,0.105000*%
%ADD17C,0.110000*%
%ADD18C,0.120000*%
%ADD19C,0.180000*%
G04 APERTURE END LIST*
D10*
X2000000Y-4000000D02*
X10000000Y-4000000D01*
X10000000Y-4000000D02*
X10000000Y-16000000D01*
X10000000Y-16000000D02*
X2000000Y-16000000D01*
X2000000Y-16000000D02*
X2000000Y-4000000D01*
D11*
X2180000Y-8230000D02*
X2220000Y-8270000D01*
X2220000Y-8230000D02*
X2180000Y-8270000D01*
X2180000Y-9230000D02*
X2220000Y-9270000D01*
X2220000Y-9230000D02*
X2180000Y-9270000D01*
X2180000Y-10030000D02*
X2220000Y-10070000D01*
X2220000Y-10030000D02*
X2180000Y-10070000D01*
X2180000Y-10780000D02*
X2220000Y-10820000D01*
X2220000Y-10780000D02*
X2180000Y-10820000D01*
X2180000Y-11480000D02*
X2220000Y-11520000D01*
X2220000Y-11480000D02*
X2180000Y-11520000D01*
X2180000Y-12180000D02*
X2220000Y-12220000D01*
X2220000Y-12180000D02*
X2180000Y-12220000D01*
X2180000Y-12930000D02*
X2220000Y-12970000D01*
X2220000Y-12930000D02*
X2180000Y-12970000D01*
X2230000Y-4230000D02*
X2270000Y-4270000D01*
X2270000Y-4230000D02*
X2230000Y-4270000D01*
X2230000Y-5230000D02*
X2270000Y-5270000D01*
X2270000Y-5230000D02*
X2230000Y-5270000D01*
X2230000Y-6230000D02*
X2270000Y-6270000D01*
X2270000Y-6230000D02*
X2230000Y-6270000D01*
X2230000Y-7230000D02*
X2270000Y-7270000D01*
X2270000Y-7230000D02*
X2230000Y-7270000D01*
X2280000Y-15130000D02*
X2320000Y-15170000D01*
X2320000Y-15130000D02*
X2280000Y-15170000D01*
X2280000Y-15680000D02*
X2320000Y-15720000D01*
X2320000Y-15680000D02*
X2280000Y-15720000D01*
X2480000Y-14030000D02*
X2520000Y-14070000D01*
X2520000Y-14030000D02*
X2480000Y-14070000D01*
X2730000Y-4730000D02*
X2770000Y-4770000D01*
X2770000Y-4730000D02*
X2730000Y-4770000D01*
X2730000Y-5730000D02*
X2770000Y-5770000D01*
X2770000Y-5730000D02*
X2730000Y-5770000D01*
X2730000Y-6730000D02*
X2770000Y-6770000D01*
X2770000Y-6730000D02*
X2730000Y-6770000D01*
X2730000Y-8580000D02*
X2770000Y-8620000D01*
X2770000Y-8580000D02*
X2730000Y-8620000D01*
X2780000Y-14230000D02*
X2820000Y-14270000D01*
X2820000Y-14230000D02*
X2780000Y-14270000D01*
X2880000Y-12180000D02*
X2920000Y-12220000D01*
X2920000Y-12180000D02*
X2880000Y-12220000D01*
X2930000Y-13580000D02*
X2970000Y-13620000D01*
X2970000Y-13580000D02*
X2930000Y-13620000D01*
X2980000Y-11030000D02*
X3020000Y-11070000D01*
X3020000Y-11030000D02*
X2980000Y-11070000D01*
X3030000Y-9430000D02*
X3070000Y-9470000D01*
X3070000Y-9430000D02*
X3030000Y-9470000D01*
X3130000Y-15780000D02*
X3170000Y-15820000D01*
X3170000Y-15780000D02*
X3130000Y-15820000D01*
X3230000Y-4230000D02*
X3270000Y-4270000D01*
X3270000Y-4230000D02*
X3230000Y-4270000D01*
X3230000Y-5230000D02*
X3270000Y-5270000D01*
X3270000Y-5230000D02*
X3230000Y-5270000D01*
X3230000Y-6230000D02*
X3270000Y-6270000D01*
X3270000Y-6230000D02*
X3230000Y-6270000D01*
X3230000Y-7230000D02*
X3270000Y-7270000D01*
X3270000Y-7230000D02*
X3230000Y-7270000D01*
X3315000Y-8775000D02*
X3355000Y-8815000D01*
X3355000Y-8775000D02*
X3315000Y-8815000D01*
X3380000Y-14180000D02*
X3420000Y-14220000D01*
X3420000Y-14180000D02*
X3380000Y-14220000D01*
X3388000Y-14713000D02*
X3428000Y-14753000D01*
X3428000Y-14713000D02*
X3388000Y-14753000D01*
X3530000Y-8230000D02*
X3570000Y-8270000D01*
X3570000Y-8230000D02*
X3530000Y-8270000D01*
X3590000Y-8590000D02*
X3630000Y-8630000D01*
X3630000Y-8590000D02*
X3590000Y-8630000D01*
X3730000Y-4730000D02*
X3770000Y-4770000D01*
X3770000Y-4730000D02*
X3730000Y-4770000D01*
X3730000Y-5730000D02*
X3770000Y-5770000D01*
X3770000Y-5730000D02*
X3730000Y-5770000D01*
X3730000Y-6730000D02*
X3770000Y-6770000D01*
X3770000Y-6730000D02*
X3730000Y-6770000D01*
X3730000Y-14180000D02*
X3770000Y-14220000D01*
X3770000Y-14180000D02*
X3730000Y-14220000D01*
X3779000Y-14563550D02*
X3819000Y-14603550D01*
X3819000Y-14563550D02*
X3779000Y-14603550D01*
X3780000Y-10380000D02*
X3820000Y-10420000D01*
X3820000Y-10380000D02*
X3780000Y-10420000D01*
X3780000Y-11780000D02*
X3820000Y-11820000D01*
X3820000Y-11780000D02*
X3780000Y-11820000D01*
X3780000Y-12530000D02*
X3820000Y-12570000D01*
X3820000Y-12530000D02*
X3780000Y-12570000D01*
X3900000Y-8470000D02*
X3940000Y-8510000D01*
X3940000Y-8470000D02*
X3900000Y-8510000D01*
X4005000Y-8685000D02*
X4045000Y-8725000D01*
X4045000Y-8685000D02*
X4005000Y-8725000D01*
X4030000Y-14130000D02*
X4070000Y-14170000D01*
X4070000Y-14130000D02*
X4030000Y-14170000D01*
X4110000Y-9225000D02*
X4150000Y-9265000D01*
X4150000Y-9225000D02*
X4110000Y-9265000D01*
X4110000Y-12910000D02*
X4150000Y-12950000D01*
X4150000Y-12910000D02*
X4110000Y-12950000D01*
X4220000Y-11023050D02*
X4260000Y-11063050D01*
X4260000Y-11023050D02*
X4220000Y-11063050D01*
X4220000Y-13120000D02*
X4260000Y-13160000D01*
X4260000Y-13120000D02*
X4220000Y-13160000D01*
X4230000Y-4230000D02*
X4270000Y-4270000D01*
X4270000Y-4230000D02*
X4230000Y-4270000D01*
X4230000Y-5230000D02*
X4270000Y-5270000D01*
X4270000Y-5230000D02*
X4230000Y-5270000D01*
X4230000Y-6230000D02*
X4270000Y-6270000D01*
X4270000Y-6230000D02*
X4230000Y-6270000D01*
X4230000Y-7230000D02*
X4270000Y-7270000D01*
X4270000Y-7230000D02*
X4230000Y-7270000D01*
X4385000Y-9880000D02*
X4425000Y-9920000D01*
X4425000Y-9880000D02*
X4385000Y-9920000D01*
X4385000Y-11610000D02*
X4425000Y-11650000D01*
X4425000Y-11610000D02*
X4385000Y-11650000D01*
X4530000Y-8480000D02*
X4570000Y-8520000D01*
X4570000Y-8480000D02*
X4530000Y-8520000D01*
X4530000Y-11880000D02*
X4570000Y-11920000D01*
X4570000Y-11880000D02*
X4530000Y-11920000D01*
X4542000Y-14661000D02*
X4582000Y-14701000D01*
X4582000Y-14661000D02*
X4542000Y-14701000D01*
X4550000Y-9890000D02*
X4590000Y-9930000D01*
X4590000Y-9890000D02*
X4550000Y-9930000D01*
X4550000Y-11610000D02*
X4590000Y-11650000D01*
X4590000Y-11610000D02*
X4550000Y-11650000D01*
X4580000Y-8980000D02*
X4620000Y-9020000D01*
X4620000Y-8980000D02*
X4580000Y-9020000D01*
X4580000Y-14130000D02*
X4620000Y-14170000D01*
X4620000Y-14130000D02*
X4580000Y-14170000D01*
X4680000Y-14820000D02*
X4720000Y-14860000D01*
X4720000Y-14820000D02*
X4680000Y-14860000D01*
X4730000Y-4730000D02*
X4770000Y-4770000D01*
X4770000Y-4730000D02*
X4730000Y-4770000D01*
X4730000Y-5730000D02*
X4770000Y-5770000D01*
X4770000Y-5730000D02*
X4730000Y-5770000D01*
X4730000Y-6730000D02*
X4770000Y-6770000D01*
X4770000Y-6730000D02*
X4730000Y-6770000D01*
X4740000Y-9380000D02*
X4780000Y-9420000D01*
X4780000Y-9380000D02*
X4740000Y-9420000D01*
X4740000Y-13040000D02*
X4780000Y-13080000D01*
X4780000Y-13040000D02*
X4740000Y-13080000D01*
X4805000Y-14435000D02*
X4845000Y-14475000D01*
X4845000Y-14435000D02*
X4805000Y-14475000D01*
X4820000Y-11100000D02*
X4860000Y-11140000D01*
X4860000Y-11100000D02*
X4820000Y-11140000D01*
X4885000Y-13420000D02*
X4925000Y-13460000D01*
X4925000Y-13420000D02*
X4885000Y-13460000D01*
X4950000Y-14660000D02*
X4990000Y-14700000D01*
X4990000Y-14660000D02*
X4950000Y-14700000D01*
X5060000Y-7770000D02*
X5100000Y-7810000D01*
X5100000Y-7770000D02*
X5060000Y-7810000D01*
X5080000Y-10430000D02*
X5120000Y-10470000D01*
X5120000Y-10430000D02*
X5080000Y-10470000D01*
X5130000Y-11830000D02*
X5170000Y-11870000D01*
X5170000Y-11830000D02*
X5130000Y-11870000D01*
X5180000Y-12580000D02*
X5220000Y-12620000D01*
X5220000Y-12580000D02*
X5180000Y-12620000D01*
X5230000Y-4230000D02*
X5270000Y-4270000D01*
X5270000Y-4230000D02*
X5230000Y-4270000D01*
X5230000Y-5230000D02*
X5270000Y-5270000D01*
X5270000Y-5230000D02*
X5230000Y-5270000D01*
X5230000Y-6230000D02*
X5270000Y-6270000D01*
X5270000Y-6230000D02*
X5230000Y-6270000D01*
X5230000Y-7230000D02*
X5270000Y-7270000D01*
X5270000Y-7230000D02*
X5230000Y-7270000D01*
X5230000Y-8530000D02*
X5270000Y-8570000D01*
X5270000Y-8530000D02*
X5230000Y-8570000D01*
X5230000Y-15780000D02*
X5270000Y-15820000D01*
X5270000Y-15780000D02*
X5230000Y-15820000D01*
X5280000Y-8930000D02*
X5320000Y-8970000D01*
X5320000Y-8930000D02*
X5280000Y-8970000D01*
X5310000Y-14525000D02*
X5350000Y-14565000D01*
X5350000Y-14525000D02*
X5310000Y-14565000D01*
X5435000Y-12104000D02*
X5475000Y-12144000D01*
X5475000Y-12104000D02*
X5435000Y-12144000D01*
X5670000Y-8525000D02*
X5710000Y-8565000D01*
X5710000Y-8525000D02*
X5670000Y-8565000D01*
X5730000Y-4730000D02*
X5770000Y-4770000D01*
X5770000Y-4730000D02*
X5730000Y-4770000D01*
X5730000Y-5730000D02*
X5770000Y-5770000D01*
X5770000Y-5730000D02*
X5730000Y-5770000D01*
X5730000Y-6730000D02*
X5770000Y-6770000D01*
X5770000Y-6730000D02*
X5730000Y-6770000D01*
X5780000Y-14130000D02*
X5820000Y-14170000D01*
X5820000Y-14130000D02*
X5780000Y-14170000D01*
X5880000Y-11830000D02*
X5920000Y-11870000D01*
X5920000Y-11830000D02*
X5880000Y-11870000D01*
X5925000Y-8695000D02*
X5965000Y-8735000D01*
X5965000Y-8695000D02*
X5925000Y-8735000D01*
X5975000Y-12370000D02*
X6015000Y-12410000D01*
X6015000Y-12370000D02*
X5975000Y-12410000D01*
X5980000Y-9480000D02*
X6020000Y-9520000D01*
X6020000Y-9480000D02*
X5980000Y-9520000D01*
X5980000Y-11030000D02*
X6020000Y-11070000D01*
X6020000Y-11030000D02*
X5980000Y-11070000D01*
X6030000Y-13180000D02*
X6070000Y-13220000D01*
X6070000Y-13180000D02*
X6030000Y-13220000D01*
X6055000Y-12455000D02*
X6095000Y-12495000D01*
X6095000Y-12455000D02*
X6055000Y-12495000D01*
X6230000Y-4230000D02*
X6270000Y-4270000D01*
X6270000Y-4230000D02*
X6230000Y-4270000D01*
X6230000Y-5230000D02*
X6270000Y-5270000D01*
X6270000Y-5230000D02*
X6230000Y-5270000D01*
X6230000Y-6230000D02*
X6270000Y-6270000D01*
X6270000Y-6230000D02*
X6230000Y-6270000D01*
X6230000Y-7230000D02*
X6270000Y-7270000D01*
X6270000Y-7230000D02*
X6230000Y-7270000D01*
X6245000Y-9160000D02*
X6285000Y-9200000D01*
X6285000Y-9160000D02*
X6245000Y-9200000D01*
X6320000Y-9055000D02*
X6360000Y-9095000D01*
X6360000Y-9055000D02*
X6320000Y-9095000D01*
X6330000Y-14130000D02*
X6370000Y-14170000D01*
X6370000Y-14130000D02*
X6330000Y-14170000D01*
X6380000Y-8830000D02*
X6420000Y-8870000D01*
X6420000Y-8830000D02*
X6380000Y-8870000D01*
X6445000Y-15860550D02*
X6485000Y-15900550D01*
X6485000Y-15860550D02*
X6445000Y-15900550D01*
X6475000Y-8605000D02*
X6515000Y-8645000D01*
X6515000Y-8605000D02*
X6475000Y-8645000D01*
X6480000Y-12180000D02*
X6520000Y-12220000D01*
X6520000Y-12180000D02*
X6480000Y-12220000D01*
X6645000Y-13500000D02*
X6685000Y-13540000D01*
X6685000Y-13500000D02*
X6645000Y-13540000D01*
X6645000Y-14370000D02*
X6685000Y-14410000D01*
X6685000Y-14370000D02*
X6645000Y-14410000D01*
X6680000Y-8480000D02*
X6720000Y-8520000D01*
X6720000Y-8480000D02*
X6680000Y-8520000D01*
X6730000Y-4730000D02*
X6770000Y-4770000D01*
X6770000Y-4730000D02*
X6730000Y-4770000D01*
X6730000Y-5730000D02*
X6770000Y-5770000D01*
X6770000Y-5730000D02*
X6730000Y-5770000D01*
X6730000Y-6730000D02*
X6770000Y-6770000D01*
X6770000Y-6730000D02*
X6730000Y-6770000D01*
X6730000Y-9805000D02*
X6770000Y-9845000D01*
X6770000Y-9805000D02*
X6730000Y-9845000D01*
X6730000Y-13570000D02*
X6770000Y-13610000D01*
X6770000Y-13570000D02*
X6730000Y-13610000D01*
X6730000Y-14465000D02*
X6770000Y-14505000D01*
X6770000Y-14465000D02*
X6730000Y-14505000D01*
X6780000Y-12930000D02*
X6820000Y-12970000D01*
X6820000Y-12930000D02*
X6780000Y-12970000D01*
X6820000Y-13645000D02*
X6860000Y-13685000D01*
X6860000Y-13645000D02*
X6820000Y-13685000D01*
X6820000Y-14575000D02*
X6860000Y-14615000D01*
X6860000Y-14575000D02*
X6820000Y-14615000D01*
X6831000Y-15927000D02*
X6871000Y-15967000D01*
X6871000Y-15927000D02*
X6831000Y-15967000D01*
X6910000Y-11475000D02*
X6950000Y-11515000D01*
X6950000Y-11475000D02*
X6910000Y-11515000D01*
X6910000Y-14675000D02*
X6950000Y-14715000D01*
X6950000Y-14675000D02*
X6910000Y-14715000D01*
X6915000Y-13720000D02*
X6955000Y-13760000D01*
X6955000Y-13720000D02*
X6915000Y-13760000D01*
X6930000Y-11680000D02*
X6970000Y-11720000D01*
X6970000Y-11680000D02*
X6930000Y-11720000D01*
X6998000Y-14333000D02*
X7038000Y-14373000D01*
X7038000Y-14333000D02*
X6998000Y-14373000D01*
X7030000Y-10430000D02*
X7070000Y-10470000D01*
X7070000Y-10430000D02*
X7030000Y-10470000D01*
X7030000Y-11130000D02*
X7070000Y-11170000D01*
X7070000Y-11130000D02*
X7030000Y-11170000D01*
X7080000Y-14930000D02*
X7120000Y-14970000D01*
X7120000Y-14930000D02*
X7080000Y-14970000D01*
X7085000Y-14245000D02*
X7125000Y-14285000D01*
X7125000Y-14245000D02*
X7085000Y-14285000D01*
X7230000Y-4230000D02*
X7270000Y-4270000D01*
X7270000Y-4230000D02*
X7230000Y-4270000D01*
X7230000Y-5230000D02*
X7270000Y-5270000D01*
X7270000Y-5230000D02*
X7230000Y-5270000D01*
X7230000Y-6230000D02*
X7270000Y-6270000D01*
X7270000Y-6230000D02*
X7230000Y-6270000D01*
X7230000Y-7230000D02*
X7270000Y-7270000D01*
X7270000Y-7230000D02*
X7230000Y-7270000D01*
X7375000Y-7080000D02*
X7415000Y-7120000D01*
X7415000Y-7080000D02*
X7375000Y-7120000D01*
X7430000Y-10000000D02*
X7470000Y-10040000D01*
X7470000Y-10000000D02*
X7430000Y-10040000D01*
X7430000Y-10190000D02*
X7470000Y-10230000D01*
X7470000Y-10190000D02*
X7430000Y-10230000D01*
X7480000Y-8230000D02*
X7520000Y-8270000D01*
X7520000Y-8230000D02*
X7480000Y-8270000D01*
X7530000Y-8880000D02*
X7570000Y-8920000D01*
X7570000Y-8880000D02*
X7530000Y-8920000D01*
X7730000Y-4730000D02*
X7770000Y-4770000D01*
X7770000Y-4730000D02*
X7730000Y-4770000D01*
X7730000Y-5730000D02*
X7770000Y-5770000D01*
X7770000Y-5730000D02*
X7730000Y-5770000D01*
X7730000Y-6730000D02*
X7770000Y-6770000D01*
X7770000Y-6730000D02*
X7730000Y-6770000D01*
X7730000Y-10430000D02*
X7770000Y-10470000D01*
X7770000Y-10430000D02*
X7730000Y-10470000D01*
X7730000Y-11080000D02*
X7770000Y-11120000D01*
X7770000Y-11080000D02*
X7730000Y-11120000D01*
X7780000Y-14780000D02*
X7820000Y-14820000D01*
X7820000Y-14780000D02*
X7780000Y-14820000D01*
X7880000Y-8630000D02*
X7920000Y-8670000D01*
X7920000Y-8630000D02*
X7880000Y-8670000D01*
X7930000Y-12330000D02*
X7970000Y-12370000D01*
X7970000Y-12330000D02*
X7930000Y-12370000D01*
X8030000Y-13780000D02*
X8070000Y-13820000D01*
X8070000Y-13780000D02*
X8030000Y-13820000D01*
X8030000Y-15780000D02*
X8070000Y-15820000D01*
X8070000Y-15780000D02*
X8030000Y-15820000D01*
X8205000Y-10190000D02*
X8245000Y-10230000D01*
X8245000Y-10190000D02*
X8205000Y-10230000D01*
X8230000Y-5230000D02*
X8270000Y-5270000D01*
X8270000Y-5230000D02*
X8230000Y-5270000D01*
X8230000Y-6230000D02*
X8270000Y-6270000D01*
X8270000Y-6230000D02*
X8230000Y-6270000D01*
X8230000Y-7230000D02*
X8270000Y-7270000D01*
X8270000Y-7230000D02*
X8230000Y-7270000D01*
X8230000Y-8230000D02*
X8270000Y-8270000D01*
X8270000Y-8230000D02*
X8230000Y-8270000D01*
X8230000Y-12730000D02*
X8270000Y-12770000D01*
X8270000Y-12730000D02*
X8230000Y-12770000D01*
X8230000Y-13480000D02*
X8270000Y-13520000D01*
X8270000Y-13480000D02*
X8230000Y-13520000D01*
X8280000Y-8880000D02*
X8320000Y-8920000D01*
X8320000Y-8880000D02*
X8280000Y-8920000D01*
X8310000Y-10060000D02*
X8350000Y-10100000D01*
X8350000Y-10060000D02*
X8310000Y-10100000D01*
X8310000Y-12095000D02*
X8350000Y-12135000D01*
X8350000Y-12095000D02*
X8310000Y-12135000D01*
X8580000Y-10330000D02*
X8620000Y-10370000D01*
X8620000Y-10330000D02*
X8580000Y-10370000D01*
X8730000Y-4730000D02*
X8770000Y-4770000D01*
X8770000Y-4730000D02*
X8730000Y-4770000D01*
X8730000Y-5730000D02*
X8770000Y-5770000D01*
X8770000Y-5730000D02*
X8730000Y-5770000D01*
X8730000Y-6730000D02*
X8770000Y-6770000D01*
X8770000Y-6730000D02*
X8730000Y-6770000D01*
X8730000Y-7730000D02*
X8770000Y-7770000D01*
X8770000Y-7730000D02*
X8730000Y-7770000D01*
X8930000Y-10980000D02*
X8970000Y-11020000D01*
X8970000Y-10980000D02*
X8930000Y-11020000D01*
X8930000Y-11780000D02*
X8970000Y-11820000D01*
X8970000Y-11780000D02*
X8930000Y-11820000D01*
X8930000Y-14780000D02*
X8970000Y-14820000D01*
X8970000Y-14780000D02*
X8930000Y-14820000D01*
X9030000Y-9480000D02*
X9070000Y-9520000D01*
X9070000Y-9480000D02*
X9030000Y-9520000D01*
X9180000Y-12780000D02*
X9220000Y-12820000D01*
X9220000Y-12780000D02*
X9180000Y-12820000D01*
X9230000Y-4230000D02*
X9270000Y-4270000D01*
X9270000Y-4230000D02*
X9230000Y-4270000D01*
X9230000Y-5230000D02*
X9270000Y-5270000D01*
X9270000Y-5230000D02*
X9230000Y-5270000D01*
X9230000Y-6230000D02*
X9270000Y-6270000D01*
X9270000Y-6230000D02*
X9230000Y-6270000D01*
X9230000Y-7230000D02*
X9270000Y-7270000D01*
X9270000Y-7230000D02*
X9230000Y-7270000D01*
X9230000Y-8230000D02*
X9270000Y-8270000D01*
X9270000Y-8230000D02*
X9230000Y-8270000D01*
X9330000Y-15830000D02*
X9370000Y-15870000D01*
X9370000Y-15830000D02*
X9330000Y-15870000D01*
X9630000Y-10280000D02*
X9670000Y-10320000D01*
X9670000Y-10280000D02*
X9630000Y-10320000D01*
X9630000Y-10980000D02*
X9670000Y-11020000D01*
X9670000Y-10980000D02*
X9630000Y-11020000D01*
X9630000Y-11880000D02*
X9670000Y-11920000D01*
X9670000Y-11880000D02*
X9630000Y-11920000D01*
X9630000Y-13830000D02*
X9670000Y-13870000D01*
X9670000Y-13830000D02*
X9630000Y-13870000D01*
X9680000Y-9330000D02*
X9720000Y-9370000D01*
X9720000Y-9330000D02*
X9680000Y-9370000D01*
X9730000Y-4730000D02*
X9770000Y-4770000D01*
X9770000Y-4730000D02*
X9730000Y-4770000D01*
X9730000Y-5730000D02*
X9770000Y-5770000D01*
X9770000Y-5730000D02*
X9730000Y-5770000D01*
X9730000Y-6730000D02*
X9770000Y-6770000D01*
X9770000Y-6730000D02*
X9730000Y-6770000D01*
X9730000Y-7730000D02*
X9770000Y-7770000D01*
X9770000Y-7730000D02*
X9730000Y-7770000D01*
X9780000Y-12830000D02*
X9820000Y-12870000D01*
X9820000Y-12830000D02*
X9780000Y-12870000D01*
X8969000Y-14015000D02*
G75*
G03*
X8969000Y-14015000I-20000J0D01*
G01*
X8969000Y-14165000D02*
G75*
G03*
X8969000Y-14165000I-20000J0D01*
G01*
X8969000Y-14315000D02*
G75*
G03*
X8969000Y-14315000I-20000J0D01*
G01*
X9119000Y-14015000D02*
G75*
G03*
X9119000Y-14015000I-20000J0D01*
G01*
X9119000Y-14165000D02*
G75*
G03*
X9119000Y-14165000I-20000J0D01*
G01*
X9119000Y-14315000D02*
G75*
G03*
X9119000Y-14315000I-20000J0D01*
G01*
X9269000Y-14015000D02*
G75*
G03*
X9269000Y-14015000I-20000J0D01*
G01*
X9269000Y-14165000D02*
G75*
G03*
X9269000Y-14165000I-20000J0D01*
G01*
X9269000Y-14315000D02*
G75*
G03*
X9269000Y-14315000I-20000J0D01*
G01*
X9419000Y-14015000D02*
G75*
G03*
X9419000Y-14015000I-20000J0D01*
G01*
X9419000Y-14165000D02*
G75*
G03*
X9419000Y-14165000I-20000J0D01*
G01*
X9419000Y-14315000D02*
G75*
G03*
X9419000Y-14315000I-20000J0D01*
G01*
D12*
X2790000Y-15050000D02*
X2790000Y-15110000D01*
X2760000Y-15080000D02*
X2820000Y-15080000D01*
X3000000Y-8822000D02*
X3000000Y-8882000D01*
X2970000Y-8852000D02*
X3030000Y-8852000D01*
D10*
X3035000Y-8822000D02*
X2965000Y-8822000D01*
X3035000Y-8882000D02*
X2965000Y-8882000D01*
X2965000Y-8822000D02*
G75*
G03*
X2965000Y-8882000I0J-30000D01*
G01*
X3035000Y-8882000D02*
G75*
G03*
X3035000Y-8822000I0J30000D01*
G01*
D12*
X3000000Y-9132000D02*
X3000000Y-9192000D01*
X2970000Y-9162000D02*
X3030000Y-9162000D01*
D10*
X3045000Y-9132000D02*
X2955000Y-9132000D01*
X3045000Y-9192000D02*
X2955000Y-9192000D01*
X2955000Y-9132000D02*
G75*
G03*
X2955000Y-9192000I0J-30000D01*
G01*
X3045000Y-9192000D02*
G75*
G03*
X3045000Y-9132000I0J30000D01*
G01*
D12*
X3000000Y-9962000D02*
X3000000Y-10022000D01*
X2970000Y-9992000D02*
X3030000Y-9992000D01*
D10*
X3045000Y-9962000D02*
X2955000Y-9962000D01*
X3045000Y-10022000D02*
X2955000Y-10022000D01*
X2955000Y-9962000D02*
G75*
G03*
X2955000Y-10022000I0J-30000D01*
G01*
X3045000Y-10022000D02*
G75*
G03*
X3045000Y-9962000I0J30000D01*
G01*
D12*
X3000000Y-10322000D02*
X3000000Y-10382000D01*
X2970000Y-10352000D02*
X3030000Y-10352000D01*
D10*
X3035000Y-10322000D02*
X2965000Y-10322000D01*
X3035000Y-10382000D02*
X2965000Y-10382000D01*
X2965000Y-10322000D02*
G75*
G03*
X2965000Y-10382000I0J-30000D01*
G01*
X3035000Y-10382000D02*
G75*
G03*
X3035000Y-10322000I0J30000D01*
G01*
D12*
X3000000Y-10632000D02*
X3000000Y-10692000D01*
X2970000Y-10662000D02*
X3030000Y-10662000D01*
D10*
X3045000Y-10632000D02*
X2955000Y-10632000D01*
X3045000Y-10692000D02*
X2955000Y-10692000D01*
X2955000Y-10632000D02*
G75*
G03*
X2955000Y-10692000I0J-30000D01*
G01*
X3045000Y-10692000D02*
G75*
G03*
X3045000Y-10632000I0J30000D01*
G01*
D12*
X3000000Y-11462000D02*
X3000000Y-11522000D01*
X2970000Y-11492000D02*
X3030000Y-11492000D01*
D10*
X3045000Y-11462000D02*
X2955000Y-11462000D01*
X3045000Y-11522000D02*
X2955000Y-11522000D01*
X2955000Y-11462000D02*
G75*
G03*
X2955000Y-11522000I0J-30000D01*
G01*
X3045000Y-11522000D02*
G75*
G03*
X3045000Y-11462000I0J30000D01*
G01*
D12*
X3295000Y-15050000D02*
X3295000Y-15110000D01*
X3265000Y-15080000D02*
X3325000Y-15080000D01*
X4310000Y-15050000D02*
X4310000Y-15110000D01*
X4280000Y-15080000D02*
X4340000Y-15080000D01*
X4310000Y-15795000D02*
X4310000Y-15855000D01*
X4280000Y-15825000D02*
X4340000Y-15825000D01*
X4500000Y-12322000D02*
X4500000Y-12382000D01*
X4470000Y-12352000D02*
X4530000Y-12352000D01*
D10*
X4535000Y-12322000D02*
X4465000Y-12322000D01*
X4535000Y-12382000D02*
X4465000Y-12382000D01*
X4465000Y-12322000D02*
G75*
G03*
X4465000Y-12382000I0J-30000D01*
G01*
X4535000Y-12382000D02*
G75*
G03*
X4535000Y-12322000I0J30000D01*
G01*
D12*
X4500000Y-12632000D02*
X4500000Y-12692000D01*
X4470000Y-12662000D02*
X4530000Y-12662000D01*
D10*
X4545000Y-12632000D02*
X4455000Y-12632000D01*
X4545000Y-12692000D02*
X4455000Y-12692000D01*
X4455000Y-12632000D02*
G75*
G03*
X4455000Y-12692000I0J-30000D01*
G01*
X4545000Y-12692000D02*
G75*
G03*
X4545000Y-12632000I0J30000D01*
G01*
D12*
X4500000Y-13462000D02*
X4500000Y-13522000D01*
X4470000Y-13492000D02*
X4530000Y-13492000D01*
D10*
X4545000Y-13462000D02*
X4455000Y-13462000D01*
X4545000Y-13522000D02*
X4455000Y-13522000D01*
X4455000Y-13462000D02*
G75*
G03*
X4455000Y-13522000I0J-30000D01*
G01*
X4545000Y-13522000D02*
G75*
G03*
X4545000Y-13462000I0J30000D01*
G01*
D12*
X5075000Y-15050000D02*
X5075000Y-15110000D01*
X5045000Y-15080000D02*
X5105000Y-15080000D01*
X5835000Y-15050000D02*
X5835000Y-15110000D01*
X5805000Y-15080000D02*
X5865000Y-15080000D01*
X6000000Y-8822000D02*
X6000000Y-8882000D01*
X5970000Y-8852000D02*
X6030000Y-8852000D01*
D10*
X6035000Y-8822000D02*
X5965000Y-8822000D01*
X6035000Y-8882000D02*
X5965000Y-8882000D01*
X5965000Y-8822000D02*
G75*
G03*
X5965000Y-8882000I0J-30000D01*
G01*
X6035000Y-8882000D02*
G75*
G03*
X6035000Y-8822000I0J30000D01*
G01*
D12*
X6000000Y-9132000D02*
X6000000Y-9192000D01*
X5970000Y-9162000D02*
X6030000Y-9162000D01*
D10*
X6045000Y-9132000D02*
X5955000Y-9132000D01*
X6045000Y-9192000D02*
X5955000Y-9192000D01*
X5955000Y-9132000D02*
G75*
G03*
X5955000Y-9192000I0J-30000D01*
G01*
X6045000Y-9192000D02*
G75*
G03*
X6045000Y-9132000I0J30000D01*
G01*
D12*
X6000000Y-9962000D02*
X6000000Y-10022000D01*
X5970000Y-9992000D02*
X6030000Y-9992000D01*
D10*
X6045000Y-9962000D02*
X5955000Y-9962000D01*
X6045000Y-10022000D02*
X5955000Y-10022000D01*
X5955000Y-9962000D02*
G75*
G03*
X5955000Y-10022000I0J-30000D01*
G01*
X6045000Y-10022000D02*
G75*
G03*
X6045000Y-9962000I0J30000D01*
G01*
D12*
X6000000Y-10322000D02*
X6000000Y-10382000D01*
X5970000Y-10352000D02*
X6030000Y-10352000D01*
D10*
X6035000Y-10322000D02*
X5965000Y-10322000D01*
X6035000Y-10382000D02*
X5965000Y-10382000D01*
X5965000Y-10322000D02*
G75*
G03*
X5965000Y-10382000I0J-30000D01*
G01*
X6035000Y-10382000D02*
G75*
G03*
X6035000Y-10322000I0J30000D01*
G01*
D12*
X6000000Y-10632000D02*
X6000000Y-10692000D01*
X5970000Y-10662000D02*
X6030000Y-10662000D01*
D10*
X6045000Y-10632000D02*
X5955000Y-10632000D01*
X6045000Y-10692000D02*
X5955000Y-10692000D01*
X5955000Y-10632000D02*
G75*
G03*
X5955000Y-10692000I0J-30000D01*
G01*
X6045000Y-10692000D02*
G75*
G03*
X6045000Y-10632000I0J30000D01*
G01*
D12*
X6000000Y-11462000D02*
X6000000Y-11522000D01*
X5970000Y-11492000D02*
X6030000Y-11492000D01*
D10*
X6045000Y-11462000D02*
X5955000Y-11462000D01*
X6045000Y-11522000D02*
X5955000Y-11522000D01*
X5955000Y-11462000D02*
G75*
G03*
X5955000Y-11522000I0J-30000D01*
G01*
X6045000Y-11522000D02*
G75*
G03*
X6045000Y-11462000I0J30000D01*
G01*
D12*
X6600000Y-15050000D02*
X6600000Y-15110000D01*
X6570000Y-15080000D02*
X6630000Y-15080000D01*
X6855000Y-15050000D02*
X6855000Y-15110000D01*
X6825000Y-15080000D02*
X6885000Y-15080000D01*
X7500000Y-12322000D02*
X7500000Y-12382000D01*
X7470000Y-12352000D02*
X7530000Y-12352000D01*
D10*
X7535000Y-12322000D02*
X7465000Y-12322000D01*
X7535000Y-12382000D02*
X7465000Y-12382000D01*
X7465000Y-12322000D02*
G75*
G03*
X7465000Y-12382000I0J-30000D01*
G01*
X7535000Y-12382000D02*
G75*
G03*
X7535000Y-12322000I0J30000D01*
G01*
D12*
X7500000Y-12632000D02*
X7500000Y-12692000D01*
X7470000Y-12662000D02*
X7530000Y-12662000D01*
D10*
X7545000Y-12632000D02*
X7455000Y-12632000D01*
X7545000Y-12692000D02*
X7455000Y-12692000D01*
X7455000Y-12632000D02*
G75*
G03*
X7455000Y-12692000I0J-30000D01*
G01*
X7545000Y-12692000D02*
G75*
G03*
X7545000Y-12632000I0J30000D01*
G01*
D12*
X7500000Y-13462000D02*
X7500000Y-13522000D01*
X7470000Y-13492000D02*
X7530000Y-13492000D01*
D10*
X7545000Y-13462000D02*
X7455000Y-13462000D01*
X7545000Y-13522000D02*
X7455000Y-13522000D01*
X7455000Y-13462000D02*
G75*
G03*
X7455000Y-13522000I0J-30000D01*
G01*
X7545000Y-13522000D02*
G75*
G03*
X7545000Y-13462000I0J30000D01*
G01*
D12*
X9000000Y-8822000D02*
X9000000Y-8882000D01*
X8970000Y-8852000D02*
X9030000Y-8852000D01*
D10*
X9035000Y-8822000D02*
X8965000Y-8822000D01*
X9035000Y-8882000D02*
X8965000Y-8882000D01*
X8965000Y-8822000D02*
G75*
G03*
X8965000Y-8882000I0J-30000D01*
G01*
X9035000Y-8882000D02*
G75*
G03*
X9035000Y-8822000I0J30000D01*
G01*
D12*
X9000000Y-9132000D02*
X9000000Y-9192000D01*
X8970000Y-9162000D02*
X9030000Y-9162000D01*
D10*
X9045000Y-9132000D02*
X8955000Y-9132000D01*
X9045000Y-9192000D02*
X8955000Y-9192000D01*
X8955000Y-9132000D02*
G75*
G03*
X8955000Y-9192000I0J-30000D01*
G01*
X9045000Y-9192000D02*
G75*
G03*
X9045000Y-9132000I0J30000D01*
G01*
D12*
X9000000Y-9962000D02*
X9000000Y-10022000D01*
X8970000Y-9992000D02*
X9030000Y-9992000D01*
D10*
X9045000Y-9962000D02*
X8955000Y-9962000D01*
X9045000Y-10022000D02*
X8955000Y-10022000D01*
X8955000Y-9962000D02*
G75*
G03*
X8955000Y-10022000I0J-30000D01*
G01*
X9045000Y-10022000D02*
G75*
G03*
X9045000Y-9962000I0J30000D01*
G01*
D12*
X9000000Y-10322000D02*
X9000000Y-10382000D01*
X8970000Y-10352000D02*
X9030000Y-10352000D01*
D10*
X9035000Y-10322000D02*
X8965000Y-10322000D01*
X9035000Y-10382000D02*
X8965000Y-10382000D01*
X8965000Y-10322000D02*
G75*
G03*
X8965000Y-10382000I0J-30000D01*
G01*
X9035000Y-10382000D02*
G75*
G03*
X9035000Y-10322000I0J30000D01*
G01*
D12*
X9000000Y-10632000D02*
X9000000Y-10692000D01*
X8970000Y-10662000D02*
X9030000Y-10662000D01*
D10*
X9045000Y-10632000D02*
X8955000Y-10632000D01*
X9045000Y-10692000D02*
X8955000Y-10692000D01*
X8955000Y-10632000D02*
G75*
G03*
X8955000Y-10692000I0J-30000D01*
G01*
X9045000Y-10692000D02*
G75*
G03*
X9045000Y-10632000I0J30000D01*
G01*
D12*
X9000000Y-11462000D02*
X9000000Y-11522000D01*
X8970000Y-11492000D02*
X9030000Y-11492000D01*
D10*
X9045000Y-11462000D02*
X8955000Y-11462000D01*
X9045000Y-11522000D02*
X8955000Y-11522000D01*
X8955000Y-11462000D02*
G75*
G03*
X8955000Y-11522000I0J-30000D01*
G01*
X9045000Y-11522000D02*
G75*
G03*
X9045000Y-11462000I0J30000D01*
G01*
D13*
X2448285Y-8023284D02*
X2448285Y-7966715D01*
X2391716Y-7966715D01*
X2391716Y-8023284D01*
X2448285Y-8023284D01*
X2448285Y-9738285D02*
X2448285Y-9681716D01*
X2391716Y-9681716D01*
X2391716Y-9738285D01*
X2448285Y-9738285D01*
X6746784Y-9699785D02*
X6746784Y-9643216D01*
X6690215Y-9643216D01*
X6690215Y-9699785D01*
X6746784Y-9699785D01*
X7268284Y-8383284D02*
X7268284Y-8326715D01*
X7211715Y-8326715D01*
X7211715Y-8383284D01*
X7268284Y-8383284D01*
X7268284Y-11363284D02*
X7268284Y-11306715D01*
X7211715Y-11306715D01*
X7211715Y-11363284D01*
X7268284Y-11363284D01*
X7268284Y-12008284D02*
X7268284Y-11951715D01*
X7211715Y-11951715D01*
X7211715Y-12008284D01*
X7268284Y-12008284D01*
X7268284Y-12773284D02*
X7268284Y-12716715D01*
X7211715Y-12716715D01*
X7211715Y-12773284D01*
X7268284Y-12773284D01*
X8268284Y-14438284D02*
X8268284Y-14381715D01*
X8211715Y-14381715D01*
X8211715Y-14438284D01*
X8268284Y-14438284D01*
X8398285Y-14433284D02*
X8398285Y-14376715D01*
X8341715Y-14376715D01*
X8341715Y-14433284D01*
X8398285Y-14433284D01*
X8528285Y-14418284D02*
X8528285Y-14361715D01*
X8471716Y-14361715D01*
X8471716Y-14418284D01*
X8528285Y-14418284D01*
X8563285Y-8063284D02*
X8563285Y-8006715D01*
X8506716Y-8006715D01*
X8506716Y-8063284D01*
X8563285Y-8063284D01*
X8563285Y-9668285D02*
X8563285Y-9611716D01*
X8506716Y-9611716D01*
X8506716Y-9668285D01*
X8563285Y-9668285D01*
X9113285Y-12008284D02*
X9113285Y-11951715D01*
X9056716Y-11951715D01*
X9056716Y-12008284D01*
X9113285Y-12008284D01*
D14*
X8360000Y-15387000D02*
X8405000Y-15342000D01*
X8360000Y-15297000D01*
X8315000Y-15342000D01*
X8360000Y-15387000D01*
X8360000Y-15641000D02*
X8405000Y-15596000D01*
X8360000Y-15551000D01*
X8315000Y-15596000D01*
X8360000Y-15641000D01*
X8614000Y-15387000D02*
X8659000Y-15342000D01*
X8614000Y-15297000D01*
X8569000Y-15342000D01*
X8614000Y-15387000D01*
X8614000Y-15641000D02*
X8659000Y-15596000D01*
X8614000Y-15551000D01*
X8569000Y-15596000D01*
X8614000Y-15641000D01*
X8868000Y-15387000D02*
X8913000Y-15342000D01*
X8868000Y-15297000D01*
X8823000Y-15342000D01*
X8868000Y-15387000D01*
X8868000Y-15641000D02*
X8913000Y-15596000D01*
X8868000Y-15551000D01*
X8823000Y-15596000D01*
X8868000Y-15641000D01*
X9122000Y-15387000D02*
X9167000Y-15342000D01*
X9122000Y-15297000D01*
X9077000Y-15342000D01*
X9122000Y-15387000D01*
X9122000Y-15641000D02*
X9167000Y-15596000D01*
X9122000Y-15551000D01*
X9077000Y-15596000D01*
X9122000Y-15641000D01*
X9376000Y-15387000D02*
X9421000Y-15342000D01*
X9376000Y-15297000D01*
X9331000Y-15342000D01*
X9376000Y-15387000D01*
X9376000Y-15641000D02*
X9421000Y-15596000D01*
X9376000Y-15551000D01*
X9331000Y-15596000D01*
X9376000Y-15641000D01*
D15*
X3200000Y-7900000D02*
X3300000Y-8000000D01*
X3300000Y-7900000D02*
X3200000Y-8000000D01*
X3300000Y-7950000D02*
G75*
G03*
X3300000Y-7950000I-50000J0D01*
G01*
X3450000Y-7900000D02*
X3550000Y-8000000D01*
X3550000Y-7900000D02*
X3450000Y-8000000D01*
X3550000Y-7950000D02*
G75*
G03*
X3550000Y-7950000I-50000J0D01*
G01*
X3700000Y-7900000D02*
X3800000Y-8000000D01*
X3800000Y-7900000D02*
X3700000Y-8000000D01*
X3800000Y-7950000D02*
G75*
G03*
X3800000Y-7950000I-50000J0D01*
G01*
D16*
X2734500Y-15281000D02*
X2839500Y-15386000D01*
X2839500Y-15281000D02*
X2734500Y-15386000D01*
X2787000Y-15281000D02*
X2787000Y-15386000D01*
X2734500Y-15333500D02*
X2839500Y-15333500D01*
X2734500Y-15535000D02*
X2839500Y-15640000D01*
X2839500Y-15535000D02*
X2734500Y-15640000D01*
X2787000Y-15535000D02*
X2787000Y-15640000D01*
X2734500Y-15587500D02*
X2839500Y-15587500D01*
X2988500Y-15281000D02*
X3093500Y-15386000D01*
X3093500Y-15281000D02*
X2988500Y-15386000D01*
X3041000Y-15281000D02*
X3041000Y-15386000D01*
X2988500Y-15333500D02*
X3093500Y-15333500D01*
X2988500Y-15535000D02*
X3093500Y-15640000D01*
X3093500Y-15535000D02*
X2988500Y-15640000D01*
X3041000Y-15535000D02*
X3041000Y-15640000D01*
X2988500Y-15587500D02*
X3093500Y-15587500D01*
X3242500Y-15281000D02*
X3347500Y-15386000D01*
X3347500Y-15281000D02*
X3242500Y-15386000D01*
X3295000Y-15281000D02*
X3295000Y-15386000D01*
X3242500Y-15333500D02*
X3347500Y-15333500D01*
X3242500Y-15535000D02*
X3347500Y-15640000D01*
X3347500Y-15535000D02*
X3242500Y-15640000D01*
X3295000Y-15535000D02*
X3295000Y-15640000D01*
X3242500Y-15587500D02*
X3347500Y-15587500D01*
X3496500Y-15281000D02*
X3601500Y-15386000D01*
X3601500Y-15281000D02*
X3496500Y-15386000D01*
X3549000Y-15281000D02*
X3549000Y-15386000D01*
X3496500Y-15333500D02*
X3601500Y-15333500D01*
X3496500Y-15535000D02*
X3601500Y-15640000D01*
X3601500Y-15535000D02*
X3496500Y-15640000D01*
X3549000Y-15535000D02*
X3549000Y-15640000D01*
X3496500Y-15587500D02*
X3601500Y-15587500D01*
X3750500Y-15281000D02*
X3855500Y-15386000D01*
X3855500Y-15281000D02*
X3750500Y-15386000D01*
X3803000Y-15281000D02*
X3803000Y-15386000D01*
X3750500Y-15333500D02*
X3855500Y-15333500D01*
X3750500Y-15535000D02*
X3855500Y-15640000D01*
X3855500Y-15535000D02*
X3750500Y-15640000D01*
X3803000Y-15535000D02*
X3803000Y-15640000D01*
X3750500Y-15587500D02*
X3855500Y-15587500D01*
X4004500Y-15281000D02*
X4109500Y-15386000D01*
X4109500Y-15281000D02*
X4004500Y-15386000D01*
X4057000Y-15281000D02*
X4057000Y-15386000D01*
X4004500Y-15333500D02*
X4109500Y-15333500D01*
X4004500Y-15535000D02*
X4109500Y-15640000D01*
X4109500Y-15535000D02*
X4004500Y-15640000D01*
X4057000Y-15535000D02*
X4057000Y-15640000D01*
X4004500Y-15587500D02*
X4109500Y-15587500D01*
X4258500Y-15281000D02*
X4363500Y-15386000D01*
X4363500Y-15281000D02*
X4258500Y-15386000D01*
X4311000Y-15281000D02*
X4311000Y-15386000D01*
X4258500Y-15333500D02*
X4363500Y-15333500D01*
X4258500Y-15535000D02*
X4363500Y-15640000D01*
X4363500Y-15535000D02*
X4258500Y-15640000D01*
X4311000Y-15535000D02*
X4311000Y-15640000D01*
X4258500Y-15587500D02*
X4363500Y-15587500D01*
X4512500Y-15281000D02*
X4617500Y-15386000D01*
X4617500Y-15281000D02*
X4512500Y-15386000D01*
X4565000Y-15281000D02*
X4565000Y-15386000D01*
X4512500Y-15333500D02*
X4617500Y-15333500D01*
X4512500Y-15535000D02*
X4617500Y-15640000D01*
X4617500Y-15535000D02*
X4512500Y-15640000D01*
X4565000Y-15535000D02*
X4565000Y-15640000D01*
X4512500Y-15587500D02*
X4617500Y-15587500D01*
X4766500Y-15281000D02*
X4871500Y-15386000D01*
X4871500Y-15281000D02*
X4766500Y-15386000D01*
X4819000Y-15281000D02*
X4819000Y-15386000D01*
X4766500Y-15333500D02*
X4871500Y-15333500D01*
X4766500Y-15535000D02*
X4871500Y-15640000D01*
X4871500Y-15535000D02*
X4766500Y-15640000D01*
X4819000Y-15535000D02*
X4819000Y-15640000D01*
X4766500Y-15587500D02*
X4871500Y-15587500D01*
X5020500Y-15281000D02*
X5125500Y-15386000D01*
X5125500Y-15281000D02*
X5020500Y-15386000D01*
X5073000Y-15281000D02*
X5073000Y-15386000D01*
X5020500Y-15333500D02*
X5125500Y-15333500D01*
X5020500Y-15535000D02*
X5125500Y-15640000D01*
X5125500Y-15535000D02*
X5020500Y-15640000D01*
X5073000Y-15535000D02*
X5073000Y-15640000D01*
X5020500Y-15587500D02*
X5125500Y-15587500D01*
X5274500Y-15281000D02*
X5379500Y-15386000D01*
X5379500Y-15281000D02*
X5274500Y-15386000D01*
X5327000Y-15281000D02*
X5327000Y-15386000D01*
X5274500Y-15333500D02*
X5379500Y-15333500D01*
X5274500Y-15535000D02*
X5379500Y-15640000D01*
X5379500Y-15535000D02*
X5274500Y-15640000D01*
X5327000Y-15535000D02*
X5327000Y-15640000D01*
X5274500Y-15587500D02*
X5379500Y-15587500D01*
X5528500Y-15281000D02*
X5633500Y-15386000D01*
X5633500Y-15281000D02*
X5528500Y-15386000D01*
X5581000Y-15281000D02*
X5581000Y-15386000D01*
X5528500Y-15333500D02*
X5633500Y-15333500D01*
X5528500Y-15535000D02*
X5633500Y-15640000D01*
X5633500Y-15535000D02*
X5528500Y-15640000D01*
X5581000Y-15535000D02*
X5581000Y-15640000D01*
X5528500Y-15587500D02*
X5633500Y-15587500D01*
X5782500Y-15281000D02*
X5887500Y-15386000D01*
X5887500Y-15281000D02*
X5782500Y-15386000D01*
X5835000Y-15281000D02*
X5835000Y-15386000D01*
X5782500Y-15333500D02*
X5887500Y-15333500D01*
X5782500Y-15535000D02*
X5887500Y-15640000D01*
X5887500Y-15535000D02*
X5782500Y-15640000D01*
X5835000Y-15535000D02*
X5835000Y-15640000D01*
X5782500Y-15587500D02*
X5887500Y-15587500D01*
X6036500Y-15281000D02*
X6141500Y-15386000D01*
X6141500Y-15281000D02*
X6036500Y-15386000D01*
X6089000Y-15281000D02*
X6089000Y-15386000D01*
X6036500Y-15333500D02*
X6141500Y-15333500D01*
X6036500Y-15535000D02*
X6141500Y-15640000D01*
X6141500Y-15535000D02*
X6036500Y-15640000D01*
X6089000Y-15535000D02*
X6089000Y-15640000D01*
X6036500Y-15587500D02*
X6141500Y-15587500D01*
X6290500Y-15281000D02*
X6395500Y-15386000D01*
X6395500Y-15281000D02*
X6290500Y-15386000D01*
X6343000Y-15281000D02*
X6343000Y-15386000D01*
X6290500Y-15333500D02*
X6395500Y-15333500D01*
X6290500Y-15535000D02*
X6395500Y-15640000D01*
X6395500Y-15535000D02*
X6290500Y-15640000D01*
X6343000Y-15535000D02*
X6343000Y-15640000D01*
X6290500Y-15587500D02*
X6395500Y-15587500D01*
X6544500Y-15281000D02*
X6649500Y-15386000D01*
X6649500Y-15281000D02*
X6544500Y-15386000D01*
X6597000Y-15281000D02*
X6597000Y-15386000D01*
X6544500Y-15333500D02*
X6649500Y-15333500D01*
X6544500Y-15535000D02*
X6649500Y-15640000D01*
X6649500Y-15535000D02*
X6544500Y-15640000D01*
X6597000Y-15535000D02*
X6597000Y-15640000D01*
X6544500Y-15587500D02*
X6649500Y-15587500D01*
X6798500Y-15281000D02*
X6903500Y-15386000D01*
X6903500Y-15281000D02*
X6798500Y-15386000D01*
X6851000Y-15281000D02*
X6851000Y-15386000D01*
X6798500Y-15333500D02*
X6903500Y-15333500D01*
X6798500Y-15535000D02*
X6903500Y-15640000D01*
X6903500Y-15535000D02*
X6798500Y-15640000D01*
X6851000Y-15535000D02*
X6851000Y-15640000D01*
X6798500Y-15587500D02*
X6903500Y-15587500D01*
X7052500Y-15281000D02*
X7157500Y-15386000D01*
X7157500Y-15281000D02*
X7052500Y-15386000D01*
X7105000Y-15281000D02*
X7105000Y-15386000D01*
X7052500Y-15333500D02*
X7157500Y-15333500D01*
X7052500Y-15535000D02*
X7157500Y-15640000D01*
X7157500Y-15535000D02*
X7052500Y-15640000D01*
X7105000Y-15535000D02*
X7105000Y-15640000D01*
X7052500Y-15587500D02*
X7157500Y-15587500D01*
X7306500Y-15281000D02*
X7411500Y-15386000D01*
X7411500Y-15281000D02*
X7306500Y-15386000D01*
X7359000Y-15281000D02*
X7359000Y-15386000D01*
X7306500Y-15333500D02*
X7411500Y-15333500D01*
X7306500Y-15535000D02*
X7411500Y-15640000D01*
X7411500Y-15535000D02*
X7306500Y-15640000D01*
X7359000Y-15535000D02*
X7359000Y-15640000D01*
X7306500Y-15587500D02*
X7411500Y-15587500D01*
X7560500Y-15281000D02*
X7665500Y-15386000D01*
X7665500Y-15281000D02*
X7560500Y-15386000D01*
X7613000Y-15281000D02*
X7613000Y-15386000D01*
X7560500Y-15333500D02*
X7665500Y-15333500D01*
X7560500Y-15535000D02*
X7665500Y-15640000D01*
X7665500Y-15535000D02*
X7560500Y-15640000D01*
X7613000Y-15535000D02*
X7613000Y-15640000D01*
X7560500Y-15587500D02*
X7665500Y-15587500D01*
D17*
X5183000Y-8145000D02*
X5293000Y-8255000D01*
X5293000Y-8145000D02*
X5183000Y-8255000D01*
X5276891Y-8238891D02*
X5276891Y-8161109D01*
X5199109Y-8161109D01*
X5199109Y-8238891D01*
X5276891Y-8238891D01*
X5437000Y-8145000D02*
X5547000Y-8255000D01*
X5547000Y-8145000D02*
X5437000Y-8255000D01*
X5530891Y-8238891D02*
X5530891Y-8161109D01*
X5453109Y-8161109D01*
X5453109Y-8238891D01*
X5530891Y-8238891D01*
X5691000Y-8145000D02*
X5801000Y-8255000D01*
X5801000Y-8145000D02*
X5691000Y-8255000D01*
X5784891Y-8238891D02*
X5784891Y-8161109D01*
X5707109Y-8161109D01*
X5707109Y-8238891D01*
X5784891Y-8238891D01*
X5945000Y-8145000D02*
X6055000Y-8255000D01*
X6055000Y-8145000D02*
X5945000Y-8255000D01*
X6038891Y-8238891D02*
X6038891Y-8161109D01*
X5961109Y-8161109D01*
X5961109Y-8238891D01*
X6038891Y-8238891D01*
X6199000Y-8145000D02*
X6309000Y-8255000D01*
X6309000Y-8145000D02*
X6199000Y-8255000D01*
X6292891Y-8238891D02*
X6292891Y-8161109D01*
X6215109Y-8161109D01*
X6215109Y-8238891D01*
X6292891Y-8238891D01*
X6453000Y-8145000D02*
X6563000Y-8255000D01*
X6563000Y-8145000D02*
X6453000Y-8255000D01*
X6546891Y-8238891D02*
X6546891Y-8161109D01*
X6469109Y-8161109D01*
X6469109Y-8238891D01*
X6546891Y-8238891D01*
X6707000Y-8145000D02*
X6817000Y-8255000D01*
X6817000Y-8145000D02*
X6707000Y-8255000D01*
X6800891Y-8238891D02*
X6800891Y-8161109D01*
X6723109Y-8161109D01*
X6723109Y-8238891D01*
X6800891Y-8238891D01*
X7303000Y-14340000D02*
X7413000Y-14450000D01*
X7413000Y-14340000D02*
X7303000Y-14450000D01*
X7396891Y-14433891D02*
X7396891Y-14356109D01*
X7319109Y-14356109D01*
X7319109Y-14433891D01*
X7396891Y-14433891D01*
X7557000Y-14340000D02*
X7667000Y-14450000D01*
X7667000Y-14340000D02*
X7557000Y-14450000D01*
X7650891Y-14433891D02*
X7650891Y-14356109D01*
X7573109Y-14356109D01*
X7573109Y-14433891D01*
X7650891Y-14433891D01*
X8665000Y-12274000D02*
X8775000Y-12384000D01*
X8775000Y-12274000D02*
X8665000Y-12384000D01*
X8758891Y-12367891D02*
X8758891Y-12290109D01*
X8681109Y-12290109D01*
X8681109Y-12367891D01*
X8758891Y-12367891D01*
X8665000Y-12528000D02*
X8775000Y-12638000D01*
X8775000Y-12528000D02*
X8665000Y-12638000D01*
X8758891Y-12621891D02*
X8758891Y-12544109D01*
X8681109Y-12544109D01*
X8681109Y-12621891D01*
X8758891Y-12621891D01*
X8665000Y-12782000D02*
X8775000Y-12892000D01*
X8775000Y-12782000D02*
X8665000Y-12892000D01*
X8758891Y-12875891D02*
X8758891Y-12798109D01*
X8681109Y-12798109D01*
X8681109Y-12875891D01*
X8758891Y-12875891D01*
X9041000Y-12340000D02*
X9151000Y-12450000D01*
X9151000Y-12340000D02*
X9041000Y-12450000D01*
X9134891Y-12433891D02*
X9134891Y-12356109D01*
X9057109Y-12356109D01*
X9057109Y-12433891D01*
X9134891Y-12433891D01*
X9295000Y-12340000D02*
X9405000Y-12450000D01*
X9405000Y-12340000D02*
X9295000Y-12450000D01*
X9388891Y-12433891D02*
X9388891Y-12356109D01*
X9311109Y-12356109D01*
X9311109Y-12433891D01*
X9388891Y-12433891D01*
X9549000Y-12340000D02*
X9659000Y-12450000D01*
X9659000Y-12340000D02*
X9549000Y-12450000D01*
X9642891Y-12433891D02*
X9642891Y-12356109D01*
X9565109Y-12356109D01*
X9565109Y-12433891D01*
X9642891Y-12433891D01*
D18*
X8190000Y-6890000D02*
X8310000Y-7010000D01*
X8310000Y-6890000D02*
X8190000Y-7010000D01*
X8250000Y-7010000D02*
X8310000Y-6950000D01*
X8250000Y-6890000D01*
X8190000Y-6950000D01*
X8250000Y-7010000D01*
X8190000Y-7390000D02*
X8310000Y-7510000D01*
X8310000Y-7390000D02*
X8190000Y-7510000D01*
X8250000Y-7510000D02*
X8310000Y-7450000D01*
X8250000Y-7390000D01*
X8190000Y-7450000D01*
X8250000Y-7510000D01*
X8690000Y-6890000D02*
X8810000Y-7010000D01*
X8810000Y-6890000D02*
X8690000Y-7010000D01*
X8750000Y-7010000D02*
X8810000Y-6950000D01*
X8750000Y-6890000D01*
X8690000Y-6950000D01*
X8750000Y-7010000D01*
X8690000Y-7390000D02*
X8810000Y-7510000D01*
X8810000Y-7390000D02*
X8690000Y-7510000D01*
X8750000Y-7510000D02*
X8810000Y-7450000D01*
X8750000Y-7390000D01*
X8690000Y-7450000D01*
X8750000Y-7510000D01*
D19*
X2930000Y-7110000D02*
X2930000Y-7290000D01*
X2840000Y-7200000D02*
X3020000Y-7200000D01*
X3020000Y-7200000D02*
G75*
G03*
X3020000Y-7200000I-90000J0D01*
G01*
D10*
X2840000Y-7160000D02*
X2840000Y-7240000D01*
X3020000Y-7160000D02*
X3020000Y-7240000D01*
X2840000Y-7240000D02*
G75*
G03*
X3020000Y-7240000I90000J0D01*
G01*
X3020000Y-7160000D02*
G75*
G03*
X2840000Y-7160000I-90000J0D01*
G01*
D19*
X4070000Y-7110000D02*
X4070000Y-7290000D01*
X3980000Y-7200000D02*
X4160000Y-7200000D01*
X4160000Y-7200000D02*
G75*
G03*
X4160000Y-7200000I-90000J0D01*
G01*
D10*
X3980000Y-7160000D02*
X3980000Y-7240000D01*
X4160000Y-7160000D02*
X4160000Y-7240000D01*
X3980000Y-7240000D02*
G75*
G03*
X4160000Y-7240000I90000J0D01*
G01*
X4160000Y-7160000D02*
G75*
G03*
X3980000Y-7160000I-90000J0D01*
G01*
X2247619Y-16320476D02*
X2247619Y-16120476D01*
X2295238Y-16120476D01*
X2323810Y-16130000D01*
X2342857Y-16149048D01*
X2352381Y-16168095D01*
X2361905Y-16206190D01*
X2361905Y-16234762D01*
X2352381Y-16272857D01*
X2342857Y-16291905D01*
X2323810Y-16310952D01*
X2295238Y-16320476D01*
X2247619Y-16320476D01*
X2447619Y-16320476D02*
X2447619Y-16187143D01*
X2447619Y-16225238D02*
X2457143Y-16206190D01*
X2466667Y-16196667D01*
X2485714Y-16187143D01*
X2504762Y-16187143D01*
X2571429Y-16320476D02*
X2571429Y-16187143D01*
X2571429Y-16120476D02*
X2561905Y-16130000D01*
X2571429Y-16139524D01*
X2580952Y-16130000D01*
X2571429Y-16120476D01*
X2571429Y-16139524D01*
X2695238Y-16320476D02*
X2676190Y-16310952D01*
X2666667Y-16291905D01*
X2666667Y-16120476D01*
X2800000Y-16320476D02*
X2780952Y-16310952D01*
X2771429Y-16291905D01*
X2771429Y-16120476D01*
X3028571Y-16320476D02*
X3028571Y-16120476D01*
X3095238Y-16263333D01*
X3161905Y-16120476D01*
X3161905Y-16320476D01*
X3342857Y-16320476D02*
X3342857Y-16215714D01*
X3333333Y-16196667D01*
X3314286Y-16187143D01*
X3276190Y-16187143D01*
X3257143Y-16196667D01*
X3342857Y-16310952D02*
X3323809Y-16320476D01*
X3276190Y-16320476D01*
X3257143Y-16310952D01*
X3247619Y-16291905D01*
X3247619Y-16272857D01*
X3257143Y-16253809D01*
X3276190Y-16244286D01*
X3323809Y-16244286D01*
X3342857Y-16234762D01*
X3438095Y-16187143D02*
X3438095Y-16387143D01*
X3438095Y-16196667D02*
X3457143Y-16187143D01*
X3495238Y-16187143D01*
X3514286Y-16196667D01*
X3523809Y-16206190D01*
X3533333Y-16225238D01*
X3533333Y-16282381D01*
X3523809Y-16301428D01*
X3514286Y-16310952D01*
X3495238Y-16320476D01*
X3457143Y-16320476D01*
X3438095Y-16310952D01*
X3619048Y-16301428D02*
X3628571Y-16310952D01*
X3619048Y-16320476D01*
X3609524Y-16310952D01*
X3619048Y-16301428D01*
X3619048Y-16320476D01*
X3619048Y-16196667D02*
X3628571Y-16206190D01*
X3619048Y-16215714D01*
X3609524Y-16206190D01*
X3619048Y-16196667D01*
X3619048Y-16215714D01*
D11*
X1950000Y-16630000D02*
X1990000Y-16670000D01*
X1990000Y-16630000D02*
X1950000Y-16670000D01*
D10*
X2285714Y-16540476D02*
X2304762Y-16540476D01*
X2323810Y-16550000D01*
X2333333Y-16559524D01*
X2342857Y-16578571D01*
X2352381Y-16616667D01*
X2352381Y-16664286D01*
X2342857Y-16702381D01*
X2333333Y-16721428D01*
X2323810Y-16730952D01*
X2304762Y-16740476D01*
X2285714Y-16740476D01*
X2266667Y-16730952D01*
X2257143Y-16721428D01*
X2247619Y-16702381D01*
X2238095Y-16664286D01*
X2238095Y-16616667D01*
X2247619Y-16578571D01*
X2257143Y-16559524D01*
X2266667Y-16550000D01*
X2285714Y-16540476D01*
X2438095Y-16721428D02*
X2447619Y-16730952D01*
X2438095Y-16740476D01*
X2428571Y-16730952D01*
X2438095Y-16721428D01*
X2438095Y-16740476D01*
X2619048Y-16607143D02*
X2619048Y-16740476D01*
X2571429Y-16530952D02*
X2523810Y-16673809D01*
X2647619Y-16673809D01*
X2761905Y-16540476D02*
X2780952Y-16540476D01*
X2800000Y-16550000D01*
X2809524Y-16559524D01*
X2819048Y-16578571D01*
X2828571Y-16616667D01*
X2828571Y-16664286D01*
X2819048Y-16702381D01*
X2809524Y-16721428D01*
X2800000Y-16730952D01*
X2780952Y-16740476D01*
X2761905Y-16740476D01*
X2742857Y-16730952D01*
X2733333Y-16721428D01*
X2723810Y-16702381D01*
X2714286Y-16664286D01*
X2714286Y-16616667D01*
X2723810Y-16578571D01*
X2733333Y-16559524D01*
X2742857Y-16550000D01*
X2761905Y-16540476D01*
X2952381Y-16540476D02*
X2971428Y-16540476D01*
X2990476Y-16550000D01*
X3000000Y-16559524D01*
X3009524Y-16578571D01*
X3019048Y-16616667D01*
X3019048Y-16664286D01*
X3009524Y-16702381D01*
X3000000Y-16721428D01*
X2990476Y-16730952D01*
X2971428Y-16740476D01*
X2952381Y-16740476D01*
X2933333Y-16730952D01*
X2923809Y-16721428D01*
X2914286Y-16702381D01*
X2904762Y-16664286D01*
X2904762Y-16616667D01*
X2914286Y-16578571D01*
X2923809Y-16559524D01*
X2933333Y-16550000D01*
X2952381Y-16540476D01*
X3104762Y-16740476D02*
X3104762Y-16607143D01*
X3104762Y-16626190D02*
X3114286Y-16616667D01*
X3133333Y-16607143D01*
X3161905Y-16607143D01*
X3180952Y-16616667D01*
X3190476Y-16635714D01*
X3190476Y-16740476D01*
X3190476Y-16635714D02*
X3200000Y-16616667D01*
X3219048Y-16607143D01*
X3247619Y-16607143D01*
X3266667Y-16616667D01*
X3276190Y-16635714D01*
X3276190Y-16740476D01*
X3371428Y-16740476D02*
X3371428Y-16607143D01*
X3371428Y-16626190D02*
X3380952Y-16616667D01*
X3400000Y-16607143D01*
X3428571Y-16607143D01*
X3447619Y-16616667D01*
X3457143Y-16635714D01*
X3457143Y-16740476D01*
X3457143Y-16635714D02*
X3466667Y-16616667D01*
X3485714Y-16607143D01*
X3514286Y-16607143D01*
X3533333Y-16616667D01*
X3542857Y-16635714D01*
X3542857Y-16740476D01*
X3933333Y-16530952D02*
X3761905Y-16788095D01*
X4190476Y-16540476D02*
X4209524Y-16540476D01*
X4228571Y-16550000D01*
X4238095Y-16559524D01*
X4247619Y-16578571D01*
X4257143Y-16616667D01*
X4257143Y-16664286D01*
X4247619Y-16702381D01*
X4238095Y-16721428D01*
X4228571Y-16730952D01*
X4209524Y-16740476D01*
X4190476Y-16740476D01*
X4171428Y-16730952D01*
X4161905Y-16721428D01*
X4152381Y-16702381D01*
X4142857Y-16664286D01*
X4142857Y-16616667D01*
X4152381Y-16578571D01*
X4161905Y-16559524D01*
X4171428Y-16550000D01*
X4190476Y-16540476D01*
X4342857Y-16721428D02*
X4352381Y-16730952D01*
X4342857Y-16740476D01*
X4333333Y-16730952D01*
X4342857Y-16721428D01*
X4342857Y-16740476D01*
X4476190Y-16540476D02*
X4495238Y-16540476D01*
X4514286Y-16550000D01*
X4523810Y-16559524D01*
X4533333Y-16578571D01*
X4542857Y-16616667D01*
X4542857Y-16664286D01*
X4533333Y-16702381D01*
X4523810Y-16721428D01*
X4514286Y-16730952D01*
X4495238Y-16740476D01*
X4476190Y-16740476D01*
X4457143Y-16730952D01*
X4447619Y-16721428D01*
X4438095Y-16702381D01*
X4428571Y-16664286D01*
X4428571Y-16616667D01*
X4438095Y-16578571D01*
X4447619Y-16559524D01*
X4457143Y-16550000D01*
X4476190Y-16540476D01*
X4733333Y-16740476D02*
X4619048Y-16740476D01*
X4676190Y-16740476D02*
X4676190Y-16540476D01*
X4657143Y-16569048D01*
X4638095Y-16588095D01*
X4619048Y-16597619D01*
X4914286Y-16540476D02*
X4819048Y-16540476D01*
X4809524Y-16635714D01*
X4819048Y-16626190D01*
X4838095Y-16616667D01*
X4885714Y-16616667D01*
X4904762Y-16626190D01*
X4914286Y-16635714D01*
X4923810Y-16654762D01*
X4923810Y-16702381D01*
X4914286Y-16721428D01*
X4904762Y-16730952D01*
X4885714Y-16740476D01*
X4838095Y-16740476D01*
X4819048Y-16730952D01*
X4809524Y-16721428D01*
X4990476Y-16540476D02*
X5123810Y-16540476D01*
X5038095Y-16740476D01*
X5190476Y-16540476D02*
X5190476Y-16578571D01*
X5266667Y-16540476D02*
X5266667Y-16578571D01*
X5561905Y-16816667D02*
X5552381Y-16807143D01*
X5533333Y-16778571D01*
X5523810Y-16759524D01*
X5514286Y-16730952D01*
X5504762Y-16683333D01*
X5504762Y-16645238D01*
X5514286Y-16597619D01*
X5523810Y-16569048D01*
X5533333Y-16550000D01*
X5552381Y-16521428D01*
X5561905Y-16511905D01*
X5742857Y-16740476D02*
X5628571Y-16740476D01*
X5685714Y-16740476D02*
X5685714Y-16540476D01*
X5666667Y-16569048D01*
X5647619Y-16588095D01*
X5628571Y-16597619D01*
X5857143Y-16626190D02*
X5838095Y-16616667D01*
X5828571Y-16607143D01*
X5819048Y-16588095D01*
X5819048Y-16578571D01*
X5828571Y-16559524D01*
X5838095Y-16550000D01*
X5857143Y-16540476D01*
X5895238Y-16540476D01*
X5914286Y-16550000D01*
X5923809Y-16559524D01*
X5933333Y-16578571D01*
X5933333Y-16588095D01*
X5923809Y-16607143D01*
X5914286Y-16616667D01*
X5895238Y-16626190D01*
X5857143Y-16626190D01*
X5838095Y-16635714D01*
X5828571Y-16645238D01*
X5819048Y-16664286D01*
X5819048Y-16702381D01*
X5828571Y-16721428D01*
X5838095Y-16730952D01*
X5857143Y-16740476D01*
X5895238Y-16740476D01*
X5914286Y-16730952D01*
X5923809Y-16721428D01*
X5933333Y-16702381D01*
X5933333Y-16664286D01*
X5923809Y-16645238D01*
X5914286Y-16635714D01*
X5895238Y-16626190D01*
X6104762Y-16607143D02*
X6104762Y-16740476D01*
X6057143Y-16530952D02*
X6009524Y-16673809D01*
X6133333Y-16673809D01*
X6361905Y-16740476D02*
X6361905Y-16540476D01*
X6447619Y-16740476D02*
X6447619Y-16635714D01*
X6438095Y-16616667D01*
X6419048Y-16607143D01*
X6390476Y-16607143D01*
X6371428Y-16616667D01*
X6361905Y-16626190D01*
X6571428Y-16740476D02*
X6552381Y-16730952D01*
X6542857Y-16721428D01*
X6533333Y-16702381D01*
X6533333Y-16645238D01*
X6542857Y-16626190D01*
X6552381Y-16616667D01*
X6571428Y-16607143D01*
X6600000Y-16607143D01*
X6619048Y-16616667D01*
X6628571Y-16626190D01*
X6638095Y-16645238D01*
X6638095Y-16702381D01*
X6628571Y-16721428D01*
X6619048Y-16730952D01*
X6600000Y-16740476D01*
X6571428Y-16740476D01*
X6752381Y-16740476D02*
X6733333Y-16730952D01*
X6723809Y-16711905D01*
X6723809Y-16540476D01*
X6904762Y-16730952D02*
X6885714Y-16740476D01*
X6847619Y-16740476D01*
X6828571Y-16730952D01*
X6819048Y-16711905D01*
X6819048Y-16635714D01*
X6828571Y-16616667D01*
X6847619Y-16607143D01*
X6885714Y-16607143D01*
X6904762Y-16616667D01*
X6914286Y-16635714D01*
X6914286Y-16654762D01*
X6819048Y-16673809D01*
X6990476Y-16730952D02*
X7009524Y-16740476D01*
X7047619Y-16740476D01*
X7066667Y-16730952D01*
X7076190Y-16711905D01*
X7076190Y-16702381D01*
X7066667Y-16683333D01*
X7047619Y-16673809D01*
X7019048Y-16673809D01*
X7000000Y-16664286D01*
X6990476Y-16645238D01*
X6990476Y-16635714D01*
X7000000Y-16616667D01*
X7019048Y-16607143D01*
X7047619Y-16607143D01*
X7066667Y-16616667D01*
X7142857Y-16816667D02*
X7152381Y-16807143D01*
X7171428Y-16778571D01*
X7180952Y-16759524D01*
X7190476Y-16730952D01*
X7200000Y-16683333D01*
X7200000Y-16645238D01*
X7190476Y-16597619D01*
X7180952Y-16569048D01*
X7171428Y-16550000D01*
X7152381Y-16521428D01*
X7142857Y-16511905D01*
D11*
X1990000Y-16914000D02*
G75*
G03*
X1990000Y-16914000I-20000J0D01*
G01*
D10*
X2285714Y-16804476D02*
X2304762Y-16804476D01*
X2323810Y-16814000D01*
X2333333Y-16823524D01*
X2342857Y-16842571D01*
X2352381Y-16880667D01*
X2352381Y-16928286D01*
X2342857Y-16966381D01*
X2333333Y-16985429D01*
X2323810Y-16994952D01*
X2304762Y-17004476D01*
X2285714Y-17004476D01*
X2266667Y-16994952D01*
X2257143Y-16985429D01*
X2247619Y-16966381D01*
X2238095Y-16928286D01*
X2238095Y-16880667D01*
X2247619Y-16842571D01*
X2257143Y-16823524D01*
X2266667Y-16814000D01*
X2285714Y-16804476D01*
X2438095Y-16985429D02*
X2447619Y-16994952D01*
X2438095Y-17004476D01*
X2428571Y-16994952D01*
X2438095Y-16985429D01*
X2438095Y-17004476D01*
X2619048Y-16871143D02*
X2619048Y-17004476D01*
X2571429Y-16794952D02*
X2523810Y-16937810D01*
X2647619Y-16937810D01*
X2761905Y-16804476D02*
X2780952Y-16804476D01*
X2800000Y-16814000D01*
X2809524Y-16823524D01*
X2819048Y-16842571D01*
X2828571Y-16880667D01*
X2828571Y-16928286D01*
X2819048Y-16966381D01*
X2809524Y-16985429D01*
X2800000Y-16994952D01*
X2780952Y-17004476D01*
X2761905Y-17004476D01*
X2742857Y-16994952D01*
X2733333Y-16985429D01*
X2723810Y-16966381D01*
X2714286Y-16928286D01*
X2714286Y-16880667D01*
X2723810Y-16842571D01*
X2733333Y-16823524D01*
X2742857Y-16814000D01*
X2761905Y-16804476D01*
X2952381Y-16804476D02*
X2971428Y-16804476D01*
X2990476Y-16814000D01*
X3000000Y-16823524D01*
X3009524Y-16842571D01*
X3019048Y-16880667D01*
X3019048Y-16928286D01*
X3009524Y-16966381D01*
X3000000Y-16985429D01*
X2990476Y-16994952D01*
X2971428Y-17004476D01*
X2952381Y-17004476D01*
X2933333Y-16994952D01*
X2923809Y-16985429D01*
X2914286Y-16966381D01*
X2904762Y-16928286D01*
X2904762Y-16880667D01*
X2914286Y-16842571D01*
X2923809Y-16823524D01*
X2933333Y-16814000D01*
X2952381Y-16804476D01*
X3104762Y-17004476D02*
X3104762Y-16871143D01*
X3104762Y-16890190D02*
X3114286Y-16880667D01*
X3133333Y-16871143D01*
X3161905Y-16871143D01*
X3180952Y-16880667D01*
X3190476Y-16899714D01*
X3190476Y-17004476D01*
X3190476Y-16899714D02*
X3200000Y-16880667D01*
X3219048Y-16871143D01*
X3247619Y-16871143D01*
X3266667Y-16880667D01*
X3276190Y-16899714D01*
X3276190Y-17004476D01*
X3371428Y-17004476D02*
X3371428Y-16871143D01*
X3371428Y-16890190D02*
X3380952Y-16880667D01*
X3400000Y-16871143D01*
X3428571Y-16871143D01*
X3447619Y-16880667D01*
X3457143Y-16899714D01*
X3457143Y-17004476D01*
X3457143Y-16899714D02*
X3466667Y-16880667D01*
X3485714Y-16871143D01*
X3514286Y-16871143D01*
X3533333Y-16880667D01*
X3542857Y-16899714D01*
X3542857Y-17004476D01*
X3933333Y-16794952D02*
X3761905Y-17052095D01*
X4190476Y-16804476D02*
X4209524Y-16804476D01*
X4228571Y-16814000D01*
X4238095Y-16823524D01*
X4247619Y-16842571D01*
X4257143Y-16880667D01*
X4257143Y-16928286D01*
X4247619Y-16966381D01*
X4238095Y-16985429D01*
X4228571Y-16994952D01*
X4209524Y-17004476D01*
X4190476Y-17004476D01*
X4171428Y-16994952D01*
X4161905Y-16985429D01*
X4152381Y-16966381D01*
X4142857Y-16928286D01*
X4142857Y-16880667D01*
X4152381Y-16842571D01*
X4161905Y-16823524D01*
X4171428Y-16814000D01*
X4190476Y-16804476D01*
X4342857Y-16985429D02*
X4352381Y-16994952D01*
X4342857Y-17004476D01*
X4333333Y-16994952D01*
X4342857Y-16985429D01*
X4342857Y-17004476D01*
X4476190Y-16804476D02*
X4495238Y-16804476D01*
X4514286Y-16814000D01*
X4523810Y-16823524D01*
X4533333Y-16842571D01*
X4542857Y-16880667D01*
X4542857Y-16928286D01*
X4533333Y-16966381D01*
X4523810Y-16985429D01*
X4514286Y-16994952D01*
X4495238Y-17004476D01*
X4476190Y-17004476D01*
X4457143Y-16994952D01*
X4447619Y-16985429D01*
X4438095Y-16966381D01*
X4428571Y-16928286D01*
X4428571Y-16880667D01*
X4438095Y-16842571D01*
X4447619Y-16823524D01*
X4457143Y-16814000D01*
X4476190Y-16804476D01*
X4733333Y-17004476D02*
X4619048Y-17004476D01*
X4676190Y-17004476D02*
X4676190Y-16804476D01*
X4657143Y-16833048D01*
X4638095Y-16852095D01*
X4619048Y-16861619D01*
X4914286Y-16804476D02*
X4819048Y-16804476D01*
X4809524Y-16899714D01*
X4819048Y-16890190D01*
X4838095Y-16880667D01*
X4885714Y-16880667D01*
X4904762Y-16890190D01*
X4914286Y-16899714D01*
X4923810Y-16918762D01*
X4923810Y-16966381D01*
X4914286Y-16985429D01*
X4904762Y-16994952D01*
X4885714Y-17004476D01*
X4838095Y-17004476D01*
X4819048Y-16994952D01*
X4809524Y-16985429D01*
X4990476Y-16804476D02*
X5123810Y-16804476D01*
X5038095Y-17004476D01*
X5190476Y-16804476D02*
X5190476Y-16842571D01*
X5266667Y-16804476D02*
X5266667Y-16842571D01*
X5561905Y-17080667D02*
X5552381Y-17071143D01*
X5533333Y-17042571D01*
X5523810Y-17023524D01*
X5514286Y-16994952D01*
X5504762Y-16947333D01*
X5504762Y-16909238D01*
X5514286Y-16861619D01*
X5523810Y-16833048D01*
X5533333Y-16814000D01*
X5552381Y-16785429D01*
X5561905Y-16775905D01*
X5742857Y-17004476D02*
X5628571Y-17004476D01*
X5685714Y-17004476D02*
X5685714Y-16804476D01*
X5666667Y-16833048D01*
X5647619Y-16852095D01*
X5628571Y-16861619D01*
X5819048Y-16823524D02*
X5828571Y-16814000D01*
X5847619Y-16804476D01*
X5895238Y-16804476D01*
X5914286Y-16814000D01*
X5923809Y-16823524D01*
X5933333Y-16842571D01*
X5933333Y-16861619D01*
X5923809Y-16890190D01*
X5809524Y-17004476D01*
X5933333Y-17004476D01*
X6171428Y-17004476D02*
X6171428Y-16804476D01*
X6257143Y-17004476D02*
X6257143Y-16899714D01*
X6247619Y-16880667D01*
X6228571Y-16871143D01*
X6200000Y-16871143D01*
X6180952Y-16880667D01*
X6171428Y-16890190D01*
X6380952Y-17004476D02*
X6361905Y-16994952D01*
X6352381Y-16985429D01*
X6342857Y-16966381D01*
X6342857Y-16909238D01*
X6352381Y-16890190D01*
X6361905Y-16880667D01*
X6380952Y-16871143D01*
X6409524Y-16871143D01*
X6428571Y-16880667D01*
X6438095Y-16890190D01*
X6447619Y-16909238D01*
X6447619Y-16966381D01*
X6438095Y-16985429D01*
X6428571Y-16994952D01*
X6409524Y-17004476D01*
X6380952Y-17004476D01*
X6561905Y-17004476D02*
X6542857Y-16994952D01*
X6533333Y-16975905D01*
X6533333Y-16804476D01*
X6714286Y-16994952D02*
X6695238Y-17004476D01*
X6657143Y-17004476D01*
X6638095Y-16994952D01*
X6628571Y-16975905D01*
X6628571Y-16899714D01*
X6638095Y-16880667D01*
X6657143Y-16871143D01*
X6695238Y-16871143D01*
X6714286Y-16880667D01*
X6723809Y-16899714D01*
X6723809Y-16918762D01*
X6628571Y-16937810D01*
X6800000Y-16994952D02*
X6819048Y-17004476D01*
X6857143Y-17004476D01*
X6876190Y-16994952D01*
X6885714Y-16975905D01*
X6885714Y-16966381D01*
X6876190Y-16947333D01*
X6857143Y-16937810D01*
X6828571Y-16937810D01*
X6809524Y-16928286D01*
X6800000Y-16909238D01*
X6800000Y-16899714D01*
X6809524Y-16880667D01*
X6828571Y-16871143D01*
X6857143Y-16871143D01*
X6876190Y-16880667D01*
X6952381Y-17080667D02*
X6961905Y-17071143D01*
X6980952Y-17042571D01*
X6990476Y-17023524D01*
X7000000Y-16994952D01*
X7009524Y-16947333D01*
X7009524Y-16909238D01*
X7000000Y-16861619D01*
X6990476Y-16833048D01*
X6980952Y-16814000D01*
X6961905Y-16785429D01*
X6952381Y-16775905D01*
D12*
X1960000Y-17148000D02*
X1960000Y-17208000D01*
X1930000Y-17178000D02*
X1990000Y-17178000D01*
D10*
X2285714Y-17068476D02*
X2304762Y-17068476D01*
X2323810Y-17078000D01*
X2333333Y-17087524D01*
X2342857Y-17106571D01*
X2352381Y-17144667D01*
X2352381Y-17192286D01*
X2342857Y-17230381D01*
X2333333Y-17249429D01*
X2323810Y-17258952D01*
X2304762Y-17268476D01*
X2285714Y-17268476D01*
X2266667Y-17258952D01*
X2257143Y-17249429D01*
X2247619Y-17230381D01*
X2238095Y-17192286D01*
X2238095Y-17144667D01*
X2247619Y-17106571D01*
X2257143Y-17087524D01*
X2266667Y-17078000D01*
X2285714Y-17068476D01*
X2438095Y-17249429D02*
X2447619Y-17258952D01*
X2438095Y-17268476D01*
X2428571Y-17258952D01*
X2438095Y-17249429D01*
X2438095Y-17268476D01*
X2619048Y-17068476D02*
X2580952Y-17068476D01*
X2561905Y-17078000D01*
X2552381Y-17087524D01*
X2533333Y-17116095D01*
X2523810Y-17154190D01*
X2523810Y-17230381D01*
X2533333Y-17249429D01*
X2542857Y-17258952D01*
X2561905Y-17268476D01*
X2600000Y-17268476D01*
X2619048Y-17258952D01*
X2628571Y-17249429D01*
X2638095Y-17230381D01*
X2638095Y-17182762D01*
X2628571Y-17163714D01*
X2619048Y-17154190D01*
X2600000Y-17144667D01*
X2561905Y-17144667D01*
X2542857Y-17154190D01*
X2533333Y-17163714D01*
X2523810Y-17182762D01*
X2761905Y-17068476D02*
X2780952Y-17068476D01*
X2800000Y-17078000D01*
X2809524Y-17087524D01*
X2819048Y-17106571D01*
X2828571Y-17144667D01*
X2828571Y-17192286D01*
X2819048Y-17230381D01*
X2809524Y-17249429D01*
X2800000Y-17258952D01*
X2780952Y-17268476D01*
X2761905Y-17268476D01*
X2742857Y-17258952D01*
X2733333Y-17249429D01*
X2723810Y-17230381D01*
X2714286Y-17192286D01*
X2714286Y-17144667D01*
X2723810Y-17106571D01*
X2733333Y-17087524D01*
X2742857Y-17078000D01*
X2761905Y-17068476D01*
X2952381Y-17068476D02*
X2971428Y-17068476D01*
X2990476Y-17078000D01*
X3000000Y-17087524D01*
X3009524Y-17106571D01*
X3019048Y-17144667D01*
X3019048Y-17192286D01*
X3009524Y-17230381D01*
X3000000Y-17249429D01*
X2990476Y-17258952D01*
X2971428Y-17268476D01*
X2952381Y-17268476D01*
X2933333Y-17258952D01*
X2923809Y-17249429D01*
X2914286Y-17230381D01*
X2904762Y-17192286D01*
X2904762Y-17144667D01*
X2914286Y-17106571D01*
X2923809Y-17087524D01*
X2933333Y-17078000D01*
X2952381Y-17068476D01*
X3104762Y-17268476D02*
X3104762Y-17135143D01*
X3104762Y-17154190D02*
X3114286Y-17144667D01*
X3133333Y-17135143D01*
X3161905Y-17135143D01*
X3180952Y-17144667D01*
X3190476Y-17163714D01*
X3190476Y-17268476D01*
X3190476Y-17163714D02*
X3200000Y-17144667D01*
X3219048Y-17135143D01*
X3247619Y-17135143D01*
X3266667Y-17144667D01*
X3276190Y-17163714D01*
X3276190Y-17268476D01*
X3371428Y-17268476D02*
X3371428Y-17135143D01*
X3371428Y-17154190D02*
X3380952Y-17144667D01*
X3400000Y-17135143D01*
X3428571Y-17135143D01*
X3447619Y-17144667D01*
X3457143Y-17163714D01*
X3457143Y-17268476D01*
X3457143Y-17163714D02*
X3466667Y-17144667D01*
X3485714Y-17135143D01*
X3514286Y-17135143D01*
X3533333Y-17144667D01*
X3542857Y-17163714D01*
X3542857Y-17268476D01*
X3933333Y-17058952D02*
X3761905Y-17316095D01*
X4190476Y-17068476D02*
X4209524Y-17068476D01*
X4228571Y-17078000D01*
X4238095Y-17087524D01*
X4247619Y-17106571D01*
X4257143Y-17144667D01*
X4257143Y-17192286D01*
X4247619Y-17230381D01*
X4238095Y-17249429D01*
X4228571Y-17258952D01*
X4209524Y-17268476D01*
X4190476Y-17268476D01*
X4171428Y-17258952D01*
X4161905Y-17249429D01*
X4152381Y-17230381D01*
X4142857Y-17192286D01*
X4142857Y-17144667D01*
X4152381Y-17106571D01*
X4161905Y-17087524D01*
X4171428Y-17078000D01*
X4190476Y-17068476D01*
X4342857Y-17249429D02*
X4352381Y-17258952D01*
X4342857Y-17268476D01*
X4333333Y-17258952D01*
X4342857Y-17249429D01*
X4342857Y-17268476D01*
X4476190Y-17068476D02*
X4495238Y-17068476D01*
X4514286Y-17078000D01*
X4523810Y-17087524D01*
X4533333Y-17106571D01*
X4542857Y-17144667D01*
X4542857Y-17192286D01*
X4533333Y-17230381D01*
X4523810Y-17249429D01*
X4514286Y-17258952D01*
X4495238Y-17268476D01*
X4476190Y-17268476D01*
X4457143Y-17258952D01*
X4447619Y-17249429D01*
X4438095Y-17230381D01*
X4428571Y-17192286D01*
X4428571Y-17144667D01*
X4438095Y-17106571D01*
X4447619Y-17087524D01*
X4457143Y-17078000D01*
X4476190Y-17068476D01*
X4619048Y-17087524D02*
X4628571Y-17078000D01*
X4647619Y-17068476D01*
X4695238Y-17068476D01*
X4714286Y-17078000D01*
X4723810Y-17087524D01*
X4733333Y-17106571D01*
X4733333Y-17125619D01*
X4723810Y-17154190D01*
X4609524Y-17268476D01*
X4733333Y-17268476D01*
X4800000Y-17068476D02*
X4923810Y-17068476D01*
X4857143Y-17144667D01*
X4885714Y-17144667D01*
X4904762Y-17154190D01*
X4914286Y-17163714D01*
X4923810Y-17182762D01*
X4923810Y-17230381D01*
X4914286Y-17249429D01*
X4904762Y-17258952D01*
X4885714Y-17268476D01*
X4828571Y-17268476D01*
X4809524Y-17258952D01*
X4800000Y-17249429D01*
X5095238Y-17068476D02*
X5057143Y-17068476D01*
X5038095Y-17078000D01*
X5028571Y-17087524D01*
X5009524Y-17116095D01*
X5000000Y-17154190D01*
X5000000Y-17230381D01*
X5009524Y-17249429D01*
X5019048Y-17258952D01*
X5038095Y-17268476D01*
X5076190Y-17268476D01*
X5095238Y-17258952D01*
X5104762Y-17249429D01*
X5114286Y-17230381D01*
X5114286Y-17182762D01*
X5104762Y-17163714D01*
X5095238Y-17154190D01*
X5076190Y-17144667D01*
X5038095Y-17144667D01*
X5019048Y-17154190D01*
X5009524Y-17163714D01*
X5000000Y-17182762D01*
X5190476Y-17068476D02*
X5190476Y-17106571D01*
X5266667Y-17068476D02*
X5266667Y-17106571D01*
X5561905Y-17344667D02*
X5552381Y-17335143D01*
X5533333Y-17306571D01*
X5523810Y-17287524D01*
X5514286Y-17258952D01*
X5504762Y-17211333D01*
X5504762Y-17173238D01*
X5514286Y-17125619D01*
X5523810Y-17097048D01*
X5533333Y-17078000D01*
X5552381Y-17049429D01*
X5561905Y-17039905D01*
X5666667Y-17154190D02*
X5647619Y-17144667D01*
X5638095Y-17135143D01*
X5628571Y-17116095D01*
X5628571Y-17106571D01*
X5638095Y-17087524D01*
X5647619Y-17078000D01*
X5666667Y-17068476D01*
X5704762Y-17068476D01*
X5723809Y-17078000D01*
X5733333Y-17087524D01*
X5742857Y-17106571D01*
X5742857Y-17116095D01*
X5733333Y-17135143D01*
X5723809Y-17144667D01*
X5704762Y-17154190D01*
X5666667Y-17154190D01*
X5647619Y-17163714D01*
X5638095Y-17173238D01*
X5628571Y-17192286D01*
X5628571Y-17230381D01*
X5638095Y-17249429D01*
X5647619Y-17258952D01*
X5666667Y-17268476D01*
X5704762Y-17268476D01*
X5723809Y-17258952D01*
X5733333Y-17249429D01*
X5742857Y-17230381D01*
X5742857Y-17192286D01*
X5733333Y-17173238D01*
X5723809Y-17163714D01*
X5704762Y-17154190D01*
X5980952Y-17268476D02*
X5980952Y-17068476D01*
X6066667Y-17268476D02*
X6066667Y-17163714D01*
X6057143Y-17144667D01*
X6038095Y-17135143D01*
X6009524Y-17135143D01*
X5990476Y-17144667D01*
X5980952Y-17154190D01*
X6190476Y-17268476D02*
X6171428Y-17258952D01*
X6161905Y-17249429D01*
X6152381Y-17230381D01*
X6152381Y-17173238D01*
X6161905Y-17154190D01*
X6171428Y-17144667D01*
X6190476Y-17135143D01*
X6219048Y-17135143D01*
X6238095Y-17144667D01*
X6247619Y-17154190D01*
X6257143Y-17173238D01*
X6257143Y-17230381D01*
X6247619Y-17249429D01*
X6238095Y-17258952D01*
X6219048Y-17268476D01*
X6190476Y-17268476D01*
X6371428Y-17268476D02*
X6352381Y-17258952D01*
X6342857Y-17239905D01*
X6342857Y-17068476D01*
X6523809Y-17258952D02*
X6504762Y-17268476D01*
X6466667Y-17268476D01*
X6447619Y-17258952D01*
X6438095Y-17239905D01*
X6438095Y-17163714D01*
X6447619Y-17144667D01*
X6466667Y-17135143D01*
X6504762Y-17135143D01*
X6523809Y-17144667D01*
X6533333Y-17163714D01*
X6533333Y-17182762D01*
X6438095Y-17201810D01*
X6609524Y-17258952D02*
X6628571Y-17268476D01*
X6666667Y-17268476D01*
X6685714Y-17258952D01*
X6695238Y-17239905D01*
X6695238Y-17230381D01*
X6685714Y-17211333D01*
X6666667Y-17201810D01*
X6638095Y-17201810D01*
X6619048Y-17192286D01*
X6609524Y-17173238D01*
X6609524Y-17163714D01*
X6619048Y-17144667D01*
X6638095Y-17135143D01*
X6666667Y-17135143D01*
X6685714Y-17144667D01*
X6933333Y-17192286D02*
X7085714Y-17192286D01*
X7009524Y-17268476D02*
X7009524Y-17116095D01*
X7323809Y-17087524D02*
X7333333Y-17078000D01*
X7352381Y-17068476D01*
X7400000Y-17068476D01*
X7419048Y-17078000D01*
X7428571Y-17087524D01*
X7438095Y-17106571D01*
X7438095Y-17125619D01*
X7428571Y-17154190D01*
X7314286Y-17268476D01*
X7438095Y-17268476D01*
X7609524Y-17135143D02*
X7609524Y-17268476D01*
X7561905Y-17058952D02*
X7514286Y-17201810D01*
X7638095Y-17201810D01*
X7857143Y-17258952D02*
X7876190Y-17268476D01*
X7914286Y-17268476D01*
X7933333Y-17258952D01*
X7942857Y-17239905D01*
X7942857Y-17230381D01*
X7933333Y-17211333D01*
X7914286Y-17201810D01*
X7885714Y-17201810D01*
X7866667Y-17192286D01*
X7857143Y-17173238D01*
X7857143Y-17163714D01*
X7866667Y-17144667D01*
X7885714Y-17135143D01*
X7914286Y-17135143D01*
X7933333Y-17144667D01*
X8057143Y-17268476D02*
X8038095Y-17258952D01*
X8028571Y-17239905D01*
X8028571Y-17068476D01*
X8161905Y-17268476D02*
X8142857Y-17258952D01*
X8133333Y-17249429D01*
X8123809Y-17230381D01*
X8123809Y-17173238D01*
X8133333Y-17154190D01*
X8142857Y-17144667D01*
X8161905Y-17135143D01*
X8190476Y-17135143D01*
X8209524Y-17144667D01*
X8219048Y-17154190D01*
X8228571Y-17173238D01*
X8228571Y-17230381D01*
X8219048Y-17249429D01*
X8209524Y-17258952D01*
X8190476Y-17268476D01*
X8161905Y-17268476D01*
X8285714Y-17135143D02*
X8361905Y-17135143D01*
X8314286Y-17068476D02*
X8314286Y-17239905D01*
X8323809Y-17258952D01*
X8342857Y-17268476D01*
X8361905Y-17268476D01*
X8419048Y-17258952D02*
X8438095Y-17268476D01*
X8476190Y-17268476D01*
X8495238Y-17258952D01*
X8504762Y-17239905D01*
X8504762Y-17230381D01*
X8495238Y-17211333D01*
X8476190Y-17201810D01*
X8447619Y-17201810D01*
X8428571Y-17192286D01*
X8419048Y-17173238D01*
X8419048Y-17163714D01*
X8428571Y-17144667D01*
X8447619Y-17135143D01*
X8476190Y-17135143D01*
X8495238Y-17144667D01*
X8571429Y-17344667D02*
X8580952Y-17335143D01*
X8600000Y-17306571D01*
X8609524Y-17287524D01*
X8619048Y-17258952D01*
X8628571Y-17211333D01*
X8628571Y-17173238D01*
X8619048Y-17125619D01*
X8609524Y-17097048D01*
X8600000Y-17078000D01*
X8580952Y-17049429D01*
X8571429Y-17039905D01*
D13*
X1978284Y-17470285D02*
X1978284Y-17413716D01*
X1921715Y-17413716D01*
X1921715Y-17470285D01*
X1978284Y-17470285D01*
D10*
X2285714Y-17332476D02*
X2304762Y-17332476D01*
X2323810Y-17342000D01*
X2333333Y-17351524D01*
X2342857Y-17370571D01*
X2352381Y-17408667D01*
X2352381Y-17456286D01*
X2342857Y-17494381D01*
X2333333Y-17513429D01*
X2323810Y-17522952D01*
X2304762Y-17532476D01*
X2285714Y-17532476D01*
X2266667Y-17522952D01*
X2257143Y-17513429D01*
X2247619Y-17494381D01*
X2238095Y-17456286D01*
X2238095Y-17408667D01*
X2247619Y-17370571D01*
X2257143Y-17351524D01*
X2266667Y-17342000D01*
X2285714Y-17332476D01*
X2438095Y-17513429D02*
X2447619Y-17522952D01*
X2438095Y-17532476D01*
X2428571Y-17522952D01*
X2438095Y-17513429D01*
X2438095Y-17532476D01*
X2561905Y-17418190D02*
X2542857Y-17408667D01*
X2533333Y-17399143D01*
X2523810Y-17380095D01*
X2523810Y-17370571D01*
X2533333Y-17351524D01*
X2542857Y-17342000D01*
X2561905Y-17332476D01*
X2600000Y-17332476D01*
X2619048Y-17342000D01*
X2628571Y-17351524D01*
X2638095Y-17370571D01*
X2638095Y-17380095D01*
X2628571Y-17399143D01*
X2619048Y-17408667D01*
X2600000Y-17418190D01*
X2561905Y-17418190D01*
X2542857Y-17427714D01*
X2533333Y-17437238D01*
X2523810Y-17456286D01*
X2523810Y-17494381D01*
X2533333Y-17513429D01*
X2542857Y-17522952D01*
X2561905Y-17532476D01*
X2600000Y-17532476D01*
X2619048Y-17522952D01*
X2628571Y-17513429D01*
X2638095Y-17494381D01*
X2638095Y-17456286D01*
X2628571Y-17437238D01*
X2619048Y-17427714D01*
X2600000Y-17418190D01*
X2761905Y-17332476D02*
X2780952Y-17332476D01*
X2800000Y-17342000D01*
X2809524Y-17351524D01*
X2819048Y-17370571D01*
X2828571Y-17408667D01*
X2828571Y-17456286D01*
X2819048Y-17494381D01*
X2809524Y-17513429D01*
X2800000Y-17522952D01*
X2780952Y-17532476D01*
X2761905Y-17532476D01*
X2742857Y-17522952D01*
X2733333Y-17513429D01*
X2723810Y-17494381D01*
X2714286Y-17456286D01*
X2714286Y-17408667D01*
X2723810Y-17370571D01*
X2733333Y-17351524D01*
X2742857Y-17342000D01*
X2761905Y-17332476D01*
X2952381Y-17332476D02*
X2971428Y-17332476D01*
X2990476Y-17342000D01*
X3000000Y-17351524D01*
X3009524Y-17370571D01*
X3019048Y-17408667D01*
X3019048Y-17456286D01*
X3009524Y-17494381D01*
X3000000Y-17513429D01*
X2990476Y-17522952D01*
X2971428Y-17532476D01*
X2952381Y-17532476D01*
X2933333Y-17522952D01*
X2923809Y-17513429D01*
X2914286Y-17494381D01*
X2904762Y-17456286D01*
X2904762Y-17408667D01*
X2914286Y-17370571D01*
X2923809Y-17351524D01*
X2933333Y-17342000D01*
X2952381Y-17332476D01*
X3104762Y-17532476D02*
X3104762Y-17399143D01*
X3104762Y-17418190D02*
X3114286Y-17408667D01*
X3133333Y-17399143D01*
X3161905Y-17399143D01*
X3180952Y-17408667D01*
X3190476Y-17427714D01*
X3190476Y-17532476D01*
X3190476Y-17427714D02*
X3200000Y-17408667D01*
X3219048Y-17399143D01*
X3247619Y-17399143D01*
X3266667Y-17408667D01*
X3276190Y-17427714D01*
X3276190Y-17532476D01*
X3371428Y-17532476D02*
X3371428Y-17399143D01*
X3371428Y-17418190D02*
X3380952Y-17408667D01*
X3400000Y-17399143D01*
X3428571Y-17399143D01*
X3447619Y-17408667D01*
X3457143Y-17427714D01*
X3457143Y-17532476D01*
X3457143Y-17427714D02*
X3466667Y-17408667D01*
X3485714Y-17399143D01*
X3514286Y-17399143D01*
X3533333Y-17408667D01*
X3542857Y-17427714D01*
X3542857Y-17532476D01*
X3933333Y-17322952D02*
X3761905Y-17580095D01*
X4190476Y-17332476D02*
X4209524Y-17332476D01*
X4228571Y-17342000D01*
X4238095Y-17351524D01*
X4247619Y-17370571D01*
X4257143Y-17408667D01*
X4257143Y-17456286D01*
X4247619Y-17494381D01*
X4238095Y-17513429D01*
X4228571Y-17522952D01*
X4209524Y-17532476D01*
X4190476Y-17532476D01*
X4171428Y-17522952D01*
X4161905Y-17513429D01*
X4152381Y-17494381D01*
X4142857Y-17456286D01*
X4142857Y-17408667D01*
X4152381Y-17370571D01*
X4161905Y-17351524D01*
X4171428Y-17342000D01*
X4190476Y-17332476D01*
X4342857Y-17513429D02*
X4352381Y-17522952D01*
X4342857Y-17532476D01*
X4333333Y-17522952D01*
X4342857Y-17513429D01*
X4342857Y-17532476D01*
X4476190Y-17332476D02*
X4495238Y-17332476D01*
X4514286Y-17342000D01*
X4523810Y-17351524D01*
X4533333Y-17370571D01*
X4542857Y-17408667D01*
X4542857Y-17456286D01*
X4533333Y-17494381D01*
X4523810Y-17513429D01*
X4514286Y-17522952D01*
X4495238Y-17532476D01*
X4476190Y-17532476D01*
X4457143Y-17522952D01*
X4447619Y-17513429D01*
X4438095Y-17494381D01*
X4428571Y-17456286D01*
X4428571Y-17408667D01*
X4438095Y-17370571D01*
X4447619Y-17351524D01*
X4457143Y-17342000D01*
X4476190Y-17332476D01*
X4609524Y-17332476D02*
X4733333Y-17332476D01*
X4666667Y-17408667D01*
X4695238Y-17408667D01*
X4714286Y-17418190D01*
X4723810Y-17427714D01*
X4733333Y-17446762D01*
X4733333Y-17494381D01*
X4723810Y-17513429D01*
X4714286Y-17522952D01*
X4695238Y-17532476D01*
X4638095Y-17532476D01*
X4619048Y-17522952D01*
X4609524Y-17513429D01*
X4923810Y-17532476D02*
X4809524Y-17532476D01*
X4866667Y-17532476D02*
X4866667Y-17332476D01*
X4847619Y-17361048D01*
X4828571Y-17380095D01*
X4809524Y-17389619D01*
X5104762Y-17332476D02*
X5009524Y-17332476D01*
X5000000Y-17427714D01*
X5009524Y-17418190D01*
X5028571Y-17408667D01*
X5076190Y-17408667D01*
X5095238Y-17418190D01*
X5104762Y-17427714D01*
X5114286Y-17446762D01*
X5114286Y-17494381D01*
X5104762Y-17513429D01*
X5095238Y-17522952D01*
X5076190Y-17532476D01*
X5028571Y-17532476D01*
X5009524Y-17522952D01*
X5000000Y-17513429D01*
X5190476Y-17332476D02*
X5190476Y-17370571D01*
X5266667Y-17332476D02*
X5266667Y-17370571D01*
X5561905Y-17608667D02*
X5552381Y-17599143D01*
X5533333Y-17570571D01*
X5523810Y-17551524D01*
X5514286Y-17522952D01*
X5504762Y-17475333D01*
X5504762Y-17437238D01*
X5514286Y-17389619D01*
X5523810Y-17361048D01*
X5533333Y-17342000D01*
X5552381Y-17313429D01*
X5561905Y-17303905D01*
X5742857Y-17532476D02*
X5628571Y-17532476D01*
X5685714Y-17532476D02*
X5685714Y-17332476D01*
X5666667Y-17361048D01*
X5647619Y-17380095D01*
X5628571Y-17389619D01*
X5809524Y-17332476D02*
X5933333Y-17332476D01*
X5866667Y-17408667D01*
X5895238Y-17408667D01*
X5914286Y-17418190D01*
X5923809Y-17427714D01*
X5933333Y-17446762D01*
X5933333Y-17494381D01*
X5923809Y-17513429D01*
X5914286Y-17522952D01*
X5895238Y-17532476D01*
X5838095Y-17532476D01*
X5819048Y-17522952D01*
X5809524Y-17513429D01*
X6171428Y-17532476D02*
X6171428Y-17332476D01*
X6257143Y-17532476D02*
X6257143Y-17427714D01*
X6247619Y-17408667D01*
X6228571Y-17399143D01*
X6200000Y-17399143D01*
X6180952Y-17408667D01*
X6171428Y-17418190D01*
X6380952Y-17532476D02*
X6361905Y-17522952D01*
X6352381Y-17513429D01*
X6342857Y-17494381D01*
X6342857Y-17437238D01*
X6352381Y-17418190D01*
X6361905Y-17408667D01*
X6380952Y-17399143D01*
X6409524Y-17399143D01*
X6428571Y-17408667D01*
X6438095Y-17418190D01*
X6447619Y-17437238D01*
X6447619Y-17494381D01*
X6438095Y-17513429D01*
X6428571Y-17522952D01*
X6409524Y-17532476D01*
X6380952Y-17532476D01*
X6561905Y-17532476D02*
X6542857Y-17522952D01*
X6533333Y-17503905D01*
X6533333Y-17332476D01*
X6714286Y-17522952D02*
X6695238Y-17532476D01*
X6657143Y-17532476D01*
X6638095Y-17522952D01*
X6628571Y-17503905D01*
X6628571Y-17427714D01*
X6638095Y-17408667D01*
X6657143Y-17399143D01*
X6695238Y-17399143D01*
X6714286Y-17408667D01*
X6723809Y-17427714D01*
X6723809Y-17446762D01*
X6628571Y-17465810D01*
X6800000Y-17522952D02*
X6819048Y-17532476D01*
X6857143Y-17532476D01*
X6876190Y-17522952D01*
X6885714Y-17503905D01*
X6885714Y-17494381D01*
X6876190Y-17475333D01*
X6857143Y-17465810D01*
X6828571Y-17465810D01*
X6809524Y-17456286D01*
X6800000Y-17437238D01*
X6800000Y-17427714D01*
X6809524Y-17408667D01*
X6828571Y-17399143D01*
X6857143Y-17399143D01*
X6876190Y-17408667D01*
X6952381Y-17608667D02*
X6961905Y-17599143D01*
X6980952Y-17570571D01*
X6990476Y-17551524D01*
X7000000Y-17522952D01*
X7009524Y-17475333D01*
X7009524Y-17437238D01*
X7000000Y-17389619D01*
X6990476Y-17361048D01*
X6980952Y-17342000D01*
X6961905Y-17313429D01*
X6952381Y-17303905D01*
D14*
X1945000Y-17751000D02*
X1990000Y-17706000D01*
X1945000Y-17661000D01*
X1900000Y-17706000D01*
X1945000Y-17751000D01*
D10*
X2285714Y-17596476D02*
X2304762Y-17596476D01*
X2323810Y-17606000D01*
X2333333Y-17615524D01*
X2342857Y-17634571D01*
X2352381Y-17672667D01*
X2352381Y-17720286D01*
X2342857Y-17758381D01*
X2333333Y-17777429D01*
X2323810Y-17786952D01*
X2304762Y-17796476D01*
X2285714Y-17796476D01*
X2266667Y-17786952D01*
X2257143Y-17777429D01*
X2247619Y-17758381D01*
X2238095Y-17720286D01*
X2238095Y-17672667D01*
X2247619Y-17634571D01*
X2257143Y-17615524D01*
X2266667Y-17606000D01*
X2285714Y-17596476D01*
X2438095Y-17777429D02*
X2447619Y-17786952D01*
X2438095Y-17796476D01*
X2428571Y-17786952D01*
X2438095Y-17777429D01*
X2438095Y-17796476D01*
X2542857Y-17796476D02*
X2580952Y-17796476D01*
X2600000Y-17786952D01*
X2609524Y-17777429D01*
X2628571Y-17748857D01*
X2638095Y-17710762D01*
X2638095Y-17634571D01*
X2628571Y-17615524D01*
X2619048Y-17606000D01*
X2600000Y-17596476D01*
X2561905Y-17596476D01*
X2542857Y-17606000D01*
X2533333Y-17615524D01*
X2523810Y-17634571D01*
X2523810Y-17682190D01*
X2533333Y-17701238D01*
X2542857Y-17710762D01*
X2561905Y-17720286D01*
X2600000Y-17720286D01*
X2619048Y-17710762D01*
X2628571Y-17701238D01*
X2638095Y-17682190D01*
X2761905Y-17596476D02*
X2780952Y-17596476D01*
X2800000Y-17606000D01*
X2809524Y-17615524D01*
X2819048Y-17634571D01*
X2828571Y-17672667D01*
X2828571Y-17720286D01*
X2819048Y-17758381D01*
X2809524Y-17777429D01*
X2800000Y-17786952D01*
X2780952Y-17796476D01*
X2761905Y-17796476D01*
X2742857Y-17786952D01*
X2733333Y-17777429D01*
X2723810Y-17758381D01*
X2714286Y-17720286D01*
X2714286Y-17672667D01*
X2723810Y-17634571D01*
X2733333Y-17615524D01*
X2742857Y-17606000D01*
X2761905Y-17596476D01*
X2952381Y-17596476D02*
X2971428Y-17596476D01*
X2990476Y-17606000D01*
X3000000Y-17615524D01*
X3009524Y-17634571D01*
X3019048Y-17672667D01*
X3019048Y-17720286D01*
X3009524Y-17758381D01*
X3000000Y-17777429D01*
X2990476Y-17786952D01*
X2971428Y-17796476D01*
X2952381Y-17796476D01*
X2933333Y-17786952D01*
X2923809Y-17777429D01*
X2914286Y-17758381D01*
X2904762Y-17720286D01*
X2904762Y-17672667D01*
X2914286Y-17634571D01*
X2923809Y-17615524D01*
X2933333Y-17606000D01*
X2952381Y-17596476D01*
X3104762Y-17796476D02*
X3104762Y-17663143D01*
X3104762Y-17682190D02*
X3114286Y-17672667D01*
X3133333Y-17663143D01*
X3161905Y-17663143D01*
X3180952Y-17672667D01*
X3190476Y-17691714D01*
X3190476Y-17796476D01*
X3190476Y-17691714D02*
X3200000Y-17672667D01*
X3219048Y-17663143D01*
X3247619Y-17663143D01*
X3266667Y-17672667D01*
X3276190Y-17691714D01*
X3276190Y-17796476D01*
X3371428Y-17796476D02*
X3371428Y-17663143D01*
X3371428Y-17682190D02*
X3380952Y-17672667D01*
X3400000Y-17663143D01*
X3428571Y-17663143D01*
X3447619Y-17672667D01*
X3457143Y-17691714D01*
X3457143Y-17796476D01*
X3457143Y-17691714D02*
X3466667Y-17672667D01*
X3485714Y-17663143D01*
X3514286Y-17663143D01*
X3533333Y-17672667D01*
X3542857Y-17691714D01*
X3542857Y-17796476D01*
X3933333Y-17586952D02*
X3761905Y-17844095D01*
X4190476Y-17596476D02*
X4209524Y-17596476D01*
X4228571Y-17606000D01*
X4238095Y-17615524D01*
X4247619Y-17634571D01*
X4257143Y-17672667D01*
X4257143Y-17720286D01*
X4247619Y-17758381D01*
X4238095Y-17777429D01*
X4228571Y-17786952D01*
X4209524Y-17796476D01*
X4190476Y-17796476D01*
X4171428Y-17786952D01*
X4161905Y-17777429D01*
X4152381Y-17758381D01*
X4142857Y-17720286D01*
X4142857Y-17672667D01*
X4152381Y-17634571D01*
X4161905Y-17615524D01*
X4171428Y-17606000D01*
X4190476Y-17596476D01*
X4342857Y-17777429D02*
X4352381Y-17786952D01*
X4342857Y-17796476D01*
X4333333Y-17786952D01*
X4342857Y-17777429D01*
X4342857Y-17796476D01*
X4476190Y-17596476D02*
X4495238Y-17596476D01*
X4514286Y-17606000D01*
X4523810Y-17615524D01*
X4533333Y-17634571D01*
X4542857Y-17672667D01*
X4542857Y-17720286D01*
X4533333Y-17758381D01*
X4523810Y-17777429D01*
X4514286Y-17786952D01*
X4495238Y-17796476D01*
X4476190Y-17796476D01*
X4457143Y-17786952D01*
X4447619Y-17777429D01*
X4438095Y-17758381D01*
X4428571Y-17720286D01*
X4428571Y-17672667D01*
X4438095Y-17634571D01*
X4447619Y-17615524D01*
X4457143Y-17606000D01*
X4476190Y-17596476D01*
X4609524Y-17596476D02*
X4733333Y-17596476D01*
X4666667Y-17672667D01*
X4695238Y-17672667D01*
X4714286Y-17682190D01*
X4723810Y-17691714D01*
X4733333Y-17710762D01*
X4733333Y-17758381D01*
X4723810Y-17777429D01*
X4714286Y-17786952D01*
X4695238Y-17796476D01*
X4638095Y-17796476D01*
X4619048Y-17786952D01*
X4609524Y-17777429D01*
X4914286Y-17596476D02*
X4819048Y-17596476D01*
X4809524Y-17691714D01*
X4819048Y-17682190D01*
X4838095Y-17672667D01*
X4885714Y-17672667D01*
X4904762Y-17682190D01*
X4914286Y-17691714D01*
X4923810Y-17710762D01*
X4923810Y-17758381D01*
X4914286Y-17777429D01*
X4904762Y-17786952D01*
X4885714Y-17796476D01*
X4838095Y-17796476D01*
X4819048Y-17786952D01*
X4809524Y-17777429D01*
X5095238Y-17663143D02*
X5095238Y-17796476D01*
X5047619Y-17586952D02*
X5000000Y-17729810D01*
X5123810Y-17729810D01*
X5190476Y-17596476D02*
X5190476Y-17634571D01*
X5266667Y-17596476D02*
X5266667Y-17634571D01*
X5561905Y-17872667D02*
X5552381Y-17863143D01*
X5533333Y-17834571D01*
X5523810Y-17815524D01*
X5514286Y-17786952D01*
X5504762Y-17739333D01*
X5504762Y-17701238D01*
X5514286Y-17653619D01*
X5523810Y-17625048D01*
X5533333Y-17606000D01*
X5552381Y-17577429D01*
X5561905Y-17567905D01*
X5742857Y-17796476D02*
X5628571Y-17796476D01*
X5685714Y-17796476D02*
X5685714Y-17596476D01*
X5666667Y-17625048D01*
X5647619Y-17644095D01*
X5628571Y-17653619D01*
X5866667Y-17596476D02*
X5885714Y-17596476D01*
X5904762Y-17606000D01*
X5914286Y-17615524D01*
X5923809Y-17634571D01*
X5933333Y-17672667D01*
X5933333Y-17720286D01*
X5923809Y-17758381D01*
X5914286Y-17777429D01*
X5904762Y-17786952D01*
X5885714Y-17796476D01*
X5866667Y-17796476D01*
X5847619Y-17786952D01*
X5838095Y-17777429D01*
X5828571Y-17758381D01*
X5819048Y-17720286D01*
X5819048Y-17672667D01*
X5828571Y-17634571D01*
X5838095Y-17615524D01*
X5847619Y-17606000D01*
X5866667Y-17596476D01*
X6171428Y-17796476D02*
X6171428Y-17596476D01*
X6257143Y-17796476D02*
X6257143Y-17691714D01*
X6247619Y-17672667D01*
X6228571Y-17663143D01*
X6200000Y-17663143D01*
X6180952Y-17672667D01*
X6171428Y-17682190D01*
X6380952Y-17796476D02*
X6361905Y-17786952D01*
X6352381Y-17777429D01*
X6342857Y-17758381D01*
X6342857Y-17701238D01*
X6352381Y-17682190D01*
X6361905Y-17672667D01*
X6380952Y-17663143D01*
X6409524Y-17663143D01*
X6428571Y-17672667D01*
X6438095Y-17682190D01*
X6447619Y-17701238D01*
X6447619Y-17758381D01*
X6438095Y-17777429D01*
X6428571Y-17786952D01*
X6409524Y-17796476D01*
X6380952Y-17796476D01*
X6561905Y-17796476D02*
X6542857Y-17786952D01*
X6533333Y-17767905D01*
X6533333Y-17596476D01*
X6714286Y-17786952D02*
X6695238Y-17796476D01*
X6657143Y-17796476D01*
X6638095Y-17786952D01*
X6628571Y-17767905D01*
X6628571Y-17691714D01*
X6638095Y-17672667D01*
X6657143Y-17663143D01*
X6695238Y-17663143D01*
X6714286Y-17672667D01*
X6723809Y-17691714D01*
X6723809Y-17710762D01*
X6628571Y-17729810D01*
X6800000Y-17786952D02*
X6819048Y-17796476D01*
X6857143Y-17796476D01*
X6876190Y-17786952D01*
X6885714Y-17767905D01*
X6885714Y-17758381D01*
X6876190Y-17739333D01*
X6857143Y-17729810D01*
X6828571Y-17729810D01*
X6809524Y-17720286D01*
X6800000Y-17701238D01*
X6800000Y-17691714D01*
X6809524Y-17672667D01*
X6828571Y-17663143D01*
X6857143Y-17663143D01*
X6876190Y-17672667D01*
X6952381Y-17872667D02*
X6961905Y-17863143D01*
X6980952Y-17834571D01*
X6990476Y-17815524D01*
X7000000Y-17786952D01*
X7009524Y-17739333D01*
X7009524Y-17701238D01*
X7000000Y-17653619D01*
X6990476Y-17625048D01*
X6980952Y-17606000D01*
X6961905Y-17577429D01*
X6952381Y-17567905D01*
D15*
X1890000Y-17920000D02*
X1990000Y-18020000D01*
X1990000Y-17920000D02*
X1890000Y-18020000D01*
X1990000Y-17970000D02*
G75*
G03*
X1990000Y-17970000I-50000J0D01*
G01*
D10*
X2352381Y-18060476D02*
X2238095Y-18060476D01*
X2295238Y-18060476D02*
X2295238Y-17860476D01*
X2276190Y-17889048D01*
X2257143Y-17908095D01*
X2238095Y-17917619D01*
X2438095Y-18041429D02*
X2447619Y-18050952D01*
X2438095Y-18060476D01*
X2428571Y-18050952D01*
X2438095Y-18041429D01*
X2438095Y-18060476D01*
X2571429Y-17860476D02*
X2590476Y-17860476D01*
X2609524Y-17870000D01*
X2619048Y-17879524D01*
X2628571Y-17898571D01*
X2638095Y-17936667D01*
X2638095Y-17984286D01*
X2628571Y-18022381D01*
X2619048Y-18041429D01*
X2609524Y-18050952D01*
X2590476Y-18060476D01*
X2571429Y-18060476D01*
X2552381Y-18050952D01*
X2542857Y-18041429D01*
X2533333Y-18022381D01*
X2523810Y-17984286D01*
X2523810Y-17936667D01*
X2533333Y-17898571D01*
X2542857Y-17879524D01*
X2552381Y-17870000D01*
X2571429Y-17860476D01*
X2761905Y-17860476D02*
X2780952Y-17860476D01*
X2800000Y-17870000D01*
X2809524Y-17879524D01*
X2819048Y-17898571D01*
X2828571Y-17936667D01*
X2828571Y-17984286D01*
X2819048Y-18022381D01*
X2809524Y-18041429D01*
X2800000Y-18050952D01*
X2780952Y-18060476D01*
X2761905Y-18060476D01*
X2742857Y-18050952D01*
X2733333Y-18041429D01*
X2723810Y-18022381D01*
X2714286Y-17984286D01*
X2714286Y-17936667D01*
X2723810Y-17898571D01*
X2733333Y-17879524D01*
X2742857Y-17870000D01*
X2761905Y-17860476D01*
X2952381Y-17860476D02*
X2971428Y-17860476D01*
X2990476Y-17870000D01*
X3000000Y-17879524D01*
X3009524Y-17898571D01*
X3019048Y-17936667D01*
X3019048Y-17984286D01*
X3009524Y-18022381D01*
X3000000Y-18041429D01*
X2990476Y-18050952D01*
X2971428Y-18060476D01*
X2952381Y-18060476D01*
X2933333Y-18050952D01*
X2923809Y-18041429D01*
X2914286Y-18022381D01*
X2904762Y-17984286D01*
X2904762Y-17936667D01*
X2914286Y-17898571D01*
X2923809Y-17879524D01*
X2933333Y-17870000D01*
X2952381Y-17860476D01*
X3104762Y-18060476D02*
X3104762Y-17927143D01*
X3104762Y-17946190D02*
X3114286Y-17936667D01*
X3133333Y-17927143D01*
X3161905Y-17927143D01*
X3180952Y-17936667D01*
X3190476Y-17955714D01*
X3190476Y-18060476D01*
X3190476Y-17955714D02*
X3200000Y-17936667D01*
X3219048Y-17927143D01*
X3247619Y-17927143D01*
X3266667Y-17936667D01*
X3276190Y-17955714D01*
X3276190Y-18060476D01*
X3371428Y-18060476D02*
X3371428Y-17927143D01*
X3371428Y-17946190D02*
X3380952Y-17936667D01*
X3400000Y-17927143D01*
X3428571Y-17927143D01*
X3447619Y-17936667D01*
X3457143Y-17955714D01*
X3457143Y-18060476D01*
X3457143Y-17955714D02*
X3466667Y-17936667D01*
X3485714Y-17927143D01*
X3514286Y-17927143D01*
X3533333Y-17936667D01*
X3542857Y-17955714D01*
X3542857Y-18060476D01*
X3933333Y-17850952D02*
X3761905Y-18108095D01*
X4190476Y-17860476D02*
X4209524Y-17860476D01*
X4228571Y-17870000D01*
X4238095Y-17879524D01*
X4247619Y-17898571D01*
X4257143Y-17936667D01*
X4257143Y-17984286D01*
X4247619Y-18022381D01*
X4238095Y-18041429D01*
X4228571Y-18050952D01*
X4209524Y-18060476D01*
X4190476Y-18060476D01*
X4171428Y-18050952D01*
X4161905Y-18041429D01*
X4152381Y-18022381D01*
X4142857Y-17984286D01*
X4142857Y-17936667D01*
X4152381Y-17898571D01*
X4161905Y-17879524D01*
X4171428Y-17870000D01*
X4190476Y-17860476D01*
X4342857Y-18041429D02*
X4352381Y-18050952D01*
X4342857Y-18060476D01*
X4333333Y-18050952D01*
X4342857Y-18041429D01*
X4342857Y-18060476D01*
X4476190Y-17860476D02*
X4495238Y-17860476D01*
X4514286Y-17870000D01*
X4523810Y-17879524D01*
X4533333Y-17898571D01*
X4542857Y-17936667D01*
X4542857Y-17984286D01*
X4533333Y-18022381D01*
X4523810Y-18041429D01*
X4514286Y-18050952D01*
X4495238Y-18060476D01*
X4476190Y-18060476D01*
X4457143Y-18050952D01*
X4447619Y-18041429D01*
X4438095Y-18022381D01*
X4428571Y-17984286D01*
X4428571Y-17936667D01*
X4438095Y-17898571D01*
X4447619Y-17879524D01*
X4457143Y-17870000D01*
X4476190Y-17860476D01*
X4609524Y-17860476D02*
X4733333Y-17860476D01*
X4666667Y-17936667D01*
X4695238Y-17936667D01*
X4714286Y-17946190D01*
X4723810Y-17955714D01*
X4733333Y-17974762D01*
X4733333Y-18022381D01*
X4723810Y-18041429D01*
X4714286Y-18050952D01*
X4695238Y-18060476D01*
X4638095Y-18060476D01*
X4619048Y-18050952D01*
X4609524Y-18041429D01*
X4828571Y-18060476D02*
X4866667Y-18060476D01*
X4885714Y-18050952D01*
X4895238Y-18041429D01*
X4914286Y-18012857D01*
X4923810Y-17974762D01*
X4923810Y-17898571D01*
X4914286Y-17879524D01*
X4904762Y-17870000D01*
X4885714Y-17860476D01*
X4847619Y-17860476D01*
X4828571Y-17870000D01*
X4819048Y-17879524D01*
X4809524Y-17898571D01*
X4809524Y-17946190D01*
X4819048Y-17965238D01*
X4828571Y-17974762D01*
X4847619Y-17984286D01*
X4885714Y-17984286D01*
X4904762Y-17974762D01*
X4914286Y-17965238D01*
X4923810Y-17946190D01*
X5095238Y-17927143D02*
X5095238Y-18060476D01*
X5047619Y-17850952D02*
X5000000Y-17993810D01*
X5123810Y-17993810D01*
X5190476Y-17860476D02*
X5190476Y-17898571D01*
X5266667Y-17860476D02*
X5266667Y-17898571D01*
X5561905Y-18136667D02*
X5552381Y-18127143D01*
X5533333Y-18098571D01*
X5523810Y-18079524D01*
X5514286Y-18050952D01*
X5504762Y-18003333D01*
X5504762Y-17965238D01*
X5514286Y-17917619D01*
X5523810Y-17889048D01*
X5533333Y-17870000D01*
X5552381Y-17841429D01*
X5561905Y-17831905D01*
X5619048Y-17860476D02*
X5742857Y-17860476D01*
X5676190Y-17936667D01*
X5704762Y-17936667D01*
X5723809Y-17946190D01*
X5733333Y-17955714D01*
X5742857Y-17974762D01*
X5742857Y-18022381D01*
X5733333Y-18041429D01*
X5723809Y-18050952D01*
X5704762Y-18060476D01*
X5647619Y-18060476D01*
X5628571Y-18050952D01*
X5619048Y-18041429D01*
X5980952Y-18060476D02*
X5980952Y-17860476D01*
X6066667Y-18060476D02*
X6066667Y-17955714D01*
X6057143Y-17936667D01*
X6038095Y-17927143D01*
X6009524Y-17927143D01*
X5990476Y-17936667D01*
X5980952Y-17946190D01*
X6190476Y-18060476D02*
X6171428Y-18050952D01*
X6161905Y-18041429D01*
X6152381Y-18022381D01*
X6152381Y-17965238D01*
X6161905Y-17946190D01*
X6171428Y-17936667D01*
X6190476Y-17927143D01*
X6219048Y-17927143D01*
X6238095Y-17936667D01*
X6247619Y-17946190D01*
X6257143Y-17965238D01*
X6257143Y-18022381D01*
X6247619Y-18041429D01*
X6238095Y-18050952D01*
X6219048Y-18060476D01*
X6190476Y-18060476D01*
X6371428Y-18060476D02*
X6352381Y-18050952D01*
X6342857Y-18031905D01*
X6342857Y-17860476D01*
X6523809Y-18050952D02*
X6504762Y-18060476D01*
X6466667Y-18060476D01*
X6447619Y-18050952D01*
X6438095Y-18031905D01*
X6438095Y-17955714D01*
X6447619Y-17936667D01*
X6466667Y-17927143D01*
X6504762Y-17927143D01*
X6523809Y-17936667D01*
X6533333Y-17955714D01*
X6533333Y-17974762D01*
X6438095Y-17993810D01*
X6609524Y-18050952D02*
X6628571Y-18060476D01*
X6666667Y-18060476D01*
X6685714Y-18050952D01*
X6695238Y-18031905D01*
X6695238Y-18022381D01*
X6685714Y-18003333D01*
X6666667Y-17993810D01*
X6638095Y-17993810D01*
X6619048Y-17984286D01*
X6609524Y-17965238D01*
X6609524Y-17955714D01*
X6619048Y-17936667D01*
X6638095Y-17927143D01*
X6666667Y-17927143D01*
X6685714Y-17936667D01*
X6761905Y-18136667D02*
X6771428Y-18127143D01*
X6790476Y-18098571D01*
X6800000Y-18079524D01*
X6809524Y-18050952D01*
X6819048Y-18003333D01*
X6819048Y-17965238D01*
X6809524Y-17917619D01*
X6800000Y-17889048D01*
X6790476Y-17870000D01*
X6771428Y-17841429D01*
X6761905Y-17831905D01*
D16*
X1885000Y-18181500D02*
X1990000Y-18286500D01*
X1990000Y-18181500D02*
X1885000Y-18286500D01*
X1937500Y-18181500D02*
X1937500Y-18286500D01*
X1885000Y-18234000D02*
X1990000Y-18234000D01*
D10*
X2352381Y-18324476D02*
X2238095Y-18324476D01*
X2295238Y-18324476D02*
X2295238Y-18124476D01*
X2276190Y-18153048D01*
X2257143Y-18172095D01*
X2238095Y-18181619D01*
X2438095Y-18305429D02*
X2447619Y-18314952D01*
X2438095Y-18324476D01*
X2428571Y-18314952D01*
X2438095Y-18305429D01*
X2438095Y-18324476D01*
X2571429Y-18124476D02*
X2590476Y-18124476D01*
X2609524Y-18134000D01*
X2619048Y-18143524D01*
X2628571Y-18162571D01*
X2638095Y-18200667D01*
X2638095Y-18248286D01*
X2628571Y-18286381D01*
X2619048Y-18305429D01*
X2609524Y-18314952D01*
X2590476Y-18324476D01*
X2571429Y-18324476D01*
X2552381Y-18314952D01*
X2542857Y-18305429D01*
X2533333Y-18286381D01*
X2523810Y-18248286D01*
X2523810Y-18200667D01*
X2533333Y-18162571D01*
X2542857Y-18143524D01*
X2552381Y-18134000D01*
X2571429Y-18124476D01*
X2819048Y-18124476D02*
X2723810Y-18124476D01*
X2714286Y-18219714D01*
X2723810Y-18210190D01*
X2742857Y-18200667D01*
X2790476Y-18200667D01*
X2809524Y-18210190D01*
X2819048Y-18219714D01*
X2828571Y-18238762D01*
X2828571Y-18286381D01*
X2819048Y-18305429D01*
X2809524Y-18314952D01*
X2790476Y-18324476D01*
X2742857Y-18324476D01*
X2723810Y-18314952D01*
X2714286Y-18305429D01*
X2952381Y-18124476D02*
X2971428Y-18124476D01*
X2990476Y-18134000D01*
X3000000Y-18143524D01*
X3009524Y-18162571D01*
X3019048Y-18200667D01*
X3019048Y-18248286D01*
X3009524Y-18286381D01*
X3000000Y-18305429D01*
X2990476Y-18314952D01*
X2971428Y-18324476D01*
X2952381Y-18324476D01*
X2933333Y-18314952D01*
X2923809Y-18305429D01*
X2914286Y-18286381D01*
X2904762Y-18248286D01*
X2904762Y-18200667D01*
X2914286Y-18162571D01*
X2923809Y-18143524D01*
X2933333Y-18134000D01*
X2952381Y-18124476D01*
X3104762Y-18324476D02*
X3104762Y-18191143D01*
X3104762Y-18210190D02*
X3114286Y-18200667D01*
X3133333Y-18191143D01*
X3161905Y-18191143D01*
X3180952Y-18200667D01*
X3190476Y-18219714D01*
X3190476Y-18324476D01*
X3190476Y-18219714D02*
X3200000Y-18200667D01*
X3219048Y-18191143D01*
X3247619Y-18191143D01*
X3266667Y-18200667D01*
X3276190Y-18219714D01*
X3276190Y-18324476D01*
X3371428Y-18324476D02*
X3371428Y-18191143D01*
X3371428Y-18210190D02*
X3380952Y-18200667D01*
X3400000Y-18191143D01*
X3428571Y-18191143D01*
X3447619Y-18200667D01*
X3457143Y-18219714D01*
X3457143Y-18324476D01*
X3457143Y-18219714D02*
X3466667Y-18200667D01*
X3485714Y-18191143D01*
X3514286Y-18191143D01*
X3533333Y-18200667D01*
X3542857Y-18219714D01*
X3542857Y-18324476D01*
X3933333Y-18114952D02*
X3761905Y-18372095D01*
X4190476Y-18124476D02*
X4209524Y-18124476D01*
X4228571Y-18134000D01*
X4238095Y-18143524D01*
X4247619Y-18162571D01*
X4257143Y-18200667D01*
X4257143Y-18248286D01*
X4247619Y-18286381D01*
X4238095Y-18305429D01*
X4228571Y-18314952D01*
X4209524Y-18324476D01*
X4190476Y-18324476D01*
X4171428Y-18314952D01*
X4161905Y-18305429D01*
X4152381Y-18286381D01*
X4142857Y-18248286D01*
X4142857Y-18200667D01*
X4152381Y-18162571D01*
X4161905Y-18143524D01*
X4171428Y-18134000D01*
X4190476Y-18124476D01*
X4342857Y-18305429D02*
X4352381Y-18314952D01*
X4342857Y-18324476D01*
X4333333Y-18314952D01*
X4342857Y-18305429D01*
X4342857Y-18324476D01*
X4476190Y-18124476D02*
X4495238Y-18124476D01*
X4514286Y-18134000D01*
X4523810Y-18143524D01*
X4533333Y-18162571D01*
X4542857Y-18200667D01*
X4542857Y-18248286D01*
X4533333Y-18286381D01*
X4523810Y-18305429D01*
X4514286Y-18314952D01*
X4495238Y-18324476D01*
X4476190Y-18324476D01*
X4457143Y-18314952D01*
X4447619Y-18305429D01*
X4438095Y-18286381D01*
X4428571Y-18248286D01*
X4428571Y-18200667D01*
X4438095Y-18162571D01*
X4447619Y-18143524D01*
X4457143Y-18134000D01*
X4476190Y-18124476D01*
X4714286Y-18191143D02*
X4714286Y-18324476D01*
X4666667Y-18114952D02*
X4619048Y-18257810D01*
X4742857Y-18257810D01*
X4923810Y-18324476D02*
X4809524Y-18324476D01*
X4866667Y-18324476D02*
X4866667Y-18124476D01*
X4847619Y-18153048D01*
X4828571Y-18172095D01*
X4809524Y-18181619D01*
X4990476Y-18124476D02*
X5114286Y-18124476D01*
X5047619Y-18200667D01*
X5076190Y-18200667D01*
X5095238Y-18210190D01*
X5104762Y-18219714D01*
X5114286Y-18238762D01*
X5114286Y-18286381D01*
X5104762Y-18305429D01*
X5095238Y-18314952D01*
X5076190Y-18324476D01*
X5019048Y-18324476D01*
X5000000Y-18314952D01*
X4990476Y-18305429D01*
X5190476Y-18124476D02*
X5190476Y-18162571D01*
X5266667Y-18124476D02*
X5266667Y-18162571D01*
X5561905Y-18400667D02*
X5552381Y-18391143D01*
X5533333Y-18362571D01*
X5523810Y-18343524D01*
X5514286Y-18314952D01*
X5504762Y-18267333D01*
X5504762Y-18229238D01*
X5514286Y-18181619D01*
X5523810Y-18153048D01*
X5533333Y-18134000D01*
X5552381Y-18105429D01*
X5561905Y-18095905D01*
X5723809Y-18191143D02*
X5723809Y-18324476D01*
X5676190Y-18114952D02*
X5628571Y-18257810D01*
X5752381Y-18257810D01*
X5866667Y-18124476D02*
X5885714Y-18124476D01*
X5904762Y-18134000D01*
X5914286Y-18143524D01*
X5923809Y-18162571D01*
X5933333Y-18200667D01*
X5933333Y-18248286D01*
X5923809Y-18286381D01*
X5914286Y-18305429D01*
X5904762Y-18314952D01*
X5885714Y-18324476D01*
X5866667Y-18324476D01*
X5847619Y-18314952D01*
X5838095Y-18305429D01*
X5828571Y-18286381D01*
X5819048Y-18248286D01*
X5819048Y-18200667D01*
X5828571Y-18162571D01*
X5838095Y-18143524D01*
X5847619Y-18134000D01*
X5866667Y-18124476D01*
X6171428Y-18324476D02*
X6171428Y-18124476D01*
X6257143Y-18324476D02*
X6257143Y-18219714D01*
X6247619Y-18200667D01*
X6228571Y-18191143D01*
X6200000Y-18191143D01*
X6180952Y-18200667D01*
X6171428Y-18210190D01*
X6380952Y-18324476D02*
X6361905Y-18314952D01*
X6352381Y-18305429D01*
X6342857Y-18286381D01*
X6342857Y-18229238D01*
X6352381Y-18210190D01*
X6361905Y-18200667D01*
X6380952Y-18191143D01*
X6409524Y-18191143D01*
X6428571Y-18200667D01*
X6438095Y-18210190D01*
X6447619Y-18229238D01*
X6447619Y-18286381D01*
X6438095Y-18305429D01*
X6428571Y-18314952D01*
X6409524Y-18324476D01*
X6380952Y-18324476D01*
X6561905Y-18324476D02*
X6542857Y-18314952D01*
X6533333Y-18295905D01*
X6533333Y-18124476D01*
X6714286Y-18314952D02*
X6695238Y-18324476D01*
X6657143Y-18324476D01*
X6638095Y-18314952D01*
X6628571Y-18295905D01*
X6628571Y-18219714D01*
X6638095Y-18200667D01*
X6657143Y-18191143D01*
X6695238Y-18191143D01*
X6714286Y-18200667D01*
X6723809Y-18219714D01*
X6723809Y-18238762D01*
X6628571Y-18257810D01*
X6800000Y-18314952D02*
X6819048Y-18324476D01*
X6857143Y-18324476D01*
X6876190Y-18314952D01*
X6885714Y-18295905D01*
X6885714Y-18286381D01*
X6876190Y-18267333D01*
X6857143Y-18257810D01*
X6828571Y-18257810D01*
X6809524Y-18248286D01*
X6800000Y-18229238D01*
X6800000Y-18219714D01*
X6809524Y-18200667D01*
X6828571Y-18191143D01*
X6857143Y-18191143D01*
X6876190Y-18200667D01*
X6952381Y-18400667D02*
X6961905Y-18391143D01*
X6980952Y-18362571D01*
X6990476Y-18343524D01*
X7000000Y-18314952D01*
X7009524Y-18267333D01*
X7009524Y-18229238D01*
X7000000Y-18181619D01*
X6990476Y-18153048D01*
X6980952Y-18134000D01*
X6961905Y-18105429D01*
X6952381Y-18095905D01*
D17*
X1880000Y-18443000D02*
X1990000Y-18553000D01*
X1990000Y-18443000D02*
X1880000Y-18553000D01*
X1973891Y-18536891D02*
X1973891Y-18459109D01*
X1896109Y-18459109D01*
X1896109Y-18536891D01*
X1973891Y-18536891D01*
D10*
X2352381Y-18588476D02*
X2238095Y-18588476D01*
X2295238Y-18588476D02*
X2295238Y-18388476D01*
X2276190Y-18417048D01*
X2257143Y-18436095D01*
X2238095Y-18445619D01*
X2438095Y-18569429D02*
X2447619Y-18578952D01*
X2438095Y-18588476D01*
X2428571Y-18578952D01*
X2438095Y-18569429D01*
X2438095Y-18588476D01*
X2638095Y-18588476D02*
X2523810Y-18588476D01*
X2580952Y-18588476D02*
X2580952Y-18388476D01*
X2561905Y-18417048D01*
X2542857Y-18436095D01*
X2523810Y-18445619D01*
X2761905Y-18388476D02*
X2780952Y-18388476D01*
X2800000Y-18398000D01*
X2809524Y-18407524D01*
X2819048Y-18426571D01*
X2828571Y-18464667D01*
X2828571Y-18512286D01*
X2819048Y-18550381D01*
X2809524Y-18569429D01*
X2800000Y-18578952D01*
X2780952Y-18588476D01*
X2761905Y-18588476D01*
X2742857Y-18578952D01*
X2733333Y-18569429D01*
X2723810Y-18550381D01*
X2714286Y-18512286D01*
X2714286Y-18464667D01*
X2723810Y-18426571D01*
X2733333Y-18407524D01*
X2742857Y-18398000D01*
X2761905Y-18388476D01*
X2952381Y-18388476D02*
X2971428Y-18388476D01*
X2990476Y-18398000D01*
X3000000Y-18407524D01*
X3009524Y-18426571D01*
X3019048Y-18464667D01*
X3019048Y-18512286D01*
X3009524Y-18550381D01*
X3000000Y-18569429D01*
X2990476Y-18578952D01*
X2971428Y-18588476D01*
X2952381Y-18588476D01*
X2933333Y-18578952D01*
X2923809Y-18569429D01*
X2914286Y-18550381D01*
X2904762Y-18512286D01*
X2904762Y-18464667D01*
X2914286Y-18426571D01*
X2923809Y-18407524D01*
X2933333Y-18398000D01*
X2952381Y-18388476D01*
X3104762Y-18588476D02*
X3104762Y-18455143D01*
X3104762Y-18474190D02*
X3114286Y-18464667D01*
X3133333Y-18455143D01*
X3161905Y-18455143D01*
X3180952Y-18464667D01*
X3190476Y-18483714D01*
X3190476Y-18588476D01*
X3190476Y-18483714D02*
X3200000Y-18464667D01*
X3219048Y-18455143D01*
X3247619Y-18455143D01*
X3266667Y-18464667D01*
X3276190Y-18483714D01*
X3276190Y-18588476D01*
X3371428Y-18588476D02*
X3371428Y-18455143D01*
X3371428Y-18474190D02*
X3380952Y-18464667D01*
X3400000Y-18455143D01*
X3428571Y-18455143D01*
X3447619Y-18464667D01*
X3457143Y-18483714D01*
X3457143Y-18588476D01*
X3457143Y-18483714D02*
X3466667Y-18464667D01*
X3485714Y-18455143D01*
X3514286Y-18455143D01*
X3533333Y-18464667D01*
X3542857Y-18483714D01*
X3542857Y-18588476D01*
X3933333Y-18378952D02*
X3761905Y-18636095D01*
X4190476Y-18388476D02*
X4209524Y-18388476D01*
X4228571Y-18398000D01*
X4238095Y-18407524D01*
X4247619Y-18426571D01*
X4257143Y-18464667D01*
X4257143Y-18512286D01*
X4247619Y-18550381D01*
X4238095Y-18569429D01*
X4228571Y-18578952D01*
X4209524Y-18588476D01*
X4190476Y-18588476D01*
X4171428Y-18578952D01*
X4161905Y-18569429D01*
X4152381Y-18550381D01*
X4142857Y-18512286D01*
X4142857Y-18464667D01*
X4152381Y-18426571D01*
X4161905Y-18407524D01*
X4171428Y-18398000D01*
X4190476Y-18388476D01*
X4342857Y-18569429D02*
X4352381Y-18578952D01*
X4342857Y-18588476D01*
X4333333Y-18578952D01*
X4342857Y-18569429D01*
X4342857Y-18588476D01*
X4476190Y-18388476D02*
X4495238Y-18388476D01*
X4514286Y-18398000D01*
X4523810Y-18407524D01*
X4533333Y-18426571D01*
X4542857Y-18464667D01*
X4542857Y-18512286D01*
X4533333Y-18550381D01*
X4523810Y-18569429D01*
X4514286Y-18578952D01*
X4495238Y-18588476D01*
X4476190Y-18588476D01*
X4457143Y-18578952D01*
X4447619Y-18569429D01*
X4438095Y-18550381D01*
X4428571Y-18512286D01*
X4428571Y-18464667D01*
X4438095Y-18426571D01*
X4447619Y-18407524D01*
X4457143Y-18398000D01*
X4476190Y-18388476D01*
X4714286Y-18455143D02*
X4714286Y-18588476D01*
X4666667Y-18378952D02*
X4619048Y-18521810D01*
X4742857Y-18521810D01*
X4800000Y-18388476D02*
X4923810Y-18388476D01*
X4857143Y-18464667D01*
X4885714Y-18464667D01*
X4904762Y-18474190D01*
X4914286Y-18483714D01*
X4923810Y-18502762D01*
X4923810Y-18550381D01*
X4914286Y-18569429D01*
X4904762Y-18578952D01*
X4885714Y-18588476D01*
X4828571Y-18588476D01*
X4809524Y-18578952D01*
X4800000Y-18569429D01*
X4990476Y-18388476D02*
X5114286Y-18388476D01*
X5047619Y-18464667D01*
X5076190Y-18464667D01*
X5095238Y-18474190D01*
X5104762Y-18483714D01*
X5114286Y-18502762D01*
X5114286Y-18550381D01*
X5104762Y-18569429D01*
X5095238Y-18578952D01*
X5076190Y-18588476D01*
X5019048Y-18588476D01*
X5000000Y-18578952D01*
X4990476Y-18569429D01*
X5190476Y-18388476D02*
X5190476Y-18426571D01*
X5266667Y-18388476D02*
X5266667Y-18426571D01*
X5561905Y-18664667D02*
X5552381Y-18655143D01*
X5533333Y-18626571D01*
X5523810Y-18607524D01*
X5514286Y-18578952D01*
X5504762Y-18531333D01*
X5504762Y-18493238D01*
X5514286Y-18445619D01*
X5523810Y-18417048D01*
X5533333Y-18398000D01*
X5552381Y-18369429D01*
X5561905Y-18359905D01*
X5742857Y-18588476D02*
X5628571Y-18588476D01*
X5685714Y-18588476D02*
X5685714Y-18388476D01*
X5666667Y-18417048D01*
X5647619Y-18436095D01*
X5628571Y-18445619D01*
X5923809Y-18388476D02*
X5828571Y-18388476D01*
X5819048Y-18483714D01*
X5828571Y-18474190D01*
X5847619Y-18464667D01*
X5895238Y-18464667D01*
X5914286Y-18474190D01*
X5923809Y-18483714D01*
X5933333Y-18502762D01*
X5933333Y-18550381D01*
X5923809Y-18569429D01*
X5914286Y-18578952D01*
X5895238Y-18588476D01*
X5847619Y-18588476D01*
X5828571Y-18578952D01*
X5819048Y-18569429D01*
X6171428Y-18588476D02*
X6171428Y-18388476D01*
X6257143Y-18588476D02*
X6257143Y-18483714D01*
X6247619Y-18464667D01*
X6228571Y-18455143D01*
X6200000Y-18455143D01*
X6180952Y-18464667D01*
X6171428Y-18474190D01*
X6380952Y-18588476D02*
X6361905Y-18578952D01*
X6352381Y-18569429D01*
X6342857Y-18550381D01*
X6342857Y-18493238D01*
X6352381Y-18474190D01*
X6361905Y-18464667D01*
X6380952Y-18455143D01*
X6409524Y-18455143D01*
X6428571Y-18464667D01*
X6438095Y-18474190D01*
X6447619Y-18493238D01*
X6447619Y-18550381D01*
X6438095Y-18569429D01*
X6428571Y-18578952D01*
X6409524Y-18588476D01*
X6380952Y-18588476D01*
X6561905Y-18588476D02*
X6542857Y-18578952D01*
X6533333Y-18559905D01*
X6533333Y-18388476D01*
X6714286Y-18578952D02*
X6695238Y-18588476D01*
X6657143Y-18588476D01*
X6638095Y-18578952D01*
X6628571Y-18559905D01*
X6628571Y-18483714D01*
X6638095Y-18464667D01*
X6657143Y-18455143D01*
X6695238Y-18455143D01*
X6714286Y-18464667D01*
X6723809Y-18483714D01*
X6723809Y-18502762D01*
X6628571Y-18521810D01*
X6800000Y-18578952D02*
X6819048Y-18588476D01*
X6857143Y-18588476D01*
X6876190Y-18578952D01*
X6885714Y-18559905D01*
X6885714Y-18550381D01*
X6876190Y-18531333D01*
X6857143Y-18521810D01*
X6828571Y-18521810D01*
X6809524Y-18512286D01*
X6800000Y-18493238D01*
X6800000Y-18483714D01*
X6809524Y-18464667D01*
X6828571Y-18455143D01*
X6857143Y-18455143D01*
X6876190Y-18464667D01*
X6952381Y-18664667D02*
X6961905Y-18655143D01*
X6980952Y-18626571D01*
X6990476Y-18607524D01*
X7000000Y-18578952D01*
X7009524Y-18531333D01*
X7009524Y-18493238D01*
X7000000Y-18445619D01*
X6990476Y-18417048D01*
X6980952Y-18398000D01*
X6961905Y-18369429D01*
X6952381Y-18359905D01*
D18*
X1870000Y-18702000D02*
X1990000Y-18822000D01*
X1990000Y-18702000D02*
X1870000Y-18822000D01*
X1930000Y-18822000D02*
X1990000Y-18762000D01*
X1930000Y-18702000D01*
X1870000Y-18762000D01*
X1930000Y-18822000D01*
D10*
X2352381Y-18852476D02*
X2238095Y-18852476D01*
X2295238Y-18852476D02*
X2295238Y-18652476D01*
X2276190Y-18681048D01*
X2257143Y-18700095D01*
X2238095Y-18709619D01*
X2438095Y-18833429D02*
X2447619Y-18842952D01*
X2438095Y-18852476D01*
X2428571Y-18842952D01*
X2438095Y-18833429D01*
X2438095Y-18852476D01*
X2523810Y-18671524D02*
X2533333Y-18662000D01*
X2552381Y-18652476D01*
X2600000Y-18652476D01*
X2619048Y-18662000D01*
X2628571Y-18671524D01*
X2638095Y-18690571D01*
X2638095Y-18709619D01*
X2628571Y-18738190D01*
X2514286Y-18852476D01*
X2638095Y-18852476D01*
X2761905Y-18652476D02*
X2780952Y-18652476D01*
X2800000Y-18662000D01*
X2809524Y-18671524D01*
X2819048Y-18690571D01*
X2828571Y-18728667D01*
X2828571Y-18776286D01*
X2819048Y-18814381D01*
X2809524Y-18833429D01*
X2800000Y-18842952D01*
X2780952Y-18852476D01*
X2761905Y-18852476D01*
X2742857Y-18842952D01*
X2733333Y-18833429D01*
X2723810Y-18814381D01*
X2714286Y-18776286D01*
X2714286Y-18728667D01*
X2723810Y-18690571D01*
X2733333Y-18671524D01*
X2742857Y-18662000D01*
X2761905Y-18652476D01*
X2952381Y-18652476D02*
X2971428Y-18652476D01*
X2990476Y-18662000D01*
X3000000Y-18671524D01*
X3009524Y-18690571D01*
X3019048Y-18728667D01*
X3019048Y-18776286D01*
X3009524Y-18814381D01*
X3000000Y-18833429D01*
X2990476Y-18842952D01*
X2971428Y-18852476D01*
X2952381Y-18852476D01*
X2933333Y-18842952D01*
X2923809Y-18833429D01*
X2914286Y-18814381D01*
X2904762Y-18776286D01*
X2904762Y-18728667D01*
X2914286Y-18690571D01*
X2923809Y-18671524D01*
X2933333Y-18662000D01*
X2952381Y-18652476D01*
X3104762Y-18852476D02*
X3104762Y-18719143D01*
X3104762Y-18738190D02*
X3114286Y-18728667D01*
X3133333Y-18719143D01*
X3161905Y-18719143D01*
X3180952Y-18728667D01*
X3190476Y-18747714D01*
X3190476Y-18852476D01*
X3190476Y-18747714D02*
X3200000Y-18728667D01*
X3219048Y-18719143D01*
X3247619Y-18719143D01*
X3266667Y-18728667D01*
X3276190Y-18747714D01*
X3276190Y-18852476D01*
X3371428Y-18852476D02*
X3371428Y-18719143D01*
X3371428Y-18738190D02*
X3380952Y-18728667D01*
X3400000Y-18719143D01*
X3428571Y-18719143D01*
X3447619Y-18728667D01*
X3457143Y-18747714D01*
X3457143Y-18852476D01*
X3457143Y-18747714D02*
X3466667Y-18728667D01*
X3485714Y-18719143D01*
X3514286Y-18719143D01*
X3533333Y-18728667D01*
X3542857Y-18747714D01*
X3542857Y-18852476D01*
X3933333Y-18642952D02*
X3761905Y-18900095D01*
X4190476Y-18652476D02*
X4209524Y-18652476D01*
X4228571Y-18662000D01*
X4238095Y-18671524D01*
X4247619Y-18690571D01*
X4257143Y-18728667D01*
X4257143Y-18776286D01*
X4247619Y-18814381D01*
X4238095Y-18833429D01*
X4228571Y-18842952D01*
X4209524Y-18852476D01*
X4190476Y-18852476D01*
X4171428Y-18842952D01*
X4161905Y-18833429D01*
X4152381Y-18814381D01*
X4142857Y-18776286D01*
X4142857Y-18728667D01*
X4152381Y-18690571D01*
X4161905Y-18671524D01*
X4171428Y-18662000D01*
X4190476Y-18652476D01*
X4342857Y-18833429D02*
X4352381Y-18842952D01*
X4342857Y-18852476D01*
X4333333Y-18842952D01*
X4342857Y-18833429D01*
X4342857Y-18852476D01*
X4476190Y-18652476D02*
X4495238Y-18652476D01*
X4514286Y-18662000D01*
X4523810Y-18671524D01*
X4533333Y-18690571D01*
X4542857Y-18728667D01*
X4542857Y-18776286D01*
X4533333Y-18814381D01*
X4523810Y-18833429D01*
X4514286Y-18842952D01*
X4495238Y-18852476D01*
X4476190Y-18852476D01*
X4457143Y-18842952D01*
X4447619Y-18833429D01*
X4438095Y-18814381D01*
X4428571Y-18776286D01*
X4428571Y-18728667D01*
X4438095Y-18690571D01*
X4447619Y-18671524D01*
X4457143Y-18662000D01*
X4476190Y-18652476D01*
X4714286Y-18719143D02*
X4714286Y-18852476D01*
X4666667Y-18642952D02*
X4619048Y-18785810D01*
X4742857Y-18785810D01*
X4800000Y-18652476D02*
X4933333Y-18652476D01*
X4847619Y-18852476D01*
X5000000Y-18671524D02*
X5009524Y-18662000D01*
X5028571Y-18652476D01*
X5076190Y-18652476D01*
X5095238Y-18662000D01*
X5104762Y-18671524D01*
X5114286Y-18690571D01*
X5114286Y-18709619D01*
X5104762Y-18738190D01*
X4990476Y-18852476D01*
X5114286Y-18852476D01*
X5190476Y-18652476D02*
X5190476Y-18690571D01*
X5266667Y-18652476D02*
X5266667Y-18690571D01*
X5561905Y-18928667D02*
X5552381Y-18919143D01*
X5533333Y-18890571D01*
X5523810Y-18871524D01*
X5514286Y-18842952D01*
X5504762Y-18795333D01*
X5504762Y-18757238D01*
X5514286Y-18709619D01*
X5523810Y-18681048D01*
X5533333Y-18662000D01*
X5552381Y-18633429D01*
X5561905Y-18623905D01*
X5723809Y-18719143D02*
X5723809Y-18852476D01*
X5676190Y-18642952D02*
X5628571Y-18785810D01*
X5752381Y-18785810D01*
X5980952Y-18852476D02*
X5980952Y-18652476D01*
X6066667Y-18852476D02*
X6066667Y-18747714D01*
X6057143Y-18728667D01*
X6038095Y-18719143D01*
X6009524Y-18719143D01*
X5990476Y-18728667D01*
X5980952Y-18738190D01*
X6190476Y-18852476D02*
X6171428Y-18842952D01*
X6161905Y-18833429D01*
X6152381Y-18814381D01*
X6152381Y-18757238D01*
X6161905Y-18738190D01*
X6171428Y-18728667D01*
X6190476Y-18719143D01*
X6219048Y-18719143D01*
X6238095Y-18728667D01*
X6247619Y-18738190D01*
X6257143Y-18757238D01*
X6257143Y-18814381D01*
X6247619Y-18833429D01*
X6238095Y-18842952D01*
X6219048Y-18852476D01*
X6190476Y-18852476D01*
X6371428Y-18852476D02*
X6352381Y-18842952D01*
X6342857Y-18823905D01*
X6342857Y-18652476D01*
X6523809Y-18842952D02*
X6504762Y-18852476D01*
X6466667Y-18852476D01*
X6447619Y-18842952D01*
X6438095Y-18823905D01*
X6438095Y-18747714D01*
X6447619Y-18728667D01*
X6466667Y-18719143D01*
X6504762Y-18719143D01*
X6523809Y-18728667D01*
X6533333Y-18747714D01*
X6533333Y-18766762D01*
X6438095Y-18785810D01*
X6609524Y-18842952D02*
X6628571Y-18852476D01*
X6666667Y-18852476D01*
X6685714Y-18842952D01*
X6695238Y-18823905D01*
X6695238Y-18814381D01*
X6685714Y-18795333D01*
X6666667Y-18785810D01*
X6638095Y-18785810D01*
X6619048Y-18776286D01*
X6609524Y-18757238D01*
X6609524Y-18747714D01*
X6619048Y-18728667D01*
X6638095Y-18719143D01*
X6666667Y-18719143D01*
X6685714Y-18728667D01*
X6761905Y-18928667D02*
X6771428Y-18919143D01*
X6790476Y-18890571D01*
X6800000Y-18871524D01*
X6809524Y-18842952D01*
X6819048Y-18795333D01*
X6819048Y-18757238D01*
X6809524Y-18709619D01*
X6800000Y-18681048D01*
X6790476Y-18662000D01*
X6771428Y-18633429D01*
X6761905Y-18623905D01*
D19*
X1900000Y-18936000D02*
X1900000Y-19116000D01*
X1810000Y-19026000D02*
X1990000Y-19026000D01*
X1990000Y-19026000D02*
G75*
G03*
X1990000Y-19026000I-90000J0D01*
G01*
D10*
X2352381Y-19116476D02*
X2238095Y-19116476D01*
X2295238Y-19116476D02*
X2295238Y-18916476D01*
X2276190Y-18945048D01*
X2257143Y-18964095D01*
X2238095Y-18973619D01*
X2438095Y-19097429D02*
X2447619Y-19106952D01*
X2438095Y-19116476D01*
X2428571Y-19106952D01*
X2438095Y-19097429D01*
X2438095Y-19116476D01*
X2561905Y-19002190D02*
X2542857Y-18992667D01*
X2533333Y-18983143D01*
X2523810Y-18964095D01*
X2523810Y-18954571D01*
X2533333Y-18935524D01*
X2542857Y-18926000D01*
X2561905Y-18916476D01*
X2600000Y-18916476D01*
X2619048Y-18926000D01*
X2628571Y-18935524D01*
X2638095Y-18954571D01*
X2638095Y-18964095D01*
X2628571Y-18983143D01*
X2619048Y-18992667D01*
X2600000Y-19002190D01*
X2561905Y-19002190D01*
X2542857Y-19011714D01*
X2533333Y-19021238D01*
X2523810Y-19040286D01*
X2523810Y-19078381D01*
X2533333Y-19097429D01*
X2542857Y-19106952D01*
X2561905Y-19116476D01*
X2600000Y-19116476D01*
X2619048Y-19106952D01*
X2628571Y-19097429D01*
X2638095Y-19078381D01*
X2638095Y-19040286D01*
X2628571Y-19021238D01*
X2619048Y-19011714D01*
X2600000Y-19002190D01*
X2761905Y-18916476D02*
X2780952Y-18916476D01*
X2800000Y-18926000D01*
X2809524Y-18935524D01*
X2819048Y-18954571D01*
X2828571Y-18992667D01*
X2828571Y-19040286D01*
X2819048Y-19078381D01*
X2809524Y-19097429D01*
X2800000Y-19106952D01*
X2780952Y-19116476D01*
X2761905Y-19116476D01*
X2742857Y-19106952D01*
X2733333Y-19097429D01*
X2723810Y-19078381D01*
X2714286Y-19040286D01*
X2714286Y-18992667D01*
X2723810Y-18954571D01*
X2733333Y-18935524D01*
X2742857Y-18926000D01*
X2761905Y-18916476D01*
X2952381Y-18916476D02*
X2971428Y-18916476D01*
X2990476Y-18926000D01*
X3000000Y-18935524D01*
X3009524Y-18954571D01*
X3019048Y-18992667D01*
X3019048Y-19040286D01*
X3009524Y-19078381D01*
X3000000Y-19097429D01*
X2990476Y-19106952D01*
X2971428Y-19116476D01*
X2952381Y-19116476D01*
X2933333Y-19106952D01*
X2923809Y-19097429D01*
X2914286Y-19078381D01*
X2904762Y-19040286D01*
X2904762Y-18992667D01*
X2914286Y-18954571D01*
X2923809Y-18935524D01*
X2933333Y-18926000D01*
X2952381Y-18916476D01*
X3104762Y-19116476D02*
X3104762Y-18983143D01*
X3104762Y-19002190D02*
X3114286Y-18992667D01*
X3133333Y-18983143D01*
X3161905Y-18983143D01*
X3180952Y-18992667D01*
X3190476Y-19011714D01*
X3190476Y-19116476D01*
X3190476Y-19011714D02*
X3200000Y-18992667D01*
X3219048Y-18983143D01*
X3247619Y-18983143D01*
X3266667Y-18992667D01*
X3276190Y-19011714D01*
X3276190Y-19116476D01*
X3371428Y-19116476D02*
X3371428Y-18983143D01*
X3371428Y-19002190D02*
X3380952Y-18992667D01*
X3400000Y-18983143D01*
X3428571Y-18983143D01*
X3447619Y-18992667D01*
X3457143Y-19011714D01*
X3457143Y-19116476D01*
X3457143Y-19011714D02*
X3466667Y-18992667D01*
X3485714Y-18983143D01*
X3514286Y-18983143D01*
X3533333Y-18992667D01*
X3542857Y-19011714D01*
X3542857Y-19116476D01*
X3933333Y-18906952D02*
X3761905Y-19164095D01*
X4190476Y-18916476D02*
X4209524Y-18916476D01*
X4228571Y-18926000D01*
X4238095Y-18935524D01*
X4247619Y-18954571D01*
X4257143Y-18992667D01*
X4257143Y-19040286D01*
X4247619Y-19078381D01*
X4238095Y-19097429D01*
X4228571Y-19106952D01*
X4209524Y-19116476D01*
X4190476Y-19116476D01*
X4171428Y-19106952D01*
X4161905Y-19097429D01*
X4152381Y-19078381D01*
X4142857Y-19040286D01*
X4142857Y-18992667D01*
X4152381Y-18954571D01*
X4161905Y-18935524D01*
X4171428Y-18926000D01*
X4190476Y-18916476D01*
X4342857Y-19097429D02*
X4352381Y-19106952D01*
X4342857Y-19116476D01*
X4333333Y-19106952D01*
X4342857Y-19097429D01*
X4342857Y-19116476D01*
X4476190Y-18916476D02*
X4495238Y-18916476D01*
X4514286Y-18926000D01*
X4523810Y-18935524D01*
X4533333Y-18954571D01*
X4542857Y-18992667D01*
X4542857Y-19040286D01*
X4533333Y-19078381D01*
X4523810Y-19097429D01*
X4514286Y-19106952D01*
X4495238Y-19116476D01*
X4476190Y-19116476D01*
X4457143Y-19106952D01*
X4447619Y-19097429D01*
X4438095Y-19078381D01*
X4428571Y-19040286D01*
X4428571Y-18992667D01*
X4438095Y-18954571D01*
X4447619Y-18935524D01*
X4457143Y-18926000D01*
X4476190Y-18916476D01*
X4609524Y-18916476D02*
X4742857Y-18916476D01*
X4657143Y-19116476D01*
X4857143Y-18916476D02*
X4876190Y-18916476D01*
X4895238Y-18926000D01*
X4904762Y-18935524D01*
X4914286Y-18954571D01*
X4923810Y-18992667D01*
X4923810Y-19040286D01*
X4914286Y-19078381D01*
X4904762Y-19097429D01*
X4895238Y-19106952D01*
X4876190Y-19116476D01*
X4857143Y-19116476D01*
X4838095Y-19106952D01*
X4828571Y-19097429D01*
X4819048Y-19078381D01*
X4809524Y-19040286D01*
X4809524Y-18992667D01*
X4819048Y-18954571D01*
X4828571Y-18935524D01*
X4838095Y-18926000D01*
X4857143Y-18916476D01*
X5019048Y-19116476D02*
X5057143Y-19116476D01*
X5076190Y-19106952D01*
X5085714Y-19097429D01*
X5104762Y-19068857D01*
X5114286Y-19030762D01*
X5114286Y-18954571D01*
X5104762Y-18935524D01*
X5095238Y-18926000D01*
X5076190Y-18916476D01*
X5038095Y-18916476D01*
X5019048Y-18926000D01*
X5009524Y-18935524D01*
X5000000Y-18954571D01*
X5000000Y-19002190D01*
X5009524Y-19021238D01*
X5019048Y-19030762D01*
X5038095Y-19040286D01*
X5076190Y-19040286D01*
X5095238Y-19030762D01*
X5104762Y-19021238D01*
X5114286Y-19002190D01*
X5190476Y-18916476D02*
X5190476Y-18954571D01*
X5266667Y-18916476D02*
X5266667Y-18954571D01*
X5561905Y-19192667D02*
X5552381Y-19183143D01*
X5533333Y-19154571D01*
X5523810Y-19135524D01*
X5514286Y-19106952D01*
X5504762Y-19059333D01*
X5504762Y-19021238D01*
X5514286Y-18973619D01*
X5523810Y-18945048D01*
X5533333Y-18926000D01*
X5552381Y-18897429D01*
X5561905Y-18887905D01*
X5676190Y-18916476D02*
X5695238Y-18916476D01*
X5714286Y-18926000D01*
X5723809Y-18935524D01*
X5733333Y-18954571D01*
X5742857Y-18992667D01*
X5742857Y-19040286D01*
X5733333Y-19078381D01*
X5723809Y-19097429D01*
X5714286Y-19106952D01*
X5695238Y-19116476D01*
X5676190Y-19116476D01*
X5657143Y-19106952D01*
X5647619Y-19097429D01*
X5638095Y-19078381D01*
X5628571Y-19040286D01*
X5628571Y-18992667D01*
X5638095Y-18954571D01*
X5647619Y-18935524D01*
X5657143Y-18926000D01*
X5676190Y-18916476D01*
X5980952Y-19116476D02*
X5980952Y-18916476D01*
X6066667Y-19116476D02*
X6066667Y-19011714D01*
X6057143Y-18992667D01*
X6038095Y-18983143D01*
X6009524Y-18983143D01*
X5990476Y-18992667D01*
X5980952Y-19002190D01*
X6190476Y-19116476D02*
X6171428Y-19106952D01*
X6161905Y-19097429D01*
X6152381Y-19078381D01*
X6152381Y-19021238D01*
X6161905Y-19002190D01*
X6171428Y-18992667D01*
X6190476Y-18983143D01*
X6219048Y-18983143D01*
X6238095Y-18992667D01*
X6247619Y-19002190D01*
X6257143Y-19021238D01*
X6257143Y-19078381D01*
X6247619Y-19097429D01*
X6238095Y-19106952D01*
X6219048Y-19116476D01*
X6190476Y-19116476D01*
X6371428Y-19116476D02*
X6352381Y-19106952D01*
X6342857Y-19087905D01*
X6342857Y-18916476D01*
X6523809Y-19106952D02*
X6504762Y-19116476D01*
X6466667Y-19116476D01*
X6447619Y-19106952D01*
X6438095Y-19087905D01*
X6438095Y-19011714D01*
X6447619Y-18992667D01*
X6466667Y-18983143D01*
X6504762Y-18983143D01*
X6523809Y-18992667D01*
X6533333Y-19011714D01*
X6533333Y-19030762D01*
X6438095Y-19049810D01*
X6609524Y-19106952D02*
X6628571Y-19116476D01*
X6666667Y-19116476D01*
X6685714Y-19106952D01*
X6695238Y-19087905D01*
X6695238Y-19078381D01*
X6685714Y-19059333D01*
X6666667Y-19049810D01*
X6638095Y-19049810D01*
X6619048Y-19040286D01*
X6609524Y-19021238D01*
X6609524Y-19011714D01*
X6619048Y-18992667D01*
X6638095Y-18983143D01*
X6666667Y-18983143D01*
X6685714Y-18992667D01*
X6933333Y-19040286D02*
X7085714Y-19040286D01*
X7009524Y-19116476D02*
X7009524Y-18964095D01*
X7323809Y-18935524D02*
X7333333Y-18926000D01*
X7352381Y-18916476D01*
X7400000Y-18916476D01*
X7419048Y-18926000D01*
X7428571Y-18935524D01*
X7438095Y-18954571D01*
X7438095Y-18973619D01*
X7428571Y-19002190D01*
X7314286Y-19116476D01*
X7438095Y-19116476D01*
X7666667Y-19106952D02*
X7685714Y-19116476D01*
X7723809Y-19116476D01*
X7742857Y-19106952D01*
X7752381Y-19087905D01*
X7752381Y-19078381D01*
X7742857Y-19059333D01*
X7723809Y-19049810D01*
X7695238Y-19049810D01*
X7676190Y-19040286D01*
X7666667Y-19021238D01*
X7666667Y-19011714D01*
X7676190Y-18992667D01*
X7695238Y-18983143D01*
X7723809Y-18983143D01*
X7742857Y-18992667D01*
X7866667Y-19116476D02*
X7847619Y-19106952D01*
X7838095Y-19087905D01*
X7838095Y-18916476D01*
X7971428Y-19116476D02*
X7952381Y-19106952D01*
X7942857Y-19097429D01*
X7933333Y-19078381D01*
X7933333Y-19021238D01*
X7942857Y-19002190D01*
X7952381Y-18992667D01*
X7971428Y-18983143D01*
X8000000Y-18983143D01*
X8019048Y-18992667D01*
X8028571Y-19002190D01*
X8038095Y-19021238D01*
X8038095Y-19078381D01*
X8028571Y-19097429D01*
X8019048Y-19106952D01*
X8000000Y-19116476D01*
X7971428Y-19116476D01*
X8095238Y-18983143D02*
X8171428Y-18983143D01*
X8123809Y-18916476D02*
X8123809Y-19087905D01*
X8133333Y-19106952D01*
X8152381Y-19116476D01*
X8171428Y-19116476D01*
X8228571Y-19106952D02*
X8247619Y-19116476D01*
X8285714Y-19116476D01*
X8304762Y-19106952D01*
X8314286Y-19087905D01*
X8314286Y-19078381D01*
X8304762Y-19059333D01*
X8285714Y-19049810D01*
X8257143Y-19049810D01*
X8238095Y-19040286D01*
X8228571Y-19021238D01*
X8228571Y-19011714D01*
X8238095Y-18992667D01*
X8257143Y-18983143D01*
X8285714Y-18983143D01*
X8304762Y-18992667D01*
X8380952Y-19192667D02*
X8390476Y-19183143D01*
X8409524Y-19154571D01*
X8419048Y-19135524D01*
X8428571Y-19106952D01*
X8438095Y-19059333D01*
X8438095Y-19021238D01*
X8428571Y-18973619D01*
X8419048Y-18945048D01*
X8409524Y-18926000D01*
X8390476Y-18897429D01*
X8380952Y-18887905D01*
M02*
